<svg xmlns="http://www.w3.org/2000/svg" viewBox="0 0 2000 2000"><defs><style>.cls-1{fill:#fff;}.cls-2{fill:#a4a4a4;}.cls-3{fill:#ff3c00;}</style></defs><title>Brasão</title><g id="Camada_2" data-name="Camada 2"><ellipse cx="999.5" cy="1000" rx="803.5" ry="934"/></g><g id="Camada_1" data-name="Camada 1"><path class="cls-1" d="M1002,367.48c154.18.52,307.8,10.81,461.28,24.57,21,1.88,32.83,5.35,26.18,30.68-57,217.34-48.33,436-24.68,657.53,23.53,220.33-64.68,400-240.93,534.57-62.49,47.7-132.23,84.17-202.38,119.39-11.3,5.67-21.84,11.73-36.55,4.41-151-75.14-294.66-158.23-380.4-313.2-76.86-138.91-86.94-285.58-63.59-439.47,28-184.56,14.63-368.29-29.74-549.25-8.76-35.68-1.29-43,33.86-45.88C697.13,378.41,849.26,367.93,1002,367.48Z"/><path class="cls-2" d="M1002.63,417.86c132.32-1.88,264.1,7.36,395.91,17.56,27.21,2.1,35.39,9.54,29.39,37-43.3,198.32-36.19,396.72-12.34,597.54,25.32,213.15-58.24,386-231.78,513.27-49.19,36.08-103.42,64.34-156.92,93.63-20.09,11-36.68,11.74-56.36-.17-38.47-23.26-79-43.18-116.93-67.24-213.17-135.22-303.41-328.9-268.22-578.56C611.6,845,608.63,660.36,570.76,476.57c-5.43-26.35-6-38.86,27.25-41.24C732.76,425.7,867.4,415.62,1002.63,417.86Z"/><path class="cls-3" d="M996.45,433.9c127.84.09,255.45,4.64,382.85,16.17,29.81,2.7,34.15,12.39,28.48,40.69-37.46,187-35,374.12-9.61,563.07,28.27,209.93-46.2,382.15-215.58,510.87-49.72,37.79-104.81,67.64-160.41,96.13-11.22,5.74-21.22,13.41-36,5.83-133.3-68.17-258.85-144.7-330.85-284.49-59.44-115.43-73.46-236.34-52.88-363.69,28.54-176.66,21.73-353.17-12.89-528.34C583.73,460.91,589,453,618,450.29,743.91,438.74,870.07,434.1,996.45,433.9Z"/></g></svg>