<svg id="Camada_1" data-name="Camada 1" xmlns="http://www.w3.org/2000/svg" viewBox="0 0 695.25 622"><defs><style>.cls-1{fill:#d74e24;}.cls-2{fill:#dd603a;}.cls-3{fill:#cf4419;}.cls-4{fill:#c58067;}.cls-5{fill:#ff3c00;}.cls-6{fill:#d83300;}.cls-7{fill:#bc2d00;}.cls-8{fill:#d03100;}.cls-9{fill:#972401;}.cls-10{fill:#606161;}.cls-11{fill:#c02e00;}.cls-12{fill:#a26955;}.cls-13{fill:#cf3100;}.cls-14{fill:#8c2201;}.cls-15{fill:#a36a56;}.cls-16{fill:#fff;}.cls-17{fill:#b72c01;}.cls-18{fill:#cfcece;}.cls-19{fill:#a02601;}.cls-20{fill:#f7f6f5;}.cls-21{fill:#fa3c02;}.cls-22{fill:#bd2d01;}.cls-23{fill:#781d01;}.cls-24{fill:#c72f00;}.cls-25{fill:#7a1e02;}.cls-26{fill:#ff3d01;}.cls-27{fill:#ffede8;}.cls-28{fill:#be2e01;}.cls-29{fill:#feece6;}.cls-30{fill:#711c02;}.cls-31{fill:#feebe5;}.cls-32{fill:#fbf4f1;}.cls-33{fill:#f6f0ed;}.cls-34{fill:#d03708;}.cls-35{fill:#a46b56;}.cls-36{fill:#96614f;}.cls-37{fill:#e83700;}.cls-38{fill:#fe3c00;}.cls-39{fill:#e7643c;}.cls-40{fill:#d5d5d5;}.cls-41{fill:#a62800;}.cls-42{fill:#f1eae6;}.cls-43{fill:#dcdddd;}.cls-44{fill:#acacac;}.cls-45{fill:silver;}.cls-46{fill:#9d2601;}.cls-47{fill:#922504;}.cls-48{fill:#dad9d9;}.cls-49{fill:#c7c6c6;}.cls-50{fill:#e26a44;}.cls-51{fill:#c63a0e;}.cls-52{fill:#ff6a3c;}.cls-53{fill:#ff460e;}</style></defs><title>basketball</title><path class="cls-1" d="M219,581.5c1.87-1.06,2.83-2.9,3.81-4.67.84-1.52.55-2.17-1.15-2.72s-3.54-.91-5.31-1.38l-10.89-2.9c-1.22-.5-2.63-.39-3.73-1.24a1.41,1.41,0,0,1,1-1.06c7-1.22,12.85-5.23,19.12-8.16,8.91-4.17,18-7.91,26.81-12.32,2-1,3.73-2,4.62-4.13a6.35,6.35,0,0,1,3-.53c14,.31,27.92-.47,41.89-.62,1.5,0,3.1-.23,4.36,1l.07,6.77c-.51,3-2.52,4.69-5.16,6-8.86,4.25-18,7.79-27.06,11.65l-50.24,21.43c-2.9,1.24-3.33,1.05-4.27-1.52C215.68,584.49,217.83,583.28,219,581.5Z"/><path class="cls-2" d="M215.87,587c1.64,1.9,1.64,1.89,3.7.94,8.25-3.78,16.67-7.15,25-10.66,4.9-2,9.71-4.31,14.6-6.36,9.5-4,19.05-7.9,28.56-11.88,2.63-1.1,5.18-2.44,7.82-3.54,3-1.26,5.53-3,7-6,0,4.29,0,8.58.07,12.87,0,1.37-.53,2.58-.64,3.9-.72.46-1.36.1-2-.18A3.37,3.37,0,0,0,297,566a19,19,0,0,1-2.45.71,25.42,25.42,0,0,0-4.5.72c-3.2.95-4.11,3.16-2.45,6a6.57,6.57,0,0,1,1.17,2.12c-1,4.45-4.9,6.6-7.73,9.58a18.53,18.53,0,0,1-2.67,2,5.08,5.08,0,0,0-2.6,2,3.09,3.09,0,0,1-1.09.77c-7.11,1.82-13.13,6.13-19.89,8.75-4,1.57-7.72,4.35-12.43,3.66q-8.31-3.09-16.63-6.16c-2-.74-3.95-1.71-6.13-1.84-.39-.71-1.23-.58-1.8-1A5,5,0,0,1,215.87,587Z"/><path class="cls-3" d="M223.28,544l29.52,0c1,1,.49,1.59-.48,2.07-3.47,1.74-6.9,3.55-10.42,5.17-5.36,2.48-10.81,4.75-16.16,7.24-5.81,2.7-11.54,5.56-17.33,8.32a9.3,9.3,0,0,1-4.38,1.19,4.71,4.71,0,0,0-2.32.65c-2.68,0-5.21-.94-7.76-1.55-8.21-2-16.47-3.64-24.73-5.33-.27-.05-.49-.33-.74-.51,9.43-3,18.12-7.64,27.13-11.57,1.5-.65,2.88-1.52,4.33-2.25,1.08-.53,1.21-1.26.55-2.2,1.09-1.08,2.48-.39,3.71-.62l16,0C221.15,543.89,222.35,544.69,223.28,544Z"/><path class="cls-4" d="M449.24,220.92a70.09,70.09,0,0,1,31,12.48,173.19,173.19,0,0,1,20.22,16.95c10.82,10.34,20.83,21.45,31.12,32.28,5.36,5.64,10.41,11.58,16.29,16.73A75.6,75.6,0,0,1,557.58,310a10.88,10.88,0,0,1,2.32,5c.6,3.72,1.55,7.41.72,11.23a15,15,0,0,0-.14,3.07c0,6.35-.56,12.68-.86,19-.31,6.63-.53,13.28-1.08,19.9a7.34,7.34,0,0,0,2.12,5.84,18.17,18.17,0,0,0,1.51,1.53C569.6,382,574,390.42,578,399.07a7.25,7.25,0,0,1,.6,5.66c-.17.46-.32,1-.9,1.16s-.89-.4-1.16-.8c-1.45-2.24-2.9-4.47-4.3-6.73-.66-1.08-1.49-1.77-2.77-1.34a2.49,2.49,0,0,0-1.7,2.64,30.88,30.88,0,0,0,.37,4.89,14.65,14.65,0,0,1-.29,7,4.35,4.35,0,0,1-.73,1.66c-.91,1.11-1.65,1.12-2.41-.06a10.43,10.43,0,0,1-1.21-3.45c-.6-2.58-1.19-5.17-1.91-7.73a6.72,6.72,0,0,0-2.18-3.63,2.9,2.9,0,0,0-3.15-.55,2.78,2.78,0,0,0-1.47,2.82A7.1,7.1,0,0,0,556,404a60.82,60.82,0,0,1,5.25,11.42c.45,1.48,1.25,3.23-.2,4.24s-2.81-.49-4-1.41c-2-1.56-3-3.84-4.22-6-2-3.48-3.36-7.22-5.12-10.93-1.57.35-2.06,1.65-2.61,2.79a108.54,108.54,0,0,0-4.24,11.19c-.61,1.73-1.12,3.51-1.75,5.23-.7,1.92-1.62,2.51-3.11,2.16s-2.32-1.72-1.87-3.65a67.11,67.11,0,0,0,1.24-6.62c.56-4.45,1.37-8.87,2.06-13.31.22-1.44-.31-1.95-1.69-1.46a21,21,0,0,0-4.63,2.39,37.22,37.22,0,0,1-6.14,3.49c-1.72.72-2.38.42-3-1.27a4.5,4.5,0,0,1,1.39-5.26,24.52,24.52,0,0,1,3.6-2.36,20.53,20.53,0,0,0,9.43-10.52c2.88-6.53,4.88-13.27,4.34-20.51a71.68,71.68,0,0,0-5.66-22.5q-1.78-4.25-3.5-8.51a33.91,33.91,0,0,1-2.4-14.42c.15-2.67-.82-4.25-3.35-5.11a8.28,8.28,0,0,1-3.58-1.66c1-1.18,2.47-.74,3.75-.84s2.69-.43,3.2-1.91-.4-2.33-1.26-3.23a49.54,49.54,0,0,0-7.8-6.44c-9.1-6.33-17-13.78-22.51-23.51a6.64,6.64,0,0,0-5.6-3.26,57.37,57.37,0,0,1-8.16-1.46c-4.31-1-8.48-2.47-11.35-6.19-1.13-1.47-2-1.06-2.81.25-.95,1.5-1.17,3.26-1.74,4.9s-1,3.21-3.21,3.11a5.76,5.76,0,0,1-2.36-2.73c-6.92-12-10.83-24.93-12.84-38.53-.39-2.64-.65-5.28-.91-7.93C448.49,222.7,448.16,221.64,449.24,220.92Z"/><path class="cls-5" d="M436.1,220.36c.32-.87,1.07-.77,1.75-.76,1.89,0,3.77.11,5.66.17,2.17,3.38,1.38,7.32,2,11,2.71,17.12,7.32,33.47,18.25,47.42.74.93,1.68,1.84,1.63,3.21-1.11,3.33.25,6.24,1.62,9.11,2.14,4.52,4.93,8.72,6.64,13.47A43.9,43.9,0,0,1,476,320.51c-.24,8-1.39,15.91-.65,23.89.09.94.59,2.29-.76,2.59-1.14.25-1.68-1-2.15-1.87a44.55,44.55,0,0,0-8.12-11.47,24,24,0,0,0-15-6.72c-7-.67-13.9-.35-20.85-.53-5.31-.13-10.59-.84-15.92-.67a25.41,25.41,0,0,1-7-2.08,9.15,9.15,0,0,1-4.1-3.58c-1.2-2.08-.5-3.39,1.89-3.37,3.48,0,7,0,10.44,0,.89,0,2,.28,2.55-.61.62-1-.22-2-.77-2.78a11.72,11.72,0,0,0-6.4-4.5,73.21,73.21,0,0,1-12-4.71c-6-3.23-10.09-7.89-11.67-14.61a22.53,22.53,0,0,0-2.51-7c-.46,1.32.54,3.18-1.49,3.76a3.09,3.09,0,0,1-.76-2.86c1.57-10.87-3.39-19.6-9.07-28.12-3.23-4.85-6.68-9.54-10.17-14.19a6.2,6.2,0,0,1-1.71-3.51c1.84-3.93,5.54-5.08,9.27-6.13.39-.11.93.31,1.39.48,4.1,1.24,5.86,5,8.14,8,4.92,6.55,8.63,13.9,13.07,20.77,4,6.19,9.13,10.09,16.64,10.4a94.31,94.31,0,0,0,12.58-.07c6.13-.56,14.47-10.68,14.74-18.07.34-9.51-.63-19-.17-28.48C435.41,223.07,435.07,221.59,436.1,220.36Z"/><path class="cls-4" d="M429.29,171.13a33.62,33.62,0,0,1,.94,17.49,45.43,45.43,0,0,0-.76,7c-.18,5.82-.79,11.61-1.36,17.4a14.87,14.87,0,0,1-1.78,6.12,3.7,3.7,0,0,0-.87,2.41c2.53,0,5-.95,7.55-.66,1,1.22.3,2.58.22,3.84-.44,7-1.09,14.06-1.3,21.11-.1,3.36-1.65,6.32-3.41,9.11a33.57,33.57,0,0,1-7.87,8.55,13,13,0,0,1-14.13,1.69c-7.86-3.51-13.28-9.77-18.5-16.24a69.08,69.08,0,0,1-7.93-11.29c-1.25-2.39-4-3.51-4.9-6.14,3-1.78,6.39-2.68,9.67-3.82,2.09-.72,2.1-.75,1.53-3-1.4-5.65-3.11-11.2-4.94-16.73a5.11,5.11,0,0,0-2.71-3,18.72,18.72,0,0,1-7.54-8.24c-1.82-3.61-.85-5.76,2.85-7.67,3.49-.61,5.11,1.76,7,4.66.16-4.25.12-8.06.06-11.86a44.26,44.26,0,0,1,.79-8.84c.61-3.28,2.1-4.09,5.23-2.88a7.06,7.06,0,0,0,4.17.63,78.77,78.77,0,0,1,11.56-1.27C411.75,168.72,420.52,169.93,429.29,171.13Z"/><path class="cls-6" d="M412.15,325c10.84.07,21.67.7,32.53.75,4.18,0,8.55.29,12.59,2.09,5.64,2.52,9.7,6.72,12.94,11.81,1.46,2.29,2.72,4.72,4.29,7a50.05,50.05,0,0,1-.16-9.55c.42-6.41.69-12.83,1-19.24a34.21,34.21,0,0,0-2.73-14.3c-1.7-4.21-4.1-8-6.11-12a50.79,50.79,0,0,1-2.26-5.7,4.12,4.12,0,0,1,.75-4.55c2.63,1.05,4.22,3.44,6.43,5.06a72.79,72.79,0,0,0,6.84,4.06,3.27,3.27,0,0,0,2.38.28c4.53,2.21,8.72,4.86,11.58,9.19,4.37,7.63,5.29,15.95,5,24.54-.27,7.06-.45,14.12-.66,21.17a28,28,0,0,1-1,6.05,11.52,11.52,0,0,1-7.08,8.12c1.2,2.67,2.66,5.12,3.15,8a39.13,39.13,0,0,1-.16,14c-1.2,6.54-2.83,13-5.89,18.94-7.29,5.61-13.72,12.21-20.78,18.07-6.89,5.7-12.65,12.42-18.79,18.82-1.1,1.14-2.29,3.12-4.48,1.47.21-1.45,1.34-2.25,2.25-3.19,4.61-4.76,8.45-10,10.65-16.33,3.95-11.32,9.06-22.16,13.47-33.29a107.3,107.3,0,0,0,6.19-23.7,17.51,17.51,0,0,1,1.28-5.36c.94-1.83.48-2.39-1.53-2.71-10.91-1.78-21.85-3.26-32.84-4.35-2.31-.81-5,.36-7.14-1.17-1.15-2.94-3.37-5.05-5.59-7.16-5-4.8-9.58-10.09-15-14.52C412.59,326.69,411.8,326.07,412.15,325Z"/><path class="cls-4" d="M303.29,523.79c.58-7.13,1.31-14.24,2.29-21.33,1.37-10,3.29-19.95,5.65-29.78,1-4.17,2.1-8.32,3.22-12.47A14.11,14.11,0,0,1,318.9,453a11.5,11.5,0,0,0,4-8c1.55-.49,2.44.68,3.45,1.44a76.79,76.79,0,0,1,13.26,13.46,55.54,55.54,0,0,0,9,8.65c1.61,1.27,4,.72,5.21,2.66-6,2.53-8,7.07-8.18,13.53A102.36,102.36,0,0,1,339.17,518c-1.2,3.26-2.46,6.5-3.81,9.7-.2.43-.43.85-.65,1.26-1.92,4.58-4.32,8.94-6.35,13.48-3,6.74-5.72,13.58-6.27,21.06-.59,2.4-3.23,3-4.29,5.06-3.58,5.63-6.3,5.91-12.55,1.3-1.46-1.32-3.63-2-3.81-4.46Z"/><path class="cls-7" d="M305.15,428.81c-.74-1.31.49-1.85,1.1-2.53a100.3,100.3,0,0,1,9.63-9.49A125.5,125.5,0,0,0,339,390.54a195.69,195.69,0,0,1,14.29-19.22,84.51,84.51,0,0,1,13.46-12c1.14-.85,2.1-2,3.51-2.43,2.87.42,2.14,2.6,1.82,4.23-.95,4.72-2.2,9.38-3.3,14.07-4.08,17.47-8.27,34.92-12.45,52.36a6,6,0,0,0-.22,3.47,64.5,64.5,0,0,0,9.7-7.62c3.05-2.9,5.82-6.08,9.21-8.61.8-.6,1.46-1.48,2.63-1.38.87.92.27,1.75-.27,2.46-5.74,7.65-8.4,16.81-12.42,25.3Q360.26,451,356,461a3.39,3.39,0,0,1-1.52,1.87c-1.27.13-1.72-1-2.4-1.66A186.63,186.63,0,0,1,338.4,445.5c-4.31-5.47-9.83-8.85-16.16-11.17a97.83,97.83,0,0,0-14.38-4.28C306.89,429.85,305.8,429.78,305.15,428.81Z"/><path class="cls-4" d="M298.32,330.47c3.6-3.48,7.63-6.46,11.46-9.67a56.86,56.86,0,0,0,13.62-16.41C328,296,331,287,334.51,278.16c4.94-12.54,11.67-23.86,21.7-33,1.3-1.19,2.14-2.43,1.84-4.25a1.54,1.54,0,0,1,.48-1.4c.25.18.56.4.57.69.14,5.91,4,9.9,7.3,14.2a66.19,66.19,0,0,1,11.51,23.91c1,4.45.7,9,.66,13.45a3,3,0,0,1-.93,2.51,9.55,9.55,0,0,0-9.85-.78,38.39,38.39,0,0,0-13.14,4.91c-3.14,1.84-5.12,5-7,8a90.5,90.5,0,0,1-23.06,24.83,7.2,7.2,0,0,1-6.28,1.47c-5.32-1.14-10.79-.8-16.17-1.41C300.82,331.12,299.41,331.55,298.32,330.47Z"/><path class="cls-8" d="M377.69,413.52a107.2,107.2,0,0,0-11.06,10.14,75.33,75.33,0,0,1-9.74,7.87,3.24,3.24,0,0,1-2.11.73c-.16-3,.9-5.69,1.54-8.4,3.52-14.86,7.25-29.67,10.7-44.55,1.4-6,2.84-12.08,4.23-18.13.36-1.58.92-3.26-1-4.31,4.7-3.77,9.36-7.6,14.92-10.1a16.73,16.73,0,0,1,6.51-1.6,3.77,3.77,0,0,1,2.84-.84c4.54.07,9.1-.14,13.45,1.53a1.68,1.68,0,0,1,0,2c-2.22,2.77-2.54,6.19-3.26,9.45-2.41,10.86-5.28,21.61-7.68,32.48a5.57,5.57,0,0,0,.93,5.09c1.65,2.24,1.4,5,.17,7.52-1.14.41-1.12-.54-1.28-1.16-.3-1.18.05-2.43-.51-4.29-3.16,3.33-6.5,6-9.57,8.94C383.87,408.65,381.13,411.49,377.69,413.52Z"/><path class="cls-9" d="M320.48,350.78a43.49,43.49,0,0,1,4.52,9.49c.33,1,.72,1.9-.11,2.81-2.62,4-6.24,7-9.9,9.92-13,10.5-27.43,18.16-44,21.26-.71.13-1.41.27-2.12.35-6.06.67-6.11.69-7.72-5.17a51.74,51.74,0,0,1-1.7-10c-.14-1.92.48-3.39,2.44-4.12,8.68-3.24,14.69-9.79,20.57-16.53,1.66-1.91,2.88-4.26,5.24-5.5,3.36.17,3-2.76,3.84-4.66,3.66-4.3,7.85-7.81,13.56-9.06a16.79,16.79,0,0,1,1.88-.09C312.8,339.65,319,344.82,320.48,350.78Z"/><path class="cls-10" d="M429.29,171.13c-2.94,1.21-5.82-.25-8.74-.2-.59,0-1.19-.32-1.79-.35-3.26-.15-6.52-.44-9.76-.51a72.17,72.17,0,0,0-16.7,1.38c-2,.42-3.92.62-5.83-.74s-3.26-.66-3.7,1.69a42.69,42.69,0,0,0-.74,6.66c-.11,4.19,0,8.38,0,12.57a7.07,7.07,0,0,1-1.2,4.59c-1-1.58-.86-3.54-2.22-4.85s-3-1.66-4.55-2.4a10.6,10.6,0,0,1-1.54-3.65c-1-5.63-2.05-11.26-2.66-16.95a21.44,21.44,0,0,1,.73-7,4.64,4.64,0,0,1,2.9-3.68,3.56,3.56,0,0,0,2.44-3.22c.67-6,4.07-8.76,10.05-9.52a167.39,167.39,0,0,1,27.84-1.4,14.4,14.4,0,0,1,8.53,3.07,36.63,36.63,0,0,0,7.17,4.7,7.58,7.58,0,0,1,2.47,1.78,15.69,15.69,0,0,0,5.21,3.7A6.4,6.4,0,0,1,439,158c1.24,1.24,1.22,2.35-.33,3.22a16.79,16.79,0,0,0-6.86,7.23A9.61,9.61,0,0,1,429.29,171.13Z"/><path class="cls-11" d="M407.85,346.47a1.86,1.86,0,0,0-1.64-.62c-4.87,0-9.69-1-14.57-.68-4.35-5.4-5.55-11.72-5.31-18.42a39.74,39.74,0,0,0-4-18.72,39,39,0,0,1-3.42-8.84c1.12-3.37.93-6.94,1.59-10.39.18-1,0-2.06,1-2.67,1-1.55,0-3.39.74-5.19,1.63,1,2.12,2.62,2.65,4.1a49.87,49.87,0,0,1,1.33,5,19.58,19.58,0,0,0,8.1,11.53,43.2,43.2,0,0,0,12.19,5.63c3.1,1,6.36,1.72,8.57,4.45.19.24.47.42.63.67.83,1.38,2.31,2.77,1.64,4.4s-2.56.74-3.88.76a104.26,104.26,0,0,1-11-.12c-1.27-.13-1.6.47-1,1.7a9.52,9.52,0,0,0,5.59,4.52c1.62.58,3.33.92,5,1.36.88,1.86,2.88,2.5,4.22,3.87q7.83,7.92,15.75,15.74a4.08,4.08,0,0,1,1.56,3.74c-1,1-2.28.78-3.51.62a7.7,7.7,0,0,0-3.13-.31c-5.78-.06-11.51-.86-17.27-1.32A3.33,3.33,0,0,1,407.85,346.47Z"/><path class="cls-12" d="M492.2,299.85c-3.23-3.16-7.09-5.52-10.57-8.37a3.6,3.6,0,0,0-1.13-.4,1.75,1.75,0,0,1-2.16-.85c-2.94-4.18-7.35-7.08-10.1-11.4-1.23-1.95-3.74-3.29-3.23-6.17,1.9-.81,2.06-2.65,2.51-4.3.5-1.88.88-3.79,2.41-5.2s1.59-1.27,2.64.38a13.18,13.18,0,0,0,6.72,5.11,42.09,42.09,0,0,0,11.88,2.71,9,9,0,0,1,7.8,4.91,62.41,62.41,0,0,0,18.41,19.8,85.57,85.57,0,0,1,11.43,9.2c1.09,1.11,2,2.27,1.29,3.78a3.68,3.68,0,0,1-3.91,2.37c-1.32-.1-2.66,0-4,.05q-11.26-4.46-22.53-8.88A52.19,52.19,0,0,0,492.2,299.85Z"/><path class="cls-13" d="M441.7,439.37a5.9,5.9,0,0,0,3.42-1.88,75.39,75.39,0,0,0,8.5-9.62c1.78-2.43,4.3-4.07,6.58-5.93,1.19-1,2.37-1.93,3.46-3,6-6,12.65-11.24,18.87-17a4.13,4.13,0,0,1,3-1.27c-2.3,6.41-5.84,12.17-9.34,17.95-4.24,7-8.63,13.93-12.83,21a148.49,148.49,0,0,0-9.54,19.25c-1.26,3-1.26,3-4.29,3.8-1.77,1.65-4.13,1.1-6.13,1.21-5.25.29-10.47,1.51-15.76.75-1.28-.45-1.31-1.48-1-2.49a54.73,54.73,0,0,1,13.88-22.28A2,2,0,0,1,441.7,439.37Z"/><path class="cls-14" d="M312.48,406.86c-1.86,2.31-4.43,3.7-6.85,5.28-1,.63-1.94.22-2.91.32-1.59.89-3,0-4.38-.54-5.31-1.92-10.08-5-15.37-7-4.25-1.6-8.49-2.87-13.16-2-2.6.5-6.65-4.17-6.08-6.75.24-1.06,1.13-1,1.92-1.14,4.49-.87,9-1.58,13.41-2.86a99.69,99.69,0,0,0,33-17c1-.75,1.8-1.74,3.23-1.37,1.52.71,1.77,2.17,2.06,3.57a44.12,44.12,0,0,1-2.32,25.32C314.44,404.25,313.25,405.42,312.48,406.86Z"/><path class="cls-15" d="M320.48,350.78a51.76,51.76,0,0,0-5.59-7.13c-2.22-2.25-4.57-3.94-7.94-3.43.39-1.6,1.32-1,2-.83-2.4-2.86-6.45-3.53-9.74-5.52-.94-.58-2.84-.62-2-2.63l1.16-.77c5.23-.39,10.38.87,15.61.69a19.48,19.48,0,0,1,5.4.92,4.18,4.18,0,0,0,3.93-.91,111.36,111.36,0,0,0,12.1-10.34,63.09,63.09,0,0,0,10.77-13.67c4.19-7.57,10.5-11.68,18.5-13.86,1.09-.3,2.15-.74,3.17.17a9.21,9.21,0,0,0-3.48,4.89,31.22,31.22,0,0,1-5.82,9.17q-12.67,15.2-25.42,30.33a80.85,80.85,0,0,1-11.9,11.93A4.2,4.2,0,0,0,320.48,350.78Z"/><path class="cls-16" d="M449.66,468.87a11.22,11.22,0,0,1,10.48,4.32c-2,2-1.93,4.46-1.22,6.88,3.93,13.48.76,26-4.71,38.37-2.65,6-6.72,11.26-8.81,17.52a2.46,2.46,0,0,1-.57.83,9.82,9.82,0,0,1-10.89-4.73,16.85,16.85,0,0,1-1.62-4.29c-.92-3.17-.54-6.46-.9-9.67-.48-4.25-2-8.27-3-12.42-.35-1.57-.88-3.16.08-4.72,1.6-.95,2.18.22,2.79,1.34a11.89,11.89,0,0,0,2.38,4.56c1.9,2.28,3.67,4.66,4.25,7.68.36,1.83,1.48,2.21,3.17,1.75,2.9-.8,4.84-2.39,5.42-5.52.9-4.87.27-9.77.47-14.65-.05-4.78,2.56-8.46,5-12.2a21.39,21.39,0,0,0,1.74-2.86c1.73-3.91.62-7.24-3.07-9.2-.79-.43-1.73-.67-2-1.7C448.69,469.49,448.72,468.84,449.66,468.87Z"/><path class="cls-4" d="M297.16,331.24a1.33,1.33,0,0,0,.81,1.18,45.53,45.53,0,0,0,5.76,2.79,12.36,12.36,0,0,1,5.92,4.07c-.7,1-2.07,0-2.7.94H305c-1.14-.51-2.31.44-3.46-.05-5.75-2.9-7.6-1.68-8.41,5.56.1,1.18-1.25,1.85-1.07,3.06a16.31,16.31,0,0,0-.38,1.79c-.36,3.45-.35,3.45-3.91,3.16a2.82,2.82,0,0,1-1.52-1.48c-.57-2.28-1.24-4.53-2-7.47a33.74,33.74,0,0,1-.59,7.9c-.17,1.33-.65,2.45-2.17,2.53a2.55,2.55,0,0,1-2.66-2.12,26.46,26.46,0,0,1-1-8.31c-.88,2.56-1.27,4.51-1.78,6.43a9.19,9.19,0,0,1-1,2.89c-.69,1-1.51,2.07-2.93,1.82a2.76,2.76,0,0,1-2.19-2.65,56.59,56.59,0,0,1-.81-6.69c-.93.16-1,1-1.56,1.42-1.91,1.25-2.13,4-4.46,4.9-1.49,0-1.77-1-1.87-2.19a12.18,12.18,0,0,1,.74-5.85,34.81,34.81,0,0,1,8.62-12.07c2.6-2,5.32-4,8.8-3.47,5.31.76,10.84-.24,15.94,2.06C296,331.69,296.57,331.33,297.16,331.24Z"/><path class="cls-5" d="M375.19,231.51a20,20,0,0,1,6.17,6.69,101,101,0,0,0,16.36,20.19,31.42,31.42,0,0,0,9.14,6.11,12.35,12.35,0,0,0,13.75-1.9,32.12,32.12,0,0,0,9.09-11.43,13.58,13.58,0,0,0,1.46-5.59c0-4.3.54-8.56.67-12.85A90.59,90.59,0,0,1,433,220.88c.8-.26,1.3-1.8,2.44-.57,0,11.14.41,22.28.06,33.42a14.76,14.76,0,0,1-3,8.53c-4.1,5.46-8.68,10-16.43,9.22-3.84-.39-7.73-.09-11.58-.69-5-.78-8.47-3.8-11.36-7.65-4-5.33-7.19-11.16-10.6-16.86a66.65,66.65,0,0,0-10.38-13.6c-.36-.35-.81-.65-.62-1.26C372.78,230.52,374,231.65,375.19,231.51Z"/><path class="cls-17" d="M353.73,470.8c-4,.21-6.62-2.36-9.31-4.68-3.26-2.82-5.8-6.31-8.59-9.57a55.54,55.54,0,0,0-13-11.59,52.23,52.23,0,0,0-12.63-6.7c-1.71-.67-3.46-1.23-5.11-2-3.31-1.58-3.68-3.83-1.23-6.76,12,2,23.74,4.59,32.59,13.72,4.18,4.31,7.83,9.14,11.75,13.7,2.66,3.1,5.58,6,8.19,9.12C357.6,468.78,355.68,469.8,353.73,470.8Z"/><path class="cls-18" d="M444.86,536.07c-.21-2.79,1.6-4.78,2.85-7,4.73-8.15,8.7-16.6,10.92-25.82A46.22,46.22,0,0,0,460,491.82a32.77,32.77,0,0,0-1.79-11.4c-.62-1.6-.41-3.23-.47-4.85s.81-2.43,2.44-2.38c2.4,1.45,3.69,3.9,4.83,6.22a30.7,30.7,0,0,1,3.19,12.35c.36,9-2.33,17.3-5.69,25.48a101.28,101.28,0,0,1-5.4,10.65,2.37,2.37,0,0,1-.39,1.25c-2.54,3.62-5.67,6.43-10.11,7.47A2.29,2.29,0,0,1,444.86,536.07Z"/><path class="cls-19" d="M262.71,344.68a37.43,37.43,0,0,0-.84,5.9c0,1.29.69,1.67,1.52,2.14.76,1.81-.29,3.41-.74,5-1.44,5.11-2.86,10.2-2.92,15.56a3.18,3.18,0,0,1-3.2,3.41,22.35,22.35,0,0,1-10-.86c-3.07-1.14-5.27-3.06-5.49-6.59a9.47,9.47,0,0,1,.05-4.49c1.17-4.52,2.56-8.94,5.34-12.79a31.28,31.28,0,0,1,13.64-7.8C261.52,343.75,261.53,343.77,262.71,344.68Z"/><path class="cls-20" d="M241.06,369.25c1.32,3.91,4.28,5.78,8.14,6.51a27,27,0,0,0,7.62.14c1.25-.11,2-.57,2-2.07.17-7.32,2.16-14.26,4.54-21.11,1.19-1.7,1.68-3.89,3.63-5,.75,1.19,0,2.17-.5,3.15a74.49,74.49,0,0,0-5.42,20.08c-.14.9-.55,2.07.17,2.64.93.75,1.9-.27,2.77-.68,7-3.32,12-9.12,17.15-14.64,1.78-1.9,2.83-4.55,5.5-5.57.88-.15,1.18.27,1.08,1.08-2.54,2.95-5,5.91-7.62,8.83-3.86,4.4-8,8.45-13.23,11.31a35.69,35.69,0,0,1-4.15,2c-2.57,1-2.67,1-2.53,3.56a53.17,53.17,0,0,0,2.85,13.76c.48,1.47,1.35,1.22,2.37,1.1A82.28,82.28,0,0,0,286.51,389c13.94-5.47,25.88-13.92,36.59-24.25l1.79-1.67a1.21,1.21,0,0,1,1.1.72c-3.2,4-6.44,8-11.26,10.25a140.56,140.56,0,0,1-16.08,10.68,92.92,92.92,0,0,1-34.35,11,9.38,9.38,0,0,0,1.48,3.7c1.55,3.11,1.57,3,5,2.55a18.49,18.49,0,0,1,8.18.76,77.61,77.61,0,0,1,12.16,5,48.28,48.28,0,0,0,11.62,4.71c.46.84,0,1.08-.74,1.07-1.48.75-2.78-.07-4.1-.51-4.19-1.4-8-3.58-12-5.46a35.06,35.06,0,0,0-12.28-3.68c-1-.08-2.28-.24-2.86.68-.7,1.1.54,1.81,1.1,2.59a62.66,62.66,0,0,0,6.38,7.05c.83.84,2,1.56,1.77,3l-1.46,0c-3.43-1.07-5.06-4.21-7.43-6.49a23.75,23.75,0,0,1-2.22-2.91c-1.92-2.54-2.18-2.49-4.8-.54-1.34,1-1.92,2.92-3.87,3.13l-.74-.66c-.2-2.45,1.77-3.51,3.19-4.9,1-1,3-1.57,1.83-3.59-2.45-4.36-2.31-4.87-5.5-4.65a44.25,44.25,0,0,1-11.87-.8,4.39,4.39,0,0,1-1.65-.78l-.09-1.17c1-1.09,2.25-.74,3.45-.57,3.16.45,6.33.18,9.49.25,1.85.05,2.37-.78,1.8-2.49a42,42,0,0,1-2-10.52c-.12-1.86-1.07-2.48-2.77-2.47s-3.27,0-4.9,0a12.75,12.75,0,0,1-7.17-2.41c-1.11-.81-2.45-1.61-2.13-3.38C241.28,371.27,239.84,370.29,241.06,369.25Z"/><path class="cls-14" d="M241.13,372.28c1.9,3.39,5.14,4.48,8.67,5a30.12,30.12,0,0,0,7.35,0c.91-.1,1.62-.08,1.66,1.13a51.59,51.59,0,0,0,3.28,16c-5.8.54-11.26,0-16.72-.51-.77-.2-1.1-.79-1.41-1.47A44.4,44.4,0,0,1,240,373.17C240,372.44,240,371.55,241.13,372.28Z"/><path class="cls-21" d="M465,272.66c2.07,4.24,5.24,7.65,8.33,11.1,1.56,1.73,3.3,3.29,4.94,4.95.31.31.91.61.33,1.2-2.57.12-4.34-1.58-6.15-3-8.63-6.53-14.34-15.31-18.56-25.07a114.64,114.64,0,0,1-8.66-32.27c-.3-2.49-.08-5.09-1-7.54a1.75,1.75,0,0,1,.63-2.19l3.22-.08c.75,0,1,.53,1.14,1.11a125.6,125.6,0,0,0,4.54,26.74,97.14,97.14,0,0,0,8.75,21.17A18.2,18.2,0,0,0,465,272.66Z"/><path class="cls-22" d="M314.73,374.05,326,363.8c3.76,16.71-.7,30.93-13,42.78a2.3,2.3,0,0,1-.54.28c1-2.65,2.13-5.26,2.92-8,1.77-6,2.72-12,1.5-18.26-.3-1.57-.4-3.2-.72-4.79A2.24,2.24,0,0,0,314.73,374.05Z"/><path class="cls-23" d="M280,417.23c-2.41-2.9-5.42-5.24-7.72-8.25l-3.65-4.79a11.26,11.26,0,0,1,7.52-.77,50.46,50.46,0,0,1,13.15,4.9,55.76,55.76,0,0,0,12.7,5.21c-.3.92-1.19,1-1.9,1.28A42.25,42.25,0,0,1,282.84,418,4,4,0,0,1,280,417.23Z"/><path class="cls-24" d="M449.66,468.87l-.77,1.24c-.39,3.44-3.29,4.3-5.75,5.62-3.8,1.69-7.88,1.44-11.89,1.68a6.74,6.74,0,0,1-.88-.24c-6.67-2.21-7.93-5.83-4.09-11.88a2.56,2.56,0,0,1,1.66-.65c6.18-.1,12.34-.59,18.48-1.25a3.65,3.65,0,0,1,2.65.46c.74.25,1.59-.3,2.34.28C451.28,465.9,450,467.21,449.66,468.87Z"/><path class="cls-25" d="M245.46,395.07c2.55.11,5,.71,7.61.75s5.09.42,7.63,0a2.1,2.1,0,0,1,2.61,1.45c.89,2,2,4,3,6-2.71,1.83-5.35,3.58-6.87,6.51a1.76,1.76,0,0,1-1.93-.44C252.51,405.42,248.2,400.92,245.46,395.07Z"/><path class="cls-26" d="M377.06,277.55a113.42,113.42,0,0,0-4.86-12.48c-2.57-5.39-6.28-10-9.84-14.66-2.47-3.27-4.25-6.68-3.83-10.92a.75.75,0,0,1,.68-.6c2.73,1.76,4.16,4.66,6,7.16,5.43,7.41,10.68,14.95,14.3,23.48a13.38,13.38,0,0,1,.86,9.21C378.86,279.46,378,278.39,377.06,277.55Z"/><path class="cls-27" d="M371.54,231.42A57.21,57.21,0,0,1,382,244.21c3.14,5.16,6.28,10.31,9.47,15.44a35,35,0,0,0,5.59,6.9,13.57,13.57,0,0,0,7.64,3.61c4,.54,8,.46,11.94.65a15,15,0,0,0,12.48-5.28c3.55-3.86,5.84-8.08,5.9-13.4,0-2.25.16-4.51.15-6.76,0-7.37-.09-14.75-.09-22.12,0-1-.37-2.05.38-2.94l.65.05a4,4,0,0,1,.21.88c-.07,10.13.3,20.26.05,30.4-.21,8.4-4.6,14.16-11.07,18.75-1.93,1.37-4.23,1.5-6.47,1.58a76.5,76.5,0,0,1-13.78-.49,16.06,16.06,0,0,1-9.46-4.58,50.76,50.76,0,0,1-6.82-9c-2.17-3.47-4.24-7-6.34-10.51A65.26,65.26,0,0,0,370.34,232C370.31,230.82,371,231.21,371.54,231.42Z"/><path class="cls-28" d="M262.71,344.68c-2.44-.46-4.44.92-6.54,1.72a29.22,29.22,0,0,0-7.31,4.32,6.39,6.39,0,0,1-2.41,1.25c4.33-7.84,10.84-13.3,18.8-17.15a21,21,0,0,1,5.4-2,1.66,1.66,0,0,1-.52,1.39C267,337.24,264.84,340.94,262.71,344.68Z"/><path class="cls-29" d="M444.88,219.89c1.32,18.37,5.18,36,15,51.93,4.69,7.62,10.67,14,18.75,18.09l1.89,1.17c-.28,1.11-1.05.84-1.65.46-2.85-1.8-6.07-2.9-8.6-5.39-1.69-1.66-3.7-3.06-5.28-4.89-2-2.81-4.15-5.54-6-8.45-6.77-10.57-10.55-22.3-13-34.51a160.3,160.3,0,0,1-2.43-18.53C444,219,444.48,219.19,444.88,219.89Z"/><path class="cls-30" d="M260.2,410.45a25.21,25.21,0,0,1,5.25-5c1.24-.81,2-.84,2.92.53a55.59,55.59,0,0,0,10.15,11.29.66.66,0,0,1-.73.38,43.41,43.41,0,0,1-16.55-5.82C260.69,411.49,260.22,411.15,260.2,410.45Z"/><path class="cls-31" d="M380.18,278.8A20.17,20.17,0,0,0,378,267.54a110.54,110.54,0,0,0-9.46-15.74c-3-4.34-6.21-8.61-9.32-12.91,0-.5-.74-1.24.47-1.29a215.68,215.68,0,0,1,16.58,23.9c.57,1,1.07,2,1.62,3a26.5,26.5,0,0,1,3.73,14.93c-.14,2.24,0,4.49,0,6.74l-1.32,11.5c-.09.82-.1,1.69-1.32,1.56,0-.43,0-.87,0-1.31a20.88,20.88,0,0,1,0-7.8,74.54,74.54,0,0,0,.29-8.18C379.29,280.79,379.28,279.65,380.18,278.8Z"/><path class="cls-32" d="M449.07,463.85c-6.68.61-13.35,1.26-20.06,1.46a6.06,6.06,0,0,0-2.68.5,3.92,3.92,0,0,1-2.56.85,68.54,68.54,0,0,1-37.43-7.59c-1.28-.67-3.67-1.26-2.88-2.91s2.73-.19,4,.42a77.31,77.31,0,0,0,21.27,6.83c5,.62,9.94.12,14.9.2,1.09,0,2.23-.4,3.23.39,5.54.14,11-.65,16.54-.95,2-.1,4.08-.27,6.12-.41l2.16.28C450.81,463.6,449.69,463,449.07,463.85Z"/><path class="cls-33" d="M356.17,466.43a17.52,17.52,0,0,1-3.39-3.49c-5.2-5.77-10.4-11.56-15.2-17.66a30.31,30.31,0,0,0-11.83-9,97.7,97.7,0,0,0-19.84-6.17,5.77,5.77,0,0,1-2-.65c.28-.49.8-.53,1.26-.67a80.35,80.35,0,0,1,25.08,8.4,26.76,26.76,0,0,1,7.65,6.49c5.32,6.45,10.62,12.92,16.48,18.9a4.32,4.32,0,0,1,2.72,3.22C357,466.27,356.75,466.63,356.17,466.43Z"/><path class="cls-34" d="M380.18,278.8a91,91,0,0,1-1.25,19.08c-1.12-1-1-2.37-1.29-3.63,0-2.44,0-4.89.09-7.32.18-3.17-.46-6.25-.67-9.38C378.25,277.6,379.14,278.39,380.18,278.8Z"/><path class="cls-35" d="M394.84,227.86c1.78.68,3.24,1.94,5.15,2.38,5.36,1.25,10.27-.2,15.11-2.18a40.37,40.37,0,0,0,5.4-2.85c1.17-.7,1.87-.24,2,.82.14,1.23.57,2.38.71,3.59.41,3.33-.43,6-3.61,7.72a49.39,49.39,0,0,0-5.48,3.88c-2.14,1.59-4.2,1.26-6.13-.27a108.5,108.5,0,0,1-13.23-12.67S394.78,228.12,394.84,227.86Z"/><path class="cls-36" d="M374,194.25c.1-.69-.32-1.73.74-2s1.67.57,2.11,1.37a4.91,4.91,0,0,1,.68,2,4.82,4.82,0,0,0,1.83,3.37,5.12,5.12,0,0,1,1.27,1.67,1.69,1.69,0,0,1-.63,2.16c-.71.48-1.31.2-1.94-.26C376.16,201.14,374,196.88,374,194.25Z"/><path class="cls-37" d="M408.37,464c-5.78-.51-11.17-2.45-16.49-4.59-2.18-.87-4.27-2-6.4-3-.64-.31-1.22-.82-2-.2.29,1.07,1.3,1.24,2.08,1.63,7.92,4,16.2,6.93,25.07,7.76,3.66.34,7.37.11,11.06.14l4.6,0c-.38,1.86-1.16,3.63-1.24,5.56-.09,2.24.42,3.1,2.47,4,1.19.51,2.44.89,3.67,1.32-.78,1.32-2.12,1.07-3.29,1.08a93.67,93.67,0,0,1-40.73-8.67c-2.29-1.34-4.77-2.31-7.1-3.58-2.06-1.12-2.5-2.31-1.3-4.41a145.18,145.18,0,0,0,11.07-24.51c.4-1.14.2-1.52-.78-1.83a2.32,2.32,0,0,1,.35-1.76c5.2-8.39,6.34-17.83,7.09-27.36.09-1.11-.09-2.29.88-3.15,1.18-2,.38-4.17.53-6.26a1.08,1.08,0,0,0-.88-1.11c-1.91-.6-1.71-2.18-1.42-3.55,1-4.46,2.07-8.88,3.11-13.32,1.8-7.6,3.66-15.19,5.35-22.81.44-2,1.32-3.83,1.43-5.91.07-1.41,2.21-1.5,2.31-3a113.63,113.63,0,0,1,14.5,1.14,42.54,42.54,0,0,0,5.18.09c.71.69,1.76,0,2.47.6h3.68c1.25.8,2.66.56,4,.65,1.13.07,2.39-.45,3.36.59-4.67,7.58-5.3,16.41-7.34,24.75-5.79,23.69-11.3,47.45-17,71.17-1.24,5.18-2.22,10.42-3.6,15.57C412.26,464.3,411.9,464.48,408.37,464Z"/><path class="cls-38" d="M408.37,464c3.13-.14,3.17-.13,3.86-3,3.47-14.57,6.88-29.15,10.39-43.7q3.9-16.2,7.73-32.41c2.34-9.91,4.91-19.77,7-29.74.51-2.45,1.49-4.39,3.73-5.58,5.41,0,10.72,1,16.07,1.68,4.74.57,9.45,1.38,14.19,2,1.58.2,3.08.95,4.82.48,1.05-.28,1.43.82,1,1.64-3.59,7.44-3.07,15.89-5.84,23.58-1.87,5.18-3.77,10.34-5.89,15.42-3.15,7.53-6.63,14.94-9.2,22.69a48.82,48.82,0,0,1-12.34,19.84,9,9,0,0,0-2.21,2.52,75.09,75.09,0,0,0-8.78,11.31,53.8,53.8,0,0,0-6,13.32C420.72,464.62,414.55,465,408.37,464Z"/><path class="cls-16" d="M277.81,587a77.07,77.07,0,0,0,6.43-5.82c1.59-1.66,3.37-3.15,4.19-5.39,1.6-3.57,2.16-7.85,6.46-9.6.51-.88,1.55-.43,2.24-.86a5.3,5.3,0,0,1,3,.09,3.06,3.06,0,0,0,1.87.83l3.62,3a20,20,0,0,1-6.48,16.84c-1.48,1.37-2.46,3.13-3.8,4.62-.1.43.53.08.12,0-.15,0-.16-.12,0-.29a74.36,74.36,0,0,1,14.76-14.13c3-2.1,6.16-4.44,7.19-8.4,1.13-1.75,2.89-2.86,4.39-4.24,2.24-1.92,4.53-1.82,6.11.39a8.87,8.87,0,0,1,1.74,4.75c-.15.94-.57,1.89,0,2.83,0,.39.09.78.13,1.17.37.6,0,1.36.47,2l.08,1.11c.1,3.35,1.44,6.65.48,10-1.69,2.08-4.3,2.16-6.58,2.89a14,14,0,0,0-5.06,2.72c-9.78,8.48-21.28,12.62-34.11,13.51-5.2.36-10.39-.21-15.58.15-2.95.2-2.66-1.81-2.74-3.65.65-5.39,3.79-9.14,8.05-12.15l.75-.69A5.35,5.35,0,0,1,277.81,587Z"/><path class="cls-39" d="M329.17,569.18c-.2-.68-.4-1.36-.61-2-1.28-4.08-2.6-4.74-6.75-3.4a1.24,1.24,0,0,1-.61-1.29,64.28,64.28,0,0,1,6.64-20.37c.31.26.59.64.94.74,4.3,1.29,7.68,4.11,11.14,6.77a21.56,21.56,0,0,0,11.61,4.14c5.68.5,11.38-.18,17.06-.6a7.09,7.09,0,0,0,1.72-.57h1.24c1.78-.8,3.76.22,5.53-.61H382a2.23,2.23,0,0,0,2.45,0c2.16-.24,4.19.49,6.33.82-.25,1.29-1.32,1.57-2.19,2-7,3.62-14,7.25-21,10.81-6.3,3.2-13,5.22-19.83,7.09a4.83,4.83,0,0,1-1.82.09,101.5,101.5,0,0,1-15.26-2.94,4,4,0,0,0-.92-.07A1,1,0,0,1,329.17,569.18Z"/><path class="cls-40" d="M317.42,568a6.52,6.52,0,0,1-2.08,4.89c-2.47,2.77-5.5,4.83-8.44,7a69.23,69.23,0,0,0-9.63,9.35c-.68.75-1.12,1.65-2.67,1.61l5.88-7.49c.69-.88,1.34-1.79,2.06-2.64a7.54,7.54,0,0,0,2-6.18,9.53,9.53,0,0,1,1.14-5.22,41,41,0,0,0,3.54,2.22c3.06,1.5,5.37.77,7.21-2.11C316.72,568.93,316.78,568.25,317.42,568Z"/><path class="cls-41" d="M389.42,435.21c-2.82,2.35-5.61,4.75-8.48,7A92.91,92.91,0,0,0,368.14,455c-3,3.58-6.48,6.82-9.73,10.22a1.52,1.52,0,0,1-1.61.6l-2.44-3.22q5-11,9.89-22.06c2.45-5.5,4.83-11,7.29-16.53a38.09,38.09,0,0,1,5.64-9.08,2.2,2.2,0,0,0,.51-1.41c1.44-2.44,4-3.69,5.95-5.59,3.92-3.82,7.94-7.55,11.92-11.31a1.61,1.61,0,0,1,1.64-.57c.42,2.05,0,4.26.22,6.42-.14,9.12-1.26,18-4.86,26.54a29.26,29.26,0,0,1-1.69,3.24C390.32,433.19,389.3,433.94,389.42,435.21Z"/><path class="cls-42" d="M301.3,339.58c1.19.44,2.6-.36,3.7.65-5.31,1.36-9.16,4.9-12.94,8.57-1-1.31.45-1.93.8-2.85C294.61,342.42,297.93,341,301.3,339.58Z"/><path class="cls-6" d="M430,348.3c-.85-.07-1.81.3-2.47-.6C428.39,347.78,429.34,347.42,430,348.3Z"/><path class="cls-4" d="M428.81,501c-4.54,2.63-8.27,6.32-12.41,9.47a56.94,56.94,0,0,1-11.9,7.5,23.27,23.27,0,0,1-15.87,1.35c-6.67-1.89-10.6-7.36-11-14.29a48.48,48.48,0,0,1,2.86-18.35c1.63-4.84,3.5-9.59,5.28-14.38a15.08,15.08,0,0,0,1.26-4.08c6.32,2.55,12.66,5.05,19.37,6.39,8.19,1.64,16.43,2.81,24.83,2,4.12-.27,8.27-.36,12.26-1.66,1.61,2.08.84,4.48.87,6.75,0,1.72-.49,3.41-.59,5.13A43.62,43.62,0,0,1,440.55,500a52.83,52.83,0,0,1-3,5.29c-1.73,2.38-2.81,2.46-4.79.27a11.65,11.65,0,0,1-2.08-3C430.29,501.81,430.1,500.75,428.81,501Z"/><path class="cls-43" d="M430.69,502.61a19.71,19.71,0,0,1,3.43,3.4c.86,1,1.45.74,2.16-.14a52.24,52.24,0,0,0,3.46-5.66c2.88-1,5.88-1.86,8-4.26,0,4,0,7.95.05,11.93a21.6,21.6,0,0,1-1.33,5.93,3.19,3.19,0,0,1-1.6,1.77,16.3,16.3,0,0,1-4.53,1.82c-2,.47-2.61.06-3-2.06a16.92,16.92,0,0,0-4.26-7.94A7.94,7.94,0,0,1,430.69,502.61Z"/><path class="cls-44" d="M443,487.36c.17-4.12.89-8.22.52-12.36a14.84,14.84,0,0,0,5.4-4.89c.38.57,1,.57,1.6.76,4.7,1.62,6,5.11,4.11,10.31a10.83,10.83,0,0,1-2,3.06A23.57,23.57,0,0,1,443,487.36Z"/><path class="cls-45" d="M443,487.36a33.64,33.64,0,0,1,9.68-3.12c-1.07,1.8-2.2,3.57-3.21,5.4a11.81,11.81,0,0,0-1.66,6.31c-1.32,3.15-3.58,4.35-8,4.26A59.32,59.32,0,0,0,443,487.36Z"/><path class="cls-46" d="M286.69,352.67c-4.46,5.59-9,11.15-14.45,15.79a29.69,29.69,0,0,1-11.8,6.59c-.65-3.08.16-5.93.62-8.77a78,78,0,0,1,6-18.59c1.15-.83,1-2.72,2.94-3.24a60.32,60.32,0,0,0,.61,7.77c.09.39,0,.82.09,1.22a2.09,2.09,0,0,0,1.65,2c.92.17,1.43-.6,2-1.21a5.76,5.76,0,0,0,.91-2.56c.55-2,1-3.94,1.56-5.91a4.41,4.41,0,0,1,1.79-2.89,42,42,0,0,0,.64,8.47c.07.29,0,.61.09.91.27,1.25.73,2.54,2.24,2.47s1.38-1.41,1.57-2.54c.46-2.69.09-5.49,1.32-8.16C285.27,346.88,287.13,349.45,286.69,352.67Z"/><path class="cls-47" d="M301.3,339.58c-2.77,2.18-5.91,3.87-8.44,6.37a1,1,0,0,1-.54-1.27,43.28,43.28,0,0,1,1.84-5.16c1.25-2.56,2.78-2.9,5.18-1.38C300,338.57,300.65,339.1,301.3,339.58Z"/><path class="cls-48" d="M330.4,587c-.17,1.92-1.4,3.58-1.3,5.56-1.48,2.44-2.09,5.38-4.22,7.44-16.22,4.89-32.61,9.17-48.79,14.15-3.52.12-5.69-2.12-7.8-4.46-2.62-2.71-3-6.39-.79-8.55.3,1.07-.41,2.43.47,3.22s1.9-.21,2.91-.11c2.12.22,4.25-.19,6.38.42,1.69.49,3.37-.46,5.12-.44,12.67.17,23.93-4,34.16-11.27a2.9,2.9,0,0,0,.71-.58c3.23-4.36,8.37-4.58,13-6,.24.08.34.2.32.36S330.46,587,330.4,587Z"/><path class="cls-49" d="M276.09,614.15c1.88-1.93,4.49-2.3,6.88-3,11.11-3.24,22.26-6.35,33.4-9.49,2.15-.61,4.32-1.15,6.46-1.78a2.45,2.45,0,0,1,2.05.12c-2.9,4.59-7.27,7.43-12,9.71a50.73,50.73,0,0,1-17,4.53c-6.13.65-12.24.24-18.36.41A1.79,1.79,0,0,1,276.09,614.15Z"/><path class="cls-50" d="M267.5,601.14c-1.15,3-.31,5.78.79,8.55-.7.91-1.56.67-2.5.45-2.47-.57-5-1.06-7.45-1.59-2-1.29-4.31-1.65-6.48-2.41-3.22-1.13-6.54-2-9.53-3.73a35.91,35.91,0,0,0,10.33-3.59c3.91-2.2,8.3-3.33,12.16-5.71a22.39,22.39,0,0,1,10-3.64c-.36,1.14-1.42,1.69-2.15,2.5C270.27,594.66,268,597.41,267.5,601.14Z"/><path class="cls-51" d="M200.49,545.18h.3c.72,0,1.58,0,1.76.84.14.66-.51,1.09-1,1.38-1.69.94-3.37,1.9-5.11,2.71-5.55,2.57-11.09,5.13-16.69,7.58-3.6,1.58-7.08,3.66-11.24,3.5l-3,0c-2.52-1.15-5.28-1.27-7.94-1.82-2.38-.49-4.8-.83-7.19-1.29-1.23-.25-1.5-.9-.77-2a14.17,14.17,0,0,1,3.46-3.45,31.91,31.91,0,0,1,14.76-5.48A118.38,118.38,0,0,1,187,545.79c.93-.69,2.14.12,3.07-.57Z"/><path class="cls-3" d="M190,545.22c-.88,1-2,.45-3.07.57C187.84,544.82,189,545.32,190,545.22Z"/><path class="cls-52" d="M377.08,552c-1.74,1.18-3.69.37-5.53.61C373.28,551.39,375.24,552.19,377.08,552Z"/><path class="cls-52" d="M384.46,552a1.48,1.48,0,0,1-2.45,0Z"/><path class="cls-50" d="M294.89,566.2a18.61,18.61,0,0,0-4.65,6.58c-.5,1.05-.67,2.33-1.81,3-1.06-1.52-2.82-2.55-2.47-4.93s.8-3.37,3-4A12.84,12.84,0,0,1,294.89,566.2Z"/><path class="cls-50" d="M277.81,587a3.63,3.63,0,0,1-2.25,1.77C275.67,587.37,276.57,587,277.81,587Z"/><path class="cls-50" d="M300.16,565.43l-3-.09A2.29,2.29,0,0,1,300.16,565.43Z"/><path class="cls-53" d="M223.28,544c-.88,1-2,.47-3.07.56C221.09,543.56,222.25,544.1,223.28,544Z"/></svg>