<svg id="Camada_1" data-name="Camada 1" xmlns="http://www.w3.org/2000/svg" viewBox="0 0 695.25 622"><defs><style>.cls-1{fill:#f1b475;}.cls-2{fill:#e56c46;}.cls-3{fill:#e96e48;}.cls-4{fill:#e26a45;}.cls-5{fill:#606161;}.cls-6{fill:#ffb69f;}.cls-7{fill:#fff;}.cls-8{fill:#ffa488;}.cls-9{fill:#ff9f82;}.cls-10{fill:#ff9a7c;}.cls-11{fill:#ffac92;}.cls-12{fill:#df6944;}.cls-13{fill:#ff9675;}.cls-14{fill:#ff9270;}.cls-15{fill:#ff8a66;}.cls-16{fill:#ffa88e;}.cls-17{fill:#ffaf96;}.cls-18{fill:#ffb29a;}.cls-19{fill:#ff3c00;}.cls-20{fill:#e66d47;}.cls-21{fill:#db6743;}.cls-22{fill:#c0905e;}.cls-23{fill:#ff805a;}.cls-24{fill:#882101;}.cls-25{fill:#ff7a52;}.cls-26{fill:#ff7449;}.cls-27{fill:#d8623e;}.cls-28{fill:#7a1e01;}.cls-29{fill:#ff6839;}.cls-30{fill:#fff5f2;}.cls-31{fill:#ff6232;}.cls-32{fill:#fff1ec;}.cls-33{fill:#ba8b5b;}.cls-34{fill:#ff531e;}.cls-35{fill:#d86744;}.cls-36{fill:#ffe7e0;}.cls-37{fill:#fff9f7;}.cls-38{fill:#d96a49;}.cls-39{fill:#ff5d2b;}.cls-40{fill:#ff7044;}.cls-41{fill:#ea6f48;}.cls-42{fill:#ff6d40;}.cls-43{fill:#ff5926;}.cls-44{fill:#dc643f;}.cls-45{fill:#c89561;}.cls-46{fill:#b22b00;}.cls-47{fill:#5b5c5c;}.cls-48{fill:#535454;}.cls-49{fill:#ce9a65;}.cls-50{fill:#ff4c15;}.cls-51{fill:#1d1d1d;}.cls-52{fill:#731d02;}.cls-53{fill:#f33a01;}.cls-54{fill:#ffece5;}.cls-55{fill:#151515;}.cls-56{fill:#ba2c00;}.cls-57{fill:#d49f68;}.cls-58{fill:#e63701;}.cls-59{fill:#404141;}.cls-60{fill:#363737;}.cls-61{fill:#040404;}.cls-62{fill:#282828;}.cls-63{fill:#ff7d55;}.cls-64{fill:#0a0b0a;}.cls-65{fill:#3c3c3c;}.cls-66{fill:#313131;}.cls-67{fill:#232424;}.cls-68{fill:#494a4a;}.cls-69{fill:#4e4e4e;}.cls-70{fill:#ffd1c3;}.cls-71{fill:#5f1803;}.cls-72{fill:#ffede8;}.cls-73{fill:#dba46b;}.cls-74{fill:#ff9170;}.cls-75{fill:#ffe5dd;}.cls-76{fill:#454545;}.cls-77{fill:#ff450c;}.cls-78{fill:#ffdfd5;}.cls-79{fill:#10100f;}.cls-80{fill:#701c02;}.cls-81{fill:#661901;}.cls-82{fill:#fff4f0;}.cls-83{fill:#ff845e;}.cls-84{fill:#bbafab;}.cls-85{fill:#ff8b67;}.cls-86{fill:#7c1e02;}.cls-87{fill:#c1b4b0;}.cls-88{fill:#ff9878;}.cls-89{fill:#ffe9e3;}.cls-90{fill:#ffb098;}.cls-91{fill:#230b04;}.cls-92{fill:#e83c07;}.cls-93{fill:#4b1403;}.cls-94{fill:#fff3f0;}.cls-95{fill:#350f03;}.cls-96{fill:#7a260d;}.cls-97{fill:#ffa78c;}.cls-98{fill:#ffad94;}.cls-99{fill:#fff0ec;}.cls-100{fill:#fff0ea;}.cls-101{fill:#ffd9cd;}.cls-102{fill:#fb6e43;}.cls-103{fill:#831f01;}.cls-104{fill:#ff855f;}.cls-105{fill:#f7d1ac;}.cls-106{fill:#ccc1bd;}.cls-107{fill:#ff7b52;}.cls-108{fill:#f63a00;}.cls-109{fill:#ef3800;}.cls-110{fill:#e93700;}.cls-111{fill:#e33600;}.cls-112{fill:#e23600;}.cls-113{fill:#c52f00;}.cls-114{fill:#c73406;}.cls-115{fill:#d5c9c5;}.cls-116{fill:#c9bab6;}.cls-117{fill:#d9d1cf;}.cls-118{fill:#fefefe;}.cls-119{fill:#ffdbd0;}.cls-120{fill:#ffded4;}.cls-121{fill:#ffe2da;}.cls-122{fill:#ffe6df;}.cls-123{fill:#ffebe4;}.cls-124{fill:#cc9964;}.cls-125{fill:#b78959;}.cls-126{fill:#ad8154;}.cls-127{fill:#ffbda9;}.cls-128{fill:#dc3400;}.cls-129{fill:#d43200;}.cls-130{fill:#cd3100;}.cls-131{fill:#e1866b;}.cls-132{fill:#df8265;}.cls-133{fill:#ff8e6b;}.cls-134{fill:#de7d5f;}.cls-135{fill:#ffa082;}.cls-136{fill:#de7554;}.cls-137{fill:#dd7959;}.cls-138{fill:#ffc1ae;}.cls-139{fill:#ffd0c1;}.cls-140{fill:#ffc5b3;}.cls-141{fill:#ffc8b7;}.cls-142{fill:#ffd3c5;}.cls-143{fill:#ffccbd;}.cls-144{fill:#d9a36a;}.cls-145{fill:#e2aa6f;}.cls-146{fill:#eb3700;}.cls-147{fill:#d83300;}.cls-148{fill:#cc3000;}.cls-149{fill:#be2e01;}.cls-150{fill:#f88c6b;}.cls-151{fill:#8e2201;}.cls-152{fill:#962401;}.cls-153{fill:#972401;}.cls-154{fill:#e0714f;}.cls-155{fill:#de6d4a;}.cls-156{fill:#dd6946;}.cls-157{fill:#fffaf9;}.cls-158{fill:#e5d9d5;}.cls-159{fill:#efddd7;}.cls-160{fill:#a52802;}.cls-161{fill:#df3501;}.cls-162{fill:#ffebe5;}.cls-163{fill:#fff4f1;}.cls-164{fill:#a62a04;}.cls-165{fill:#ae2a01;}.cls-166{fill:#db6e4d;}.cls-167{fill:#a32700;}.cls-168{fill:#f3a78f;}.cls-169{fill:#ee9e84;}.cls-170{fill:#9d2600;}.cls-171{fill:#c72f00;}.cls-172{fill:#a52700;}.cls-173{fill:#ab2900;}.cls-174{fill:#ffe6de;}.cls-175{fill:#2d2d2d;}.cls-176{fill:#d23201;}.cls-177{fill:#ffb59e;}.cls-178{fill:#ca532f;}.cls-179{fill:#d66340;}.cls-180{fill:#bc2d01;}.cls-181{fill:#ca3000;}.cls-182{fill:#c32f01;}.cls-183{fill:#ff9473;}.cls-184{fill:#fca88e;}.cls-185{fill:#c73001;}.cls-186{fill:#ffddd2;}.cls-187{fill:#ffd4c7;}.cls-188{fill:#ffbda8;}.cls-189{fill:#ffc6b5;}.cls-190{fill:#ffcebe;}.cls-191{fill:#e2d1cb;}.cls-192{fill:#ffd7ca;}.cls-193{fill:#ab2901;}.cls-194{fill:#da7151;}.cls-195{fill:#ffa285;}.cls-196{fill:#d55229;}.cls-197{fill:#ff997a;}.cls-198{fill:#ff9d7f;}.cls-199{fill:#ffeee9;}.cls-200{fill:#c02d00;}.cls-201{fill:#ffd8cc;}.cls-202{fill:#ffe1d8;}.cls-203{fill:#ffc0ad;}.cls-204{fill:#ffb9a4;}.cls-205{fill:#de5930;}.cls-206{fill:#ff9e80;}.cls-207{fill:#ffccbc;}</style></defs><title>soccer</title><path class="cls-1" d="M341.8,431c-.23,1.63,1,2.54,1.86,3.59,6.94,8.7,13.38,17.77,20,26.72A146.37,146.37,0,0,1,379,486.8c2.95,6.34,7.14,11.92,11.18,17.59,8.38,11.74,16.31,23.77,23.68,36.16a111.63,111.63,0,0,1,6.38,11.79c.23.52-.08.8-.46,1-2.31.58-3.22,2.81-4.85,4.2-3.23,2.73-7.6,3.81-10.33,7.23-.49.42-.61,1.5-1.69.38-4.43-4.57-9.07-9-13.49-13.54-5.1-5.3-10.22-10.59-15-16.17-7-8.14-14.28-16-20.22-25a92.3,92.3,0,0,1-8.82-18.19C343,486,340.19,480,335.62,475c-2.68-2.94-5.53-5.72-8.32-8.56a61.25,61.25,0,0,1-6.39-7.08,4.77,4.77,0,0,1-1.3-2.62c.06-2.61,2.64-3.37,3.8-5.17,1.5-2,3.26-3.73,4.7-5.74.61-.69,1.3-1.31,1.94-2,.46-.46.91-.91,1.36-1.38.73-.74,1.49-1.45,2.15-2.25a26.87,26.87,0,0,1,1.94-2.46c1.18-1.07,1.91-2.51,3-3.64C339.91,433.38,339.92,431.19,341.8,431Z"/><path class="cls-2" d="M328.62,593c4.21-.2,8.21,1.26,12.4,1.54,6.84.45,13.65,1.42,20.5,1.62,5.16.15,10.26,1,15.43,1.09,8.08.19,16.15.13,24.22.15,5.58,0,11.16-.16,16.74-.22a5.25,5.25,0,0,0,2.86-.63c2.16,2,3.1,4.89,4.92,7.17.54.67.21,1.55-1,1.32-3.29-2.05-6.91-1.65-10.47-1.31a65.05,65.05,0,0,1-7.76.39c-15.76-.34-31.49.77-47.25.67-20-.13-40,1.63-60,1.87-15.64.18-31.28.7-46.92,1.16-10.84.32-21.7.73-32.53,1.53-5.45.4-10.91-.09-16.37-.15-7.23-.38-14.43-1.06-21.61-2-8-1.05-16-1.75-23.94-2.85a144.43,144.43,0,0,1-16.37-3c-.95-.24-2-.31-2.66-1.16.67-1.44,2-1.47,3.32-1.52,6.17-.24,12.32-.81,18.51-.68,18.94.42,37.84-1.22,56.78-1.33,14.63-.09,29.29-.58,43.91-1.16,16-.63,32.07-.92,48.11-1.23,6.05-.12,12.14-.16,18.2-.59a9,9,0,0,1,2,.27C329.3,593.72,328.4,594,328.62,593Z"/><path class="cls-1" d="M217.83,249.62a3.49,3.49,0,0,0-2.91-1.11,63.59,63.59,0,0,0-14.14,2c-4.64,1.09-9.18,2.61-13.95,3-5.63.51-11.24,1.27-17,.53-3.73-.48-7.54-.38-11.31-.7a85.7,85.7,0,0,0-8.93-.67c-7.67.11-10.82,2.46-13.26,8.8a27.6,27.6,0,0,1-2.15,3.92,6.14,6.14,0,0,1-3.24,2.52c-1.71.67-2.33.24-2.44-1.61a20.75,20.75,0,0,0-1.18-6.8,7.74,7.74,0,0,0-3.43,1.72c-2,1.4-4.07,2.86-6.15,4.23s-4.05,1-5.68-1.17c-2-2.64-2-7.07,0-10.46a17.1,17.1,0,0,1,8.27-7c6.94-3,14-5.71,21-8.51s13.7-5.84,20.76-8.14c8-2.61,16.24-4.61,24.9-3.42,2.93.41,5.94.46,8.91.78,4.73.51,9.31-.59,13.94-1.17.76-.1.89-.69,1-1.28.91.07,1.61.73,2.48.92a9.67,9.67,0,0,1,4.28,2.41,12.73,12.73,0,0,1,2,2.85,53.94,53.94,0,0,1,4.83,15.22,4,4,0,0,1-.25,1.88,2.35,2.35,0,0,1-.56.77l-.39.28a3.14,3.14,0,0,1-.89.31A14.14,14.14,0,0,1,217.83,249.62Z"/><path class="cls-1" d="M366.93,286.77A142.11,142.11,0,0,1,377.09,304c2.1,4.45,5.74,7.25,10.36,8.87,7.88,2.76,14.78,7.24,21.46,12.13,4.57,3.35,9.21,6.61,13.78,10a4.62,4.62,0,0,0,2.75,1,27,27,0,0,0,6-.33c5.75-1.14,11.13.2,16.13,2.86a26,26,0,0,1,9.4,8.58,9.47,9.47,0,0,1,.95,1.5,1.84,1.84,0,0,1-.17,2.22,1.75,1.75,0,0,1-2.19.31,14.57,14.57,0,0,1-2.39-1.23c-3-2.17-6.58-2.72-10.14-3.13a5.73,5.73,0,0,0-4.1.76c.1,1.34,1.22,1.95,2,2.78.57.6,1.16,1.19.62,2.07s-1.28.78-2.12.55c-3.83-1.07-7.7-2-11.5-3.18-6.28-1.93-12.56-3.88-18.75-6.07a208.38,208.38,0,0,1-25.32-10.45,75.53,75.53,0,0,1-23.27-17.95,32.44,32.44,0,0,1-5.72-8.68c-.21-.3-.63-.41-.74-.8a1.85,1.85,0,0,1,.07-.74c.27-.7.6-1.36.92-2a14.13,14.13,0,0,1,.93-1.55c.13-.2.27-.39.41-.58a8.39,8.39,0,0,0,.68-1.25,11.71,11.71,0,0,1,.71-1.36c2.72-4.15,4.76-8.73,7.77-12.7C366.76,285.18,366.44,286.4,366.93,286.77Z"/><path class="cls-3" d="M203.37,609.23c5.24-.77,10.56-.26,15.78-.77,4.28-.42,8.57,0,12.79-.55,4.68-.61,9.38,0,14-.61,7.27-.9,14.54,0,21.78-.56,8.85-.65,17.74,0,26.55-.68,7.78-.56,15.56.14,23.27-.57,6.61-.6,13.31,0,19.85-1.59a11.34,11.34,0,0,1,4.46,0,46.12,46.12,0,0,0,14.83,0,35.72,35.72,0,0,1,5.38-.06c5.09,0,10.19.25,15.26-.06,11.25-.68,22.5-.35,33.74-.65,2.95-.08,5.93-.41,8.91-.52,1.88-.06,3.56.16,4.78,1.8.21.28.68.36,1,.54a.66.66,0,0,1,.58,0,3.39,3.39,0,0,1,.5.34l.25.18a7.82,7.82,0,0,0,.81.43l.59.24c.32.1.64.18,1,.26s.45.11.67.18a6.08,6.08,0,0,0,2.08.22h1.07a7.16,7.16,0,0,0,1.73-.11l.64-.18c.3-.11.6-.23.88-.36s.37-.19.55-.28l.52-.28.48-.32.4-.4s.18-.23.17-.24c.09-.18.19-.35.29-.53a3.16,3.16,0,0,1,.33-.56,4.6,4.6,0,0,1,.45-.54c.08-.1.17-.18.25-.28a7.67,7.67,0,0,1,.58-.56l.35-.27a3.6,3.6,0,0,1,.84-.4,5.76,5.76,0,0,1,1-.22c10.71.18,21.38-.82,32.08-.68,1.44,0,3.26-.55,4,1.46a101.5,101.5,0,0,1-19.18,4.2c-5.71.71-11.42,1.43-17.14,2-6.13.62-12.28,1.08-18.42,1.62s-12.24,1.21-18.38,1.62c-8.33.55-16.68.9-25,1.38-12.52.72-25.06.9-37.59,1.27-16.35.49-32.68.37-49,.18-7.65-.09-15.33-.08-23-.48-8.84-.46-17.69-.77-26.53-1.22-6.55-.33-13.13-.49-19.64-1.25-7-.83-14-1.2-21.06-1.82A1.55,1.55,0,0,1,203.37,609.23Z"/><path class="cls-4" d="M328.62,593c.93,1.24,2.51.09,3.8,1.11-3.69-.08-7.06.61-10.5.77-13.43.61-26.87.25-40.29.65-4.65.14-9.36,0-14,.55-7.46.9-14.93,0-22.35.59-7.76.64-15.54,0-23.24.65-6.87.6-13.71.28-20.56.45-6.46.16-12.93.33-19.35.78-10,.68-19.89.13-29.83.44-4,.12-7.89.88-11.88.66a4.85,4.85,0,0,0-1.67.56c-7-2-12.8-5.79-16.88-11.94a11.77,11.77,0,0,1-1.85-4.31c4.1.53,8,.93,11.94,1.58,10.28,1.7,20.64,2.7,31,3.48,5.14.38,10.27.83,15.41,1.27a5.4,5.4,0,0,1,1.12.36c4,.59,8.05.1,12.07.28,1.17.06,2.37-.28,3.49.28h0c3.33.72,6.69.3,10,.28,5,0,10.08.39,15.11-.23a.33.33,0,0,1,.42-.1c.44-.22,1-.15,1.37-.5a.26.26,0,0,1,.35-.1c.57-.09.5-.76.9-1,1.7-1.75,1.09-4,1.28-6.07.09,0,.26,0,.28,0,1.38,3.49,4.3,3.17,7.3,3.24,12.36.31,24.69-.73,37-.75,4.06,0,8.14-.53,12.22-.57.65,0,1.47.19,1.71-.77,3.43.65,6.95.91,10.18,2.39.92.66,2.09-.11,3,.55h0c.89.75,2.1-.08,3,.6h0c1,.75,2.17,0,3.15.57a.37.37,0,0,1,.45.08c1,.64,2.15-.06,3.12.52a.4.4,0,0,1,.48.09c.92.64,2.09-.09,3,.53l0,0c.51.64,1.36.15,1.93.59a.37.37,0,0,1,.46.09c1.12.7,2.48-.16,3.6.55h0c1.15.78,2.55-.08,3.72.57a.38.38,0,0,1,.48.08c1.17.66,2.54-.1,3.71.51a.4.4,0,0,1,.48.09c1.53.73,3.26-.21,4.78.55Z"/><path class="cls-1" d="M314.78,474c-1.37,5.36-3.4,10.35-7.41,14.38a11,11,0,0,1-5.14,2.87,57,57,0,0,1-12.67,1.85c-7.36.27-14.74.51-22.1.84-7,.33-14.13.44-21,2.19a3,3,0,0,1-.89,0,.71.71,0,0,1-.39-.74c0-.46.13-.91.21-1.36.34-2.26-.5-4.29-1.23-6.33a31.37,31.37,0,0,1-1.89-10.75c0-1.11-.26-2.47,1.24-3,.91.63.73,1.49.57,2.22,2.9-1,6-1.71,9.06-2.78,4.43-1.08,8.89-2.06,13.24-3.46,3.68-.94,7.44-1.61,11-3,4.52-1.25,9-2.58,13.82-1.92a8.49,8.49,0,0,1,3.59,1.3c5.27,3.83,11.48,5.06,17.63,6.44A3.31,3.31,0,0,1,314.78,474Z"/><path class="cls-1" d="M366.91,192.93c1.33,4.19.62,8.23-1.06,12.14-1.13,2.63-2.53,5.16-3.71,7.77a14,14,0,0,0-1.3,6c0,3.17-.93,5.72-4.24,7.09a12.32,12.32,0,0,0-4.77,4c-1.05,1.34-2.32,2.41-3.43,3.67-.42.88-.78,1.82-1.81,2.21a13,13,0,0,1-4.08,1.33,4.57,4.57,0,0,1-1.28-.14c-1.47-.43-3-.66-4.24-1.69-.7-.59-1.31-1.29-2-1.93-.19-.17-.37-.35-.55-.54l-.26-.27c-.19-.18-.36-.37-.53-.56l-.24-.29a15.08,15.08,0,0,0-1.95-2.27,22.19,22.19,0,0,1-1.14-2.29l-.39-.6c-.14-.19-.27-.39-.4-.6s-.25-.41-.36-.62-.41-.62-.62-.92c-.6-.85-1-1.79-1.62-2.64-.76-1.38-1.45-2.79-2.24-4.15a7.81,7.81,0,0,1-.3-.75,12,12,0,0,0-.6-1.5,11.18,11.18,0,0,1-1.26-4.87,4.37,4.37,0,0,1,1.19-2.68,8.11,8.11,0,0,1,.55-.62c.18-.21.37-.42.56-.62,1.64-2,3.53-3.81,2.23-6.85-.41-1,.22-2.14.47-3.21a9.2,9.2,0,0,1,3.69-5,1.79,1.79,0,0,1,1.66-.13,5,5,0,0,1,1.59,1.39c1.23,1.28,0,3,.61,4.45,1.43-.47,1.4-1.87,2.1-2.71a9.87,9.87,0,0,1,6.16-5.21,12.55,12.55,0,0,1,4.19-.11c.9.17,1.79.43,2.69.64,1.41.44,2.74,1.28,4.32.93a19.54,19.54,0,0,1,6.1-.39,17.74,17.74,0,0,1,2.67.78C364.48,191.84,366,191.84,366.91,192.93Z"/><path class="cls-5" d="M225.66,503.82a5.31,5.31,0,0,0,1.19,0c1.73-.34,1.94.53,1.86,2A42,42,0,0,1,226,517.44c-2.84,8.06-5.84,16.07-8.8,24.09a18.52,18.52,0,0,1-1.16,2.42c-2.18,3.93-6.4,4.3-9.23.78a16.14,16.14,0,0,1-3.34-9.1,58.44,58.44,0,0,1,.88-14,114.59,114.59,0,0,0,1.47-12.14c.29-5.19-1.23-10-2.79-14.85a21.47,21.47,0,0,1-1-6.46,10.4,10.4,0,0,1,6.34-10,11.13,11.13,0,0,1,11.88.94c.56.4,1.09.84,1.71,1.33-.55,1.2-1.88,1.46-2.5,2.42-2.25,4.23-3.43,8.62-2.05,13.42a24.78,24.78,0,0,0,1.18,3.36c1,2.36,2.45,4.11,5.42,3.58A1.71,1.71,0,0,1,225.66,503.82Z"/><path class="cls-5" d="M433.3,607.36h-1c-.73-.58-1.72,0-2.46-.53a1.07,1.07,0,0,0-.53-.07c-.38-.3-.93-.21-1.29-.56h0c-.31-.37-.88-.25-1.19-.63l0,0a7.34,7.34,0,0,0-.6-.51,1.06,1.06,0,0,0-.45-.16,5.75,5.75,0,0,0-1.8-2.34c-1.69-1.67-2.27-3.92-3.2-6a53.49,53.49,0,0,1-1.08-8.46,11.51,11.51,0,0,1,1.63-6.48c3.47-3.34,6.16-7.47,10.25-10.19a13,13,0,0,1,6.09-1.18c3.11.16,6.16-.49,9.21-.88,4.48-.56,7.88.77,10,4.32a10.24,10.24,0,0,1-.16,11.54c-1.77,2.73-4.41,4.55-7,6.46-1.19.89-2.5,1.64-3.19,3a29,29,0,0,1-5.42,7.23h0c-.17.22-.39.41-.57.63h0a3.47,3.47,0,0,0-.55.6l0,0a1.69,1.69,0,0,0-.51.52.62.62,0,0,0-.15.45,1.48,1.48,0,0,1-.6.75l0,0a2.19,2.19,0,0,1-.63.62l0,0c-.29.43-.87.31-1.19.65h0c-.32.36-.88.26-1.22.6h0C435.06,607.44,434,606.76,433.3,607.36Z"/><path class="cls-6" d="M301.68,213.81a72.75,72.75,0,0,1,7.78,1.22c-1.89,3.5-1.92,7.3-1.84,11.13a55.11,55.11,0,0,0-.18,6.55q0,68.4,0,136.8c0,1.87.3,3.8-.6,5.58-1.8,1.43-3.35.56-4.88-.52-.85-1.58-.63-3.3-.63-5q0-76.43,0-152.86A5.84,5.84,0,0,1,301.68,213.81Z"/><path class="cls-7" d="M225.66,503.82c-5.58.69-6.27.28-8.32-5.09a17.85,17.85,0,0,1-.14-12.83,5.14,5.14,0,0,1,2.29-3c2.32-.36,3.93-2.14,6.07-3a35.5,35.5,0,0,0,13.32-8.75c1.29-1.38,2.58-1.76,4.21-.77,1.1,1,1.56,2.15.45,3.47-1.14,4.5-.1,8.81,1.22,13.07.46,1.51,1,3,1.42,4.52a5.16,5.16,0,0,1-.27,3.47,1.87,1.87,0,0,0-.45.77.49.49,0,0,1,.07.34,27.56,27.56,0,0,1-5.24,2.69c-3,1.17-6.17,2.11-9,3.81a5.63,5.63,0,0,1-3.12.76C227.33,503.31,226.39,503.06,225.66,503.82Z"/><path class="cls-8" d="M288.5,211.42a6.38,6.38,0,0,1,3.6.56c1.33,1.64,1,3.61,1,5.46q0,61.08,0,122.16,0,14.34,0,28.68a26.55,26.55,0,0,1-.18,4.46c-.5,2.34-2.28,2.2-4,1.88s-1.51-1.78-1.5-3.1c.1-8.54-.17-17.1,0-25.64.16-10.24.08-20.49.08-30.73,0-10.73-.06-21.48-.06-32.21,0-10.33,0-20.68.09-31,.12-12.42-.14-24.85.1-37.27C287.59,213.53,287.14,212.19,288.5,211.42Z"/><path class="cls-9" d="M288.5,211.42c-.24,3.7-.27,7.4-.39,11.1-.2,6,.46,11.94-.09,17.93-.37,4,.14,8,.2,12.07.06,3.33-.31,6.67-.2,10,.11,3.72-.18,7.45.14,11.18.28,3.22-.25,6.47-.16,9.68.11,3.92-.07,7.85.18,11.77.2,3-.31,6.09-.18,9.09.18,4-.1,8,.19,12.07a80.87,80.87,0,0,1-.22,8.8c-.14,4.11.2,8.24.26,12.36,0,2.83-.31,5.69-.22,8.5.12,4-.08,8,.17,12.07a48.91,48.91,0,0,1-.21,8.2c-.23,2.23.51,4.5,0,6.78-.14.65.44,1.06,1.14,1.07,1,0,2,0,3,0a3.48,3.48,0,0,1,2.34-.75,25.19,25.19,0,0,1,3,0c.83.16,1.76.18,1.93,1.31a1.91,1.91,0,0,1-.82.61,20.46,20.46,0,0,1-4.06.3c-1.17,0-2.35-.09-3.52,0-1,0-2,0-3-.06a6.69,6.69,0,0,1-3.95-1.31,5.79,5.79,0,0,1-1.07-4.26,27,27,0,0,0,.42-6.83q0-73.56,0-147.11c0-1.76-.34-3.62,1-5.16A9.8,9.8,0,0,1,288.5,211.42Z"/><path class="cls-10" d="M284.31,210.82q0,77.06,0,154.11c0,1.92-.47,3.73-.64,5.6-1.71-.31-1.57-1.83-1.82-3-.76-3.45-1.67-6.87-2.37-10.34a7.21,7.21,0,0,1,0-2.66c.68-5.66.36-11.34.37-17,0-13.25.06-26.51,0-39.75q0-13.6,0-27.2c0-18.73-.16-37.46.1-56.2,0-1.41-.61-2.72-.39-4.13A11.85,11.85,0,0,1,284.31,210.82Z"/><path class="cls-11" d="M297.49,374.09l-3,0c-1.37-1.63-1-3.6-1-5.45q0-60.51,0-121c0-11.84.22-23.69-.19-35.53,1.27-.19,2.38.52,3.59.61a3,3,0,0,1,1.48,2.75c.11,1.19.08,2.38.08,3.58q0,74.67,0,149.33C298.44,370.28,298.89,372.35,297.49,374.09Z"/><path class="cls-12" d="M283.12,584.7l1.29.88a7.42,7.42,0,0,1-3.87.89c-8.43.13-16.88.29-25.27.76-9,.49-17.86.15-26.79.41-3.14.09-3.13,0-3.47-3.08a4.34,4.34,0,0,0-.44-1.06l-2-4.8c1-1.88,2.9-1.57,4.51-1.51,7.38.28,14.72-.57,22.08-.6a6.64,6.64,0,0,0,2.34-.42Z"/><path class="cls-7" d="M431.57,571.45c-2.66,2.51-4.49,5.79-7.44,8-.94.71-1.88,1.44-2.81,2.16a72.47,72.47,0,0,1-9.74-7.79c-1.55-1.4-3.28-2.57-4.77-4a6.17,6.17,0,0,1-2.21-5c.45-2.17,2.11-3.27,3.89-4.11,3.41-1.62,6.55-3.53,8.73-6.72a2.07,2.07,0,0,1,2.32-.92,1.56,1.56,0,0,1,1.27,1.19c2.12,3.17,4.62,6.07,6.43,9.48C428.61,566.34,430.3,568.78,431.57,571.45Z"/><path class="cls-13" d="M279.54,210.28a3.41,3.41,0,0,1,1.52,3.33c-.67,3.27-.3,6.55-.3,9.81,0,3.57.29,7.18.18,10.7-.16,5.26-.12,10.52-.19,15.78-.1,7.13,0,14.26,0,21.39v63q0,8.61,0,17.22a6.21,6.21,0,0,1-.62,3.47c-1.94-.23-1.92-2-2.4-3.25-.71-1.9-1.53-3.82-1.25-6a14.55,14.55,0,0,0,.29-4.74q0-62.84,0-125.66c0-1.76-.34-3.62,1-5.15Z"/><path class="cls-14" d="M277.73,210.23q0,65.69,0,131.38a14.75,14.75,0,0,1-.61,5c-1.36,0-1.33-1.2-1.8-2-.77-2.73-2.34-5.3-1.74-8.33.64-2.87.17-5.77.17-8.64q0-55.93,0-111.85c0-1.87.7-4.11-1.64-5.32-.69-.26-1.49-.38-1.54-1.35C273.07,208.75,275.39,209.52,277.73,210.23Z"/><path class="cls-2" d="M441.13,602a20.12,20.12,0,0,1,5.42-7.23A64.85,64.85,0,0,0,456,593.6c4.92-1.13,10-1.64,14.88-2.82,3.28-.78,6.39-2.13,9.74-2.62,2.24.24,1.95,2.64,3.2,3.73a5.64,5.64,0,0,1,.4.67c.2.33.4.67.62,1a24.41,24.41,0,0,1,1.83,3c.19.85,1.14,1.52.66,2.54a25,25,0,0,1-8.42,2.91c-.51-.62-1.23-.56-1.92-.56-4.29,0-8.62-.4-12.86.09C456.43,602.38,448.78,601.77,441.13,602Z"/><path class="cls-15" d="M270.57,209.13a1.33,1.33,0,0,0,1.16.5c1,1.14,1,2.57,1,4q0,53.17,0,106.35a13.73,13.73,0,0,1-1,5.83c-1.48,1.35-1.62-.2-1.86-1-.8-2.55-1-5.23-1.73-7.81a120.26,120.26,0,0,1-.4-26.21c.39-4.79-.77-9.51-1-14.28a36.64,36.64,0,0,0,.5-5q0-28.38,0-56.75c0-1.91.16-3.91-2.38-4.46a2.09,2.09,0,0,1-.89-.69C266.09,208.72,268.34,209.05,270.57,209.13Z"/><path class="cls-16" d="M293.31,212.06a2.77,2.77,0,0,1,1.2,2.55,16.2,16.2,0,0,0,0,2.09q0,78.69,0,157.37h-2.39q0-81,0-162.08Z"/><path class="cls-17" d="M297.49,374.09q0-78.68,0-157.36c0-1.37.24-2.8-.58-4.06.65,0,1.31-.15,1.8.44,1.58.51,2,1.76,2.1,3.25s.05,2.79.05,4.18q0,73.05,0,146.09a58.85,58.85,0,0,0,.39,7.74c-.54,1-1.21.8-1.93.23C298.81,374,298.13,374.12,297.49,374.09Z"/><path class="cls-18" d="M301.08,374.6c-.68-.59-1.34-1.16-1.22-2.23a21.14,21.14,0,0,0,0-2.39q0-76.39,0-152.79c0-1.49.15-3-1.19-4.08,1.06-.08,2,.54,3,.7.8,1.27.59,2.69.59,4.07V370.45c0,1.39,0,2.78,0,4.18A.76.76,0,0,1,301.08,374.6Z"/><path class="cls-1" d="M307.63,225.18c-2-3.86-.87-7.15,1.83-10.15,1.83-1.2,3-3.06,4.66-4.46a19,19,0,0,1,3.65-2.93,2.72,2.72,0,0,0,1.45-2.64c1,0,1.06.82,1.1,1.44a17.46,17.46,0,0,0,1.71,5.37,59.39,59.39,0,0,1,.25,7.78c0,1.18.07,2.37,0,3.56,0,1,0,1.93,0,2.89-.17,1.81.51,3.47.91,5.18.31,2,1.79,3.28,3.15,4.59.28,1.37-.85,2-1.53,2.84a15.65,15.65,0,0,1-2.25,2,5.68,5.68,0,0,1-5.85,0,15,15,0,0,1-2.2-1.94c-.87-.88-1.5-1.95-2.3-2.89a6.51,6.51,0,0,1-.72-1,5.87,5.87,0,0,1-.38-.75C309.79,231.11,307.61,228.58,307.63,225.18Z"/><path class="cls-19" d="M341.8,431c-1,1.25-1.43,2.89-3,3.67-2.87-3.18-3.92-7.32-5.64-11.07q-7.5-16.41-15.29-32.67c-1-2.15-1.89-4.37-2.91-6.53-.48-1-1.22-2.28.6-2.91,1.18,0,1.7.84,2.3,1.62a9.79,9.79,0,0,1,.59,1c.14.2.26.41.4.61s.31.37.48.55l.26.26c.18.17.35.36.52.55l.26.3c1.39,2.11,3,4.09,4.41,6.17,1.26,1.92,2.76,3.66,4.06,5.55.17.21.33.43.48.65a7.66,7.66,0,0,1,.45.66c1,1.55,2.16,3,3.31,4.44.57.89,1.12,1.79,1.73,2.65.17.19.32.39.48.58l.24.29a6.14,6.14,0,0,1,.45.59c.14.2.27.41.4.62l.42.6.24.29c.87.81,1.1,2,1.68,2.94.15,2.06,1.93,3.15,2.86,4.74s2.11,2.83,3.09,4.29c1.16,1.73,1.66,3.67.38,5.48C344.09,428.31,343.32,430,341.8,431Z"/><path class="cls-20" d="M550.77,609.6l-1.71.24a7,7,0,0,1-1.29.36l-1.82.19c-.69.64-1.75-.12-2.4.64l0,0c-.73.53-1.66,0-2.41.45a210.38,210.38,0,0,1-34.86,1.09,107.89,107.89,0,0,1-23.84-3.41,8.25,8.25,0,0,1-3.94-2c-.8-.81-.85-1.47.17-2.16a14.7,14.7,0,0,1,5.72-2.4c1.47-.25,2.92-.62,4.37-.91.81-.17.82-.74.76-1.36l.33-.3a1.64,1.64,0,0,1,.87.15,49.6,49.6,0,0,0,19.65,9.13,32,32,0,0,0,14.22-2.18c1-.37,2-1,3.12-.79,6.74,1.08,13.53.61,20.3.78,1.68,0,3.73-.39,4.45,2l-.27.11h-.29C551.6,609.49,551.16,609.47,550.77,609.6Z"/><path class="cls-21" d="M251.53,576.17c-.27,1.3-1.25,1.3-2.29,1.32-7.73.16-15.44.93-23.18.59a5.92,5.92,0,0,0-3.46.62c-2.1-3-5.07-5-7.92-7.07A23.4,23.4,0,0,1,210.1,567a6.74,6.74,0,0,1-1.52-6.14c1.94,0,3.41,1.13,5,1.76q6.52,2.49,13.08,4.9c4.64,1.71,9.29,3.38,13.94,5.06.29.54.9.42,1.34.67a.34.34,0,0,1,.44.09c.5.51,1.3,0,1.8.55h0c.53.58,1.36.14,1.94.56a.37.37,0,0,1,.46.09c.5.5,1.3.05,1.8.55h0c.48.58,1.31.09,1.81.59h0c.34.39.87.34,1.3.52Z"/><path class="cls-22" d="M312.45,473.37A54.17,54.17,0,0,1,298,469.13c-2.24-1-4-2.93-6.49-3.51a6.26,6.26,0,0,1-3.85-2.35c-1.76-2-3.46-4-5.2-6-.76-.88-1.65-1.75-1.27-3.12l.05,0c.42-.21,1-.11,1.24-.7.6-1.71,1.21-3.43,1.82-5.14.83-.53,1.61-.08,2.41.09a29.1,29.1,0,0,1,4.09,1.69,12.82,12.82,0,0,0,1.77.71l1.47.5a4,4,0,0,1,.72.35,3.43,3.43,0,0,1,.84.9c1.62,3,4.18,5.31,6.44,7.79,2.8,3.08,5.4,6.36,8.44,9.24C311.5,470.58,312.72,471.63,312.45,473.37Z"/><path class="cls-23" d="M263.93,209.58l.61.09c1.07,1.12,1,2.56,1,3.93q0,26.35,0,52.7c0,1.38.05,2.8-.88,4-1.68,1.42-2.84.2-4.05-.79a4.9,4.9,0,0,1-.6-1,12.48,12.48,0,0,1-.57-5q0-24.19,0-48.38c0-1.66-.31-3.42.94-4.85a.73.73,0,0,1,.56-.07c.92-.68,2.14.17,3-.6Z"/><path class="cls-24" d="M272.22,430.9l-2.5-4.08c2.17-.59,2.69,1.57,4,2.4,1,1.24,2.44,2,3.61,3.06.2.16.39.33.59.51l.3.24c.23.14.44.3.66.45,1,.7,2.06,1.3,3,2.08a8.84,8.84,0,0,0,3.88,2.25c-8.26-20-16.79-39.16-25.23-59.16-.87,2.69-.55,4.82-.56,6.93-.06,1.47.4,3.06-.91,4.26-.57-4.5-1.29-9,.62-13.4.55-.47.45-1.5,1.4-1.63,2.59-.29,3.49,1.64,4.23,3.46,3.45,8.47,7.14,16.84,10.73,25.25,5,11.7,9.94,23.42,15,35.07.08.18.18.36.26.54.48,1.1,1.15,2.27.37,3.39s-2,.14-3,.19c-1.92-.25-3.33-1.47-4.8-2.56l-.62-.5-.66-.43a30.27,30.27,0,0,1-3.55-2.4,38,38,0,0,1-4.17-3.64C274.07,432.33,272.67,432.17,272.22,430.9Z"/><path class="cls-25" d="M260.36,210.26q0,27.41,0,54.81a6.77,6.77,0,0,0,.59,3.76c-1.1.77-2.17.16-3.25-.09a3.73,3.73,0,0,1-1.61-1.22c-1.15-2.12-.9-4.43-.89-6.7q.14-19.68,0-39.36c0-3.37.4-6.76-.32-10.11A13.61,13.61,0,0,1,260.36,210.26Z"/><path class="cls-26" d="M254.88,211.35c1.2.15,1.3,1,1.3,2,0,4.06.05,8.13-.05,12.2,0,1.18,0,2.35,0,3.53.05,10.32.1,20.65,0,31,0,1.88.2,3.75.07,5.62a4.06,4.06,0,0,0,.6,2c-1.15,1-2.33.26-3.51.09a3,3,0,0,1-1.39-.92,6.55,6.55,0,0,1-.85-4q0-23.41,0-46.82c0-1.39-.07-2.81,1-4A4.26,4.26,0,0,1,254.88,211.35Z"/><path class="cls-27" d="M253.82,350.79c-1.27-4.2-1.69-8.56-2.4-12.86a165.48,165.48,0,0,1-1.78-33.58c.09-2.08.38-4.15.58-6.22.73-2-.14-4.16.51-6.18a8.24,8.24,0,0,1,.09-3.39c.5-.79,1.06-.85,1.6-.07a5.45,5.45,0,0,1,.93,3.11c0,4.47.81,8.9.75,13.37-.09,6.16,1.24,12.21,1.54,18.34a27.12,27.12,0,0,1,.27,6.23c-.33,6.94.72,13.84.58,20.77a8.14,8.14,0,0,1-.39,3.22c-.41.92-1,1.28-1.68.24a.36.36,0,0,1-.09-.47C253.81,352.53,254.4,351.54,253.82,350.79Z"/><path class="cls-28" d="M281.32,435.72l-3-1.8c-.18-.22-.4-.4-.6-.6h0c-.19-.21-.41-.39-.6-.59-1.22-1-2.85-1.45-3.59-3-.09-3.33-2-6-3.27-8.9-2.88-6.68-5.91-13.29-8.6-20-.59-1.48-.89-.61-1.4-.14a6.08,6.08,0,0,1-.55-3.66c-.6-1.19.14-2.56-.51-3.74a8.17,8.17,0,0,1-.13-3.41c0-1.64.09-3.29.13-4.94,1.67-.19,2.22,1.09,2.74,2.24,2.9,6.44,5.72,12.92,8.29,19.51s5.54,12.77,8.48,19.09c1,2.17,1.8,4.42,2.73,6.62C281.91,433.44,282.32,434.64,281.32,435.72Z"/><path class="cls-29" d="M244.71,264.68a4.76,4.76,0,0,1-2.91-.6c-1-1.16-1-2.58-1-4q0-20.56,0-41.14c0-1.39-.08-2.82,1-4a3.57,3.57,0,0,1,2.39-.62c1.32-.65,2.08-.1,2.48,1.17a10.84,10.84,0,0,1,.29,3.26q0,20.73,0,41.47a10.87,10.87,0,0,1-.23,3C246.45,264.23,246.13,265.26,244.71,264.68Z"/><path class="cls-30" d="M353.18,241.3c1.53,1.9,2.13,4.25,2.82,6.49,1.85,6,3,12.12,4.82,18.11a48.73,48.73,0,0,0,3.11,7.71,1,1,0,0,1-.84.3c-1.56-.49-1.79-2-2.33-3.19a85.46,85.46,0,0,1-2.74-8.67c-1-4.37-2.12-8.71-3.22-12.87-.36,11,.17,22.2-.27,33.38,0,1.3.26,2.58.18,3.88s.18,2.64-1.18,3.47a9.81,9.81,0,0,1-4.13-6.28c-.34-13.68-.09-27.37-.14-41a7.93,7.93,0,0,1,.08-1.19c.16-1,.29-2.13,1.43-2.38s1.21,1.08,1.8,1.65C352.78,240.86,353,241.11,353.18,241.3Z"/><path class="cls-31" d="M241.81,215q0,24.54,0,49.07a14.25,14.25,0,0,1-4.9-.56,11.72,11.72,0,0,1-.28-2.37c.06-13.66,0-27.32,0-41,0-1.39-.07-2.82,1-4A10.59,10.59,0,0,1,241.81,215Z"/><path class="cls-32" d="M353.18,241.3c-1.37.09-1.17-1.6-2.35-2-1,.75-.64,1.91-.65,2.91,0,7.27,0,14.54,0,21.82v20.32a.69.69,0,0,1-.87,0c-1.38-2.28-3.84-3.94-4.06-6.91-.4-12.52-.13-25-.18-37.55,0-1.66-.23-3.46,1.52-4.56l1.82-1.73c0,1,.74,1.59,1.37,2.21A15.66,15.66,0,0,1,353.18,241.3Z"/><path class="cls-33" d="M312.45,473.37a29.19,29.19,0,0,0-4.35-5.25c-4-4.27-7.87-8.63-11.78-13a4.57,4.57,0,0,1-1.23-2.66c1-.82,2-.17,3,.08a32.82,32.82,0,0,0,6.15,2.4c4.08,1.29,7.9,3.55,12.37,3.47a41.61,41.61,0,0,1-1.17,13.88,16.69,16.69,0,0,1-.66,1.65Z"/><path class="cls-34" d="M230.42,261.1c-1.09-.09-1.36-1.06-1.9-1.75-2-2-2.4-4.78-3.34-7.29-.17-.56-.34-1.11-.53-1.67a4.11,4.11,0,0,1-.22-.92,12.31,12.31,0,0,1,.1-2c.41-7.9.06-15.81.19-23.71,0-1.56-.25-3.2.92-4.53a7.54,7.54,0,0,1,3.56-.66c2.28-.4,2,1.44,2.08,2.62.16,4.66.29,9.33.22,14-.09,6.25-.16,12.5,0,18.75C231.57,256.34,231.92,258.88,230.42,261.1Z"/><path class="cls-35" d="M254.42,353.77c.44.08,1.14.45,1.11-.35-.1-3.94.5-7.91-.34-11.82a14,14,0,0,1-.21-3c0-5.13,0-10.26,0-15.39a189.28,189.28,0,0,1-.08-22,1.65,1.65,0,0,1,.84-1.49c1.47.58,1.24,1.93,1.25,3.06.09,8.47,1.73,16.82,1.83,25.29a13,13,0,0,0,.43,2c.17,12.93,1.06,25.85.83,38.78,0,1.18,0,2.91-2.05,1.54l-.13-1c-.36-.61,0-1.41-.5-2a.33.33,0,0,1-.08-.44c-.52-.78.12-1.82-.57-2.56a.22.22,0,0,1-.05-.35c-.33-.64,0-1.43-.48-2A38.78,38.78,0,0,1,254.42,353.77Z"/><path class="cls-7" d="M358.55,261.65c1.42,3.38,1.92,7.07,3.54,10.39a2.72,2.72,0,0,0,1.24,1.57c1,1.29,1.38,2.92,2.4,4.19h0c.63,1.33,2,2.43,1.2,4.18v.59c.63,1.42-.48,2.24-1.13,3.21a129.68,129.68,0,0,1-7.77,13.1c-.67.06-1-.37-1.22-.89a8.7,8.7,0,0,1-.2-3.33c.74-4.66.3-9.35.37-14,.08-5.18-.05-10.37.07-15.55C357.08,263.83,356.61,262.16,358.55,261.65Z"/><path class="cls-36" d="M343,302.91c.67,6.29,1.77,12.6,1.09,18.89-.72,6.65-.26,13.28-.5,19.91a74.37,74.37,0,0,0,.81,10,3.45,3.45,0,0,1-.2,1.44c-.66,7.23-.07,14.49-.28,21.73-.05,1.57.25,3.2-.79,4.61a1.54,1.54,0,0,1-2.46-.64,8.45,8.45,0,0,1-.36-3.53q0-34.45,0-68.91c0-1.64-.38-3.45,1.27-4.66C342.67,301.39,343,302,343,302.91Z"/><path class="cls-37" d="M546.53,566.71v.61c-.75,2.06-1.81,1.38-2.63.15-1.3-2-2.59-3.94-3.8-6a7.65,7.65,0,0,0-2.34-3l-.77-.33c-1.51-.54-3.15,0-4.66-.58a75.12,75.12,0,0,0-12.17-8.83c-2.16-1.2-4.53-1.95-6.6-3.31a2.05,2.05,0,0,1-.48-1.2,4.12,4.12,0,0,1,.09-.86,28.62,28.62,0,0,1,.71-2.87,1.51,1.51,0,0,1,.67-.53c6.76,1.21,12.44,4.53,17.47,9.09,1.7,1.54,2.93,3.74,5.94,3.12,1.14-.23,1.94,1.21,2.53,2.28a58.84,58.84,0,0,0,4.11,6.58C545.72,562.79,545.08,565.11,546.53,566.71Z"/><path class="cls-38" d="M258,370.52c.68.27,1.49.61,1.38-.61-.55-6,.26-11.94-.33-17.84-.74-7.42-.31-14.82-.51-22.23-.64-3.91-.13-7.84-.29-11.75-.06-1.78,0-3.55-.25-5.31-.11-1-.37-2.22,1-2.8,1.79,1.3,1.62,3.27,1.63,5.1,0,2.86,0,5.71,1,8.44.65,4.84.25,9.73.69,14.6,1,11.2.69,22.48,1.32,33.71a7.35,7.35,0,0,1-.08,1.48,3.76,3.76,0,0,1-.33,1c-.46,1-1.64.35-2.27,1l-1.27,1.14c.39-1-.33-1.61-.65-2.38C258.58,372.92,257.89,371.84,258,370.52Z"/><path class="cls-39" d="M237.62,216.21q0,22,0,44c0,1.13.45,2.43-.7,3.35A5.44,5.44,0,0,1,234,263c-1-1.27-.93-2.79-.93-4.28q0-18.51,0-37c0-1.47-.15-3,1-4.25l1.66-.68c.41-.24.92-.18,1.32-.44Z"/><path class="cls-40" d="M252,212v51.26c0,1.29-.15,2.59.6,3.76a1.91,1.91,0,0,1-1.64.39c-2.95-.55-2.9-2.82-2.9-5.06q0-19.82,0-39.63c0-3.18,0-6.35-.24-9.52A9.22,9.22,0,0,1,252,212Z"/><path class="cls-41" d="M552.49,609.09a4.56,4.56,0,0,0-3.58-1.11q-7.17,0-14.34,0a21.54,21.54,0,0,1-7.2-1.19c-.15-1.48,1.35-1.44,2-2.19.82-.65,1.69-1.24,2.52-1.87,1.12-.93,2.14-2,3.35-2.79a1.19,1.19,0,0,1,1.15.2c2.29,1.16,4.84.8,7.26,1.2,3,.51,6.05,1,9,1.77a8.78,8.78,0,0,1,2.94,1.36c2.23,1.55,2.15,2.44-.34,3.71A7.27,7.27,0,0,1,552.49,609.09Z"/><path class="cls-42" d="M247.8,213.2c.64.11,1.13.38,1.15,1.11s0,1.59,0,2.38v46.43c0,2.77,0,2.77,2.4,3.89-.87.85-1.77.55-2.69.09l-4-2.42c.61-.13,1.17-.34,1.23-1.07,0-.5.06-1,.06-1.49V217c0-.4,0-.8,0-1.19,0-1.27-.8-1.44-1.79-1.44C245.28,213.61,246.61,213.63,247.8,213.2Z"/><path class="cls-43" d="M234,217.41,234,263a4.1,4.1,0,0,1-3.57-1.85q0-11.4,0-22.8c0-5.72,0-11.43,0-17.15,0-1,.42-2.31-1.22-2.58A15.45,15.45,0,0,1,234,217.41Z"/><path class="cls-44" d="M248.7,267.1l2.69-.09h1.2l1.2,0c1.25.66,1.26,1.88,1.46,3.06,1,6.31.44,12.68.75,19a70.86,70.86,0,0,1,.42,7.43c-.07,1.17.11,2.41-.84,3.36.19,7.79-.57,15.55-.6,23.33a2,2,0,0,1-.59-1.9,36.61,36.61,0,0,0-1.13-10.88,3.66,3.66,0,0,1-.07-1.19c.43-5.66-.8-11.26-.59-16.92.05-1.33-.58-2.49-.74-3.77-.05-.38-.67-.16-1,0,0-3.56,0-7.12.28-10.68A15.93,15.93,0,0,0,248.7,267.1Z"/><path class="cls-45" d="M281.18,454.14a37.68,37.68,0,0,0,5.92,7.32c1.37,1.47,2.33,3.42,4.4,4.16a31.81,31.81,0,0,0-11.72,1.43,8.52,8.52,0,0,1-2.64.38c-1.06.67-1.63-.17-2.23-.78a49.14,49.14,0,0,1-4.07-4.7c-2-2.61-2-2.83.9-4.7A79,79,0,0,1,281.18,454.14Z"/><path class="cls-46" d="M316.61,458.45a6.39,6.39,0,0,1-5.47,0c-2.35-1-4.74-2-7.11-3,.79-1.21-.47-2.55.24-3.77a1.77,1.77,0,0,1,.78-.17,4.62,4.62,0,0,1,1.16.37c.26.1.5.22.74.34,1.93,1,3.88,1.95,5.85,2.85.72.27,1.34.88,2.47.67-.58-3.33-2.14-6.3-3.42-9.32-2.24-5.29-4.33-10.65-6.86-15.82-.63-1.29-1.35-2.71-.54-4.25,2.34-.69,3.09,1.75,4.74,2.43A5.46,5.46,0,0,1,310.7,431c2.62,6.95,5.56,13.77,8.68,20.51.89,1.91,1.34,3.8-.91,5.19C318.06,457.54,317.26,457.91,316.61,458.45Z"/><path class="cls-47" d="M321.38,211.52c-1.37-1.1-1.47-2.71-1.75-4.25-.14-.76.13-1.59-.41-2.27-.44-4.92-1-9.83-.66-14.79.41-5.4,1.79-10.48,5.2-14.84.86,2.09.38,4.27.35,6.4-.12,7.94.26,15.88-.09,23.81a4.74,4.74,0,0,0,.48,2.31l-1.42,2.25a2.37,2.37,0,0,1-1,1.49A.8.8,0,0,1,321.38,211.52Z"/><path class="cls-48" d="M324.5,207.89c-1.56-.62-1.31-2.06-1.23-3.21.29-4.7.06-9.39,0-14.08,0-4.21.18-8.41,0-12.63a11,11,0,0,1,.48-2.6c.4-1.77,1.88-2.8,2.91-4.13,1.37,1.13,1.05,2.72,1,4.15-.07,7,.18,14.05.36,21.08-.2,1.92-.73,3.84.44,5.68.41.64.05,1.31-.45,1.85-1,1.08-1.94,2.17-2.91,3.25a1.31,1.31,0,0,0-.68.63Z"/><path class="cls-49" d="M271.74,457.25a2.81,2.81,0,0,1-1.2,1.26,1,1,0,0,0-.32,1.51c2.27,2.5,3.93,5.59,6.92,7.41a3,3,0,0,1-2,1.12c-3,.47-5.76,1.78-8.8,1.86a1.23,1.23,0,0,1-1.4.21,18.32,18.32,0,0,1-6.18-6.64c-.24-.44,0-1,.37-1.37h0c.34-.32.87-.21,1.21-.54a.38.38,0,0,1,.4-.12c.46-.21,1-.12,1.39-.57.88-1,2.16-1.28,3.33-1.74C267.56,458.84,269.66,458.05,271.74,457.25Z"/><path class="cls-50" d="M225.64,219.22c0,8.15,0,16.3,0,24.45a15.75,15.75,0,0,1-.68,5c-1.33-.06-.49-1.35-1.06-1.85a92.38,92.38,0,0,0-4.87-15.65c.7-2.52.22-5.09.36-7.63.07-1.27-.15-2.59.84-3.64A21.32,21.32,0,0,1,225.64,219.22Z"/><path class="cls-51" d="M361,191c-2.27-.54-4.39.49-6.6.62-1.88-.24-2.71-1.34-2.72-3.21,0-7.86-.11-15.72.05-23.57,0-1.66.37-3.37,2.81-2.58a6.79,6.79,0,0,1,3.62,1.76c-.69,7.67-.43,15.36-.47,23,0,1.74,1,2.46,2.46,2.8C360.57,190.11,361,190.37,361,191Z"/><path class="cls-52" d="M260.27,400.65c.26-.93-.22-2,.42-2.77.3-.18.53-.17.61.05,2.38,6.61,5.56,12.89,8.19,19.4,1.15,2.85,2.5,5.62,3.86,8.37a11.82,11.82,0,0,1,1,3.4c.07.49-.4.59-.8.63-1.51-.66-2.11-2.51-3.82-2.91-4.71-6.38-6.88-13.79-8.7-21.35a11.53,11.53,0,0,1-.13-1.77c-.44-.84.11-1.88-.54-2.68l-.15-.16Z"/><path class="cls-53" d="M341.15,379c.56.43,1.23.31,1.86.41a6.64,6.64,0,0,1,.09,3.67c-1,8.74-1.88,17.5-3.6,26.14-.22,1.06-.49,2.12-.74,3.17-1.2-.66-1.54-2-2.36-3,.19-7.19,1.41-14.31,1.26-21.52a15.31,15.31,0,0,1,.46-3.82,6.2,6.2,0,0,0-.66-4.84.87.87,0,0,1,.52-.75,3.56,3.56,0,0,1,1.44-.28A2.15,2.15,0,0,1,341.15,379Z"/><path class="cls-54" d="M343.1,383.07,343,379.4l0-23.17c0-1.18-.18-2.44,1.21-3.07h0c.33.33.21.89.59,1.2v.6h0c.7.44.57,1.14.59,1.8-.16.13-.21.27-.15.4s.1.19.16.19v.6h0c1,1.93,1.21,4.13,1.67,6.2.8,3.62,1.24,7.32,1.77,11a3.61,3.61,0,0,1-3.35,4.31c-1.42.12-2,.61-1.87,2A1.8,1.8,0,0,1,343.1,383.07Z"/><path class="cls-55" d="M360.38,190.42c-4,.09-3.7.06-3.61-3.48.15-5.16-.34-10.31.28-15.48.18-1.48-.3-3.12-.31-4.71,0-1.17.17-2.19,1.37-2.72,1.69,1.32,3.76,2.2,4.85,4.21-1.51.18-1.14,1.3-1.14,2.25,0,5.34.05,10.68,0,16C361.8,187.94,362,189.55,360.38,190.42Z"/><path class="cls-56" d="M318.47,456.74c1.29-1.45,1.16-3,.37-4.62-1.08-2.2-2-4.48-3.16-6.66-2.25-4.15-3.18-8.9-5.44-13.08a4.27,4.27,0,0,1-.18-1.46c1.26-.84,1.95.22,2.71.86a18.77,18.77,0,0,0,2.9,2.37c1.06.79,2.29,1.42,2.74,2.81,1.19,3.75,2.75,7.35,4.25,11,.52,1.24,1.45,2.38,1.14,3.87l-4.19,4.91Z"/><path class="cls-57" d="M259.15,462.61a3,3,0,0,0,.7,2.2c1.56,1.65,3.36,3.08,4.59,5.05.41.66,1.23.53,1.92.55-4.2,1.91-8.72,2.62-13.18,3.59a16,16,0,0,1-3.72-4c-.51-.77-1.25-1.57-.49-2.62A59.6,59.6,0,0,1,259.15,462.61Z"/><path class="cls-58" d="M495.72,540.46c3.23-1.72,6.48-3.44,10.13-4.16,2.41-.57,4.8-.86,7.1.43.33.58,0,.94-.49,1.13-4.71,1.83-7.83,5.94-12.08,8.42-1.12.66-1.05,2.1-2.07,2.78-4.33-.67-5.24-1.34-5.81-4.26C492.51,542.57,494.11,541.51,495.72,540.46Z"/><path class="cls-59" d="M337.7,194.71a12.15,12.15,0,0,1-1.53,3.48,1.05,1.05,0,0,1-1.23.57,1.29,1.29,0,0,1-.89-1.07,4.08,4.08,0,0,1,.22-2.32,2.92,2.92,0,0,0-.26-2.53,2.88,2.88,0,0,1-.54-1.13c.3-5.64-.24-11.29.12-16.93.17-2.68-.35-5.33-.07-8a4.19,4.19,0,0,1,1.62-3.27,4,4,0,0,1,2.42-1.17,2.09,2.09,0,0,1,.38,1.12C337.8,173.85,338.24,184.28,337.7,194.71Z"/><path class="cls-60" d="M343.15,190a8,8,0,0,1-2.53,1.09c-2.45.31-2.07-1.66-2.12-2.92-.2-5-.07-10.08-.08-15.12,0-2.57,0-5.14,0-7.71a5.61,5.61,0,0,1,.9-3.67,4.63,4.63,0,0,1,3.65-1.13,2.13,2.13,0,0,1,.3.83C343.27,170.9,343.53,180.45,343.15,190Z"/><path class="cls-61" d="M367.61,173.06c6.15,4.95,5.17,12.05,3.13,16.61a2.29,2.29,0,0,1-1.42,1.41c-.3.35-.92.17-1.12.69h0c-1.75.72-2.5-.14-2.5-1.75,0-5-.1-9.92,0-14.88C365.81,174.07,365.55,172.46,367.61,173.06Z"/><path class="cls-62" d="M350.17,190.44a4.43,4.43,0,0,1-2.39-.57c-.3-.28-.74-.41-.91-.83-.4-6.7-.11-13.4-.17-20.09,0-1.78-.07-3.55,0-5.33,0-1.16-.12-2.41,1.05-3.21a1,1,0,0,1,.81.06,6.48,6.48,0,0,1,4.6,1.26c-2.1.87-2,2.74-2,4.52,0,6.65,0,13.31,0,20C351.07,187.66,351.35,189.22,350.17,190.44Z"/><path class="cls-63" d="M478.29,576.89c-.63-3.16-.11-6.3.22-9.41a15.1,15.1,0,0,1,1-4.94c.45-.52,0-1.3.52-1.81h0c1.44,0,1.13,1.14,1.3,2a4.11,4.11,0,0,1-.07.86c-.64,1.75-.3,3.15,1.44,4.05,1.53,1.64,3.61,2.54,5.28,4-.94,2.2,1.14,4.48-.18,6.68A17.6,17.6,0,0,1,478.29,576.89Z"/><path class="cls-64" d="M367.61,173.06c-.6.12-1.27.28-1.17,1s-.15,1.61,0,2.3c.67,3.5-.58,7,.15,10.5a9.64,9.64,0,0,1-.23,2.9c-.19,1.45.6,1.93,1.88,2-.23.62-.87.78-1.31,1.17-1.29-.13-2.62-.17-3.61-1.21a2.74,2.74,0,0,1-1.33-2.49c.18-5.7-.12-11.4,0-17.1,0-2.49.83-2.86,3-2l.13.12a1.22,1.22,0,0,1,.47.46A8.64,8.64,0,0,1,367.61,173.06Z"/><path class="cls-65" d="M339.33,161.66c0,8.84,0,17.69.09,26.53,0,1.06-.62,2.53,1.2,2.89l-2.92,3.63c-.9-.62-.7-1.57-.7-2.44,0-9,0-18.06,0-27.09a6.78,6.78,0,0,1,.58-2.88A2,2,0,0,1,339.33,161.66Z"/><path class="cls-66" d="M348.53,160.47l-.77.19c-1.63.48-2,1.77-2,3.24-.07,7.31,0,14.63,0,21.94a4.67,4.67,0,0,0,1.48,3.42l.6.61-4.63.12c-.91-.61-.76-1.55-.76-2.43,0-8.05,0-16.1,0-24.16a5.81,5.81,0,0,1,.61-2.87A7.8,7.8,0,0,1,348.53,160.47Z"/><path class="cls-67" d="M350.17,190.44q0-12.85,0-25.71c0-2.78-.11-3.06,3-3a1.38,1.38,0,0,1,1.36.54c-1.29,0-2,.51-1.95,2,0,8.34.08,16.69,0,25,0,1.51,1.11,1.67,1.83,2.36A6.26,6.26,0,0,1,350.17,190.44Z"/><path class="cls-68" d="M332.21,191.7l-.21.08-.22-.05c-2.31,1.29-3.1-.08-3.29-2-.26-2.75-.05-5.54-.07-8.3,0-2.57.09-5.15-.08-7.72s.22-4.73,2-6.57a3,3,0,0,1,1.74-1.37,3.16,3.16,0,0,1,1,2.69q.06,10.11,0,20.21A4.29,4.29,0,0,1,332.21,191.7Z"/><path class="cls-69" d="M330.38,167.11c-1.65,3.15-1.28,6.51-1,9.84a15.06,15.06,0,0,1,0,2c-.12,3.64-.19,7.28-.13,10.92,0,1.65.45,1.84,2.52,1.84a11.76,11.76,0,0,0-3.72,4.74c-.92-.86-1.49-1.81-.91-3.13.75-1.69-.45-3.23-.39-4.93.17-4.63.07-9.28.05-13.92,0-1.08-.09-2.17-.14-3.25h0c.67-.36.8-1.15,1.33-1.62A10.63,10.63,0,0,1,330.38,167.11Z"/><path class="cls-70" d="M536.39,600.14l-1.15.15a1.39,1.39,0,0,1-2.15.21,4.72,4.72,0,0,1-.91-.93,4.13,4.13,0,0,1-.72-1.68c-1.55-6.07-.92-12.29-1.19-18.45a1.17,1.17,0,0,1,1.34-.05,3.85,3.85,0,0,1,1.43,1.13c1.42,3,1.68,6.25,2.21,9.44.24,1.46.68,2.87.94,4.32.4,2.35,1.36,1.07,2.26.44a1.33,1.33,0,0,1,.88,0,.47.47,0,0,1,0,.76l-.64,1.17a4.27,4.27,0,0,0-.57.63C537.78,598.35,536.34,598.79,536.39,600.14Z"/><path class="cls-71" d="M272.22,430.9c1,.59,2.29.85,3.11,1.83a6,6,0,0,1,.5,4,20,20,0,0,0-.61,5.82c.07.79.1,1.88-1.31,1.67-2.19-.28-3.86-1.87-6.29-2.08A111.56,111.56,0,0,1,272.22,430.9Z"/><path class="cls-72" d="M546.53,575.09c-.19,1.2.49,2.54-.59,3.59-.55,1.57-.59,3.27-1.26,4.81-.27.62-.32,1.44-1.24,1.42a1.52,1.52,0,0,1-1.51-1.23c-.55-3-2.41-5.63-3-8.65a1.9,1.9,0,0,1,.83-1.75c1.7-1.17,1.56-2.7,1-4.35a1.35,1.35,0,0,1,.41-1.13c1.6-.09,2,1.32,2.89,2.19.52.51.37,2.57,2.09,1,.48-.44.68.47.66.91C546.73,573,547.11,574.08,546.53,575.09Z"/><path class="cls-73" d="M249,467.35a9.28,9.28,0,0,0,2.66,4.21c.67.71,1.57,1.29,1.55,2.44a37.3,37.3,0,0,1-9.23,2.58c-.57-.91-.2-1.83-.41-2.68a13.17,13.17,0,0,0-.45-3.47Z"/><path class="cls-74" d="M480.72,587.06a9.49,9.49,0,0,1-1.21-3.59c3.89.09,7.15,2.26,10.77,3.22a4.36,4.36,0,0,1,1.06.85c3.34,2.09,7.18,1.78,10.86,2.2,1.95.23,1.31-2.57,3-2.79a7,7,0,0,1,1.55,3.17c.37,1.1,0,2.07-1.3,2.16-3.94.28-7.94,1-11.62-1.22a4.92,4.92,0,0,0-2.61.13A15.86,15.86,0,0,1,480.72,587.06Z"/><path class="cls-75" d="M539.35,574.53c.93,3,3,5.55,3.09,8.84a1,1,0,0,0,.93,1c.68,0,.63-.59.79-1,.53-1.57.7-3.29,1.78-4.65v.59a.38.38,0,0,1,.14.41c-.05.14-.09.2-.14.2l0,1.79c-.35.32-.23.87-.58,1.2h0a.35.35,0,0,0-.15.4c0,.13.09.2.14.2-.53.73-.37,1.79-1.15,2.39-.57,1-.85,2.19-1.44,3.2-.36.63-.39,1.76-1.45,1.6s-1.47-1.18-1.74-2.16c-.94-3.52-1.89-7-2.92-10.52a2.56,2.56,0,0,1,0-.83A4.21,4.21,0,0,1,537,576a4.85,4.85,0,0,1,1-1.25C538.4,574.5,538.81,574.11,539.35,574.53Z"/><path class="cls-76" d="M332.21,191.7l-.09-26c.94-.86,1.69-2,3-2.27-1.44,2.09-1.17,4.54-1.05,6.8.23,4.21-.24,8.43.05,12.6a75.66,75.66,0,0,1-.14,8.79,1.11,1.11,0,0,1-1.35.07l-.23,0Z"/><path class="cls-77" d="M220.25,219.87c0,3.46,0,6.92,0,10.37,0,1-.31,1.27-1.22.9l-1.75-2.44a44.28,44.28,0,0,1-3.4-4.68c-.15-.23-.28-.46-.41-.69s-.28-.46-.41-.69c-.38-.93-1.46-1.57-1.21-2.78Z"/><path class="cls-78" d="M536.83,576.79c1.07,2,1.28,4.33,2,6.44.8,2.32,1.08,4.86,2.26,7.3,1.58-1.49,1.69-3.5,3.07-4.67.13,1.08-.54,2-.67,3l-.56.61a3.31,3.31,0,0,1-1.2,2.38h0l-.54.61c-.81.64-.81,1.91-1.85,2.38h-.6c-1.66-1.45-1.37-3.63-1.94-5.46-1.09-3.45-1.89-7-2.77-10.51C534.47,577.5,535,576.31,536.83,576.79Z"/><path class="cls-79" d="M365,170.13c-1.42-.52-2.34-.25-2.28,1.49s-.26,3.58.21,5.32a3.75,3.75,0,0,1,0,2.58,2.82,2.82,0,0,0-.16,1.16,47.47,47.47,0,0,1,0,8.76,4.92,4.92,0,0,0,.55,2.28A4.16,4.16,0,0,1,361,191l-.58-.59A6.3,6.3,0,0,0,361,187c0-6.41,0-12.82,0-19.18.9-.42,1.32.53,2,.45A4.77,4.77,0,0,1,365,170.13Z"/><path class="cls-80" d="M279.52,436.32c1.23.75,2.17,1.94,3.59,2.4.19.21.41.39.6.59h0a13.9,13.9,0,0,1,.21,5.22c-.13,2.76-.34,2.84-3.2,2a7.87,7.87,0,0,1-3.58-1.21c.5-1.95.2-4,.68-5.92A4.67,4.67,0,0,1,279.52,436.32Z"/><path class="cls-81" d="M279.52,436.32c-.68,2.37-1.51,4.71-1.21,7.25.11.86-.13,1.59-1.17,1.73h0c-.41-.4-1-.36-1.45-.5a2.1,2.1,0,0,1-1.75-.59c.33-.21.8-.49.68-.87-.86-2.66.11-5.14.63-7.68a17.66,17.66,0,0,0,.11-2.92Z"/><path class="cls-82" d="M546.53,575.09v-3.67c-1,.54-.3,1.53-1,2.13-1.68-1.68-2.14-4.35-4.31-5.64-1.86-.84-1.66-2.82-2.4-4.29-.17-2-2-3.68-.81-5.81,1.55.57,1.92,2.11,2.7,3.3,1.28,2,2.45,4,3.65,6,.65,1.11,1.35,1.25,2.18.21a17.44,17.44,0,0,0,.42,3.51C547.22,572.22,547.62,573.77,546.53,575.09Z"/><path class="cls-83" d="M478.29,576.89c3.25,0,6.38.81,9.58,1.19,1.15.44,1.3,1.53,1.64,2.51a2.91,2.91,0,0,1,.05.93,1.55,1.55,0,0,1-.79,1.16c-3.52.21-7,.08-9.95-2.18C478.09,579.37,478.26,578.12,478.29,576.89Z"/><path class="cls-84" d="M343,302.91l-.66-1.17a2,2,0,0,1-.56-1.7c.23-1.28,1-2,2-.9,2.65,3,5.69,5.57,8.17,8.69a1.2,1.2,0,0,1,0,1.64,8.51,8.51,0,0,1-1.8,2.95C347.41,309.49,345.73,305.79,343,302.91Z"/><path class="cls-85" d="M478.82,580.5c3.37.74,6.71,1.7,10.21,1.77a1.47,1.47,0,0,1,1.07.82c.34,1.31,1.19,2.6.15,4-3.81-.49-7.24-2.13-10.74-3.58A8,8,0,0,1,478.82,580.5Z"/><path class="cls-86" d="M280.72,446.51l2.14.1c.81-2.37-.44-5,.85-7.3l4.79,3,.32.37c-.09,2.3.2,4.74-2.17,6.25-.86.12-1.56-.45-2.36-.59C283.13,447.66,281.66,447.6,280.72,446.51Z"/><path class="cls-87" d="M352,309.47c0-1.27-1-1.84-1.75-2.62-2.18-2.4-4.82-4.37-6.6-7.14-.44-.69-1.09-1-1.24.27-1.55-.31-1.17-1.6-1.33-2.61.66-2.62,1.37-3,2.77-1.31,3,3.66,6.82,6.58,9.34,10.64,0,.15.07.29.1.43A3.69,3.69,0,0,1,352,309.47Z"/><path class="cls-88" d="M480.72,587.06c2.7,1.14,5.37,2.33,8.11,3.38a9.71,9.71,0,0,0,2.61.2c.67.7.22,1.4,0,2.09-.09.24-.2.46-.31.69a6.52,6.52,0,0,1-.67,1.38,1.08,1.08,0,0,1-.75.25c-2.15-.54-3.84-2.19-6.08-2.56-1.68-1-1.56-3.22-3-4.33Z"/><path class="cls-89" d="M513.1,537.37c-2.29-1.2-4.82-.82-7.25-1.07a11.17,11.17,0,0,1,6.49-1.17c3.21.23,6.51.37,9.59,1.57.46.18,1,.25,1.26.7,0,1.16-.76,1.64-1.77,1.86-2.32.33-4.83-1.12-7,.72C513.39,539.4,513.3,538.36,513.1,537.37Z"/><path class="cls-37" d="M531.56,541.59c4.72,2.88,7.91,7.1,10.44,11.9.74,1.4,1.42,2.84,2.13,4.26a1.06,1.06,0,0,1-.77.28c-1.28-.47-1.53-1.74-2.14-2.74-2.07-3.38-4-6.83-7-9.56-1.18-1.06-2.72-1-3.83-2-.91-.83-2.46-1-2.58-2.63.81-1.42,1.69-.57,2.57-.08h0C530.69,541.34,530.85,542,531.56,541.59Z"/><path class="cls-90" d="M495.72,540.46a4,4,0,0,1-1.53,1.67,2.68,2.68,0,0,0-1.05,2.5c-1.11,1.43-2.76,2.21-4.08,3.4-1,.83-1.67,1.94-2.61,2.81-.67.59-1.06,1.48-2,1.79a.87.87,0,0,1-.7-.26,30.58,30.58,0,0,1,8.73-10C493.45,541.64,494.19,540.33,495.72,540.46Z"/><path class="cls-91" d="M225.6,251.47c1,2.63,2,5.26,2.92,7.88-1.61.12-2.41-1.2-3.51-2l-.58-.47h0c-.59-2.31-2.13-4.71.69-6.67h0C225.36,250.6,225.27,251.12,225.6,251.47Z"/><path class="cls-2" d="M220.25,591.28c-.6.71-1.43.56-2.2.56H197.29c-.77,0-1.6.15-2.18-.61Z"/><path class="cls-92" d="M211.87,219.86c.5,1,1.84,1.53,1.81,2.89s.57,2.64-.64,3.71c-1.2.3-1.63-.62-2.15-1.37C211,223.3,210,221.31,211.87,219.86Z"/><path class="cls-93" d="M222.67,249.16a.83.83,0,0,1,.53-.12,7.25,7.25,0,0,1-.1,6.73c-.91-.31-1.13-1.24-1.7-1.86a1.48,1.48,0,0,0-.59-.6h0C219.75,250.23,219.88,249.94,222.67,249.16Z"/><path class="cls-94" d="M530.37,541c-.8,0-1.6-.62-2.4,0-2.51.07-4.94-.09-6.59-2.39.94.09,1.19-.84,1.81-1.21h0c.31.39.88.26,1.21.6h0c.32.38.89.25,1.22.6A6.12,6.12,0,0,1,530.37,541Z"/><path class="cls-95" d="M223.1,255.77a47.23,47.23,0,0,0,.1-6.73v0a1.15,1.15,0,0,0,.58-.76c.05-.51.1-1,.14-1.51l1.06,1.85c0,.52.08,1.05.13,1.57-1.05.91-.58,2.13-.65,3.23s0,2.29,0,3.44a.62.62,0,0,1-.64-.51.75.75,0,0,0-.67-.59Z"/><path class="cls-2" d="M195.12,591.24c-4.25,0-8.51,0-12.76,0-1,0-2,.32-2.8-.55,4.82.07,9.64.12,14.47.21A4.19,4.19,0,0,1,195.12,591.24Z"/><path class="cls-96" d="M222.67,249.16c-2.28.64-1.75,2.54-1.86,4.15-1.5-.82-1.86-2.56-3-3.68C219.33,248.27,221.07,249.44,222.67,249.16Z"/><path class="cls-82" d="M543.53,557.74h.6c.2,1.64,1.28,3.06,1.21,4.78a6.67,6.67,0,0,0,.59.6c-.2,1.26.41,2.39.6,3.58-.82-.06-1.13-.53-1.2-1.33a8.93,8.93,0,0,0-1.19-4C543.69,560.18,542.51,559.15,543.53,557.74Z"/><path class="cls-97" d="M480.68,563.13c-.15-.81.31-1.78-.61-2.4a11.29,11.29,0,0,1,1.2-3.58.55.55,0,0,1,.77,0,2.55,2.55,0,0,1,.33,2.1c-.08.42-.2.83-.28,1.24s-.06.57-.09.85C481.75,562.05,482,563.19,480.68,563.13Z"/><path class="cls-98" d="M481.93,557.17l-.66,0a13.94,13.94,0,0,1,2.5-4.78h.54a1.05,1.05,0,0,1,.32,1,5.64,5.64,0,0,1-.53,1.3c-.16.3-.32.6-.47.91s-.19.41-.3.61a3.55,3.55,0,0,1-.79,1.12A.49.49,0,0,1,481.93,557.17Z"/><path class="cls-44" d="M250.73,292c-.18,2.06.68,4.2-.51,6.18C250.32,296.06,249.84,294,250.73,292Z"/><path class="cls-99" d="M365.73,277.8c-1.5-1-2-2.58-2.4-4.19h.6C364.51,275,365.54,276.23,365.73,277.8Z"/><path class="cls-100" d="M365.8,285.78c.17-1.14,1.12-2,1.13-3.21a1.14,1.14,0,0,1,.39,1.57,5.8,5.8,0,0,0-.39,2.63Z"/><path class="cls-100" d="M366.93,282c.24-1.58-1.11-2.7-1.2-4.18C367.64,279.63,367.75,280,366.93,282Z"/><path class="cls-2" d="M328.62,593c-1.59-.23-3.3.57-4.78-.55A10.36,10.36,0,0,1,328.62,593Z"/><path class="cls-101" d="M539.35,594.83c.51-.88.7-2,1.85-2.38a4.17,4.17,0,0,1-1.83,3C539.36,595.25,539.35,595,539.35,594.83Z"/><path class="cls-102" d="M487.29,599.06c-.35-.86-1.35-1.42-1.2-2.53,1.5-.06,2.18.86,2.52,2.16-.07.13-.14.27-.2.41Z"/><path class="cls-103" d="M259.21,393.25c1,1.13.41,2.49.51,3.74A6.85,6.85,0,0,1,259.21,393.25Z"/><path class="cls-2" d="M323.36,592.39c-1.25-.1-2.59.51-3.71-.51A8.09,8.09,0,0,1,323.36,592.39Z"/><path class="cls-2" d="M315.46,591.23c-1.21-.15-2.53.47-3.6-.55A6.13,6.13,0,0,1,315.46,591.23Z"/><path class="cls-2" d="M319.17,591.8c-1.25-.13-2.62.54-3.72-.57A7.91,7.91,0,0,1,319.17,591.8Z"/><path class="cls-104" d="M264,209.59c-.85,1-2,.48-3,.6C261.82,209.44,262.92,209.68,264,209.59Z"/><path class="cls-2" d="M299.3,588.24c-1-.13-2.17.42-3-.6A4.79,4.79,0,0,1,299.3,588.24Z"/><path class="cls-2" d="M306,589.4c-1.05-.07-2.21.44-3.12-.52A6,6,0,0,1,306,589.4Z"/><path class="cls-2" d="M296.3,587.64c-1-.12-2.14.4-3-.55A4.94,4.94,0,0,1,296.3,587.64Z"/><path class="cls-2" d="M309.5,590c-1-.1-2.15.41-3-.53A4.55,4.55,0,0,1,309.5,590Z"/><path class="cls-105" d="M420.81,554.26l-1.27-1.19.7-.73C420.76,552.88,421.47,553.37,420.81,554.26Z"/><path class="cls-2" d="M302.43,588.8c-1.07-.08-2.25.47-3.15-.57A5.37,5.37,0,0,1,302.43,588.8Z"/><path class="cls-38" d="M256.75,364.53c.93.69.56,1.66.57,2.56A4.18,4.18,0,0,1,256.75,364.53Z"/><path class="cls-41" d="M541.17,611.46c.69-.73,1.58-.41,2.41-.45C542.86,611.58,542,611.39,541.17,611.46Z"/><path class="cls-28" d="M260.35,401c.94.74.53,1.75.54,2.68A3.72,3.72,0,0,1,260.35,401Z"/><path class="cls-35" d="M253.82,350.79c.85.69.5,1.64.51,2.51A3.76,3.76,0,0,1,253.82,350.79Z"/><path class="cls-48" d="M328,169.62a1.54,1.54,0,0,1-1.33,1.62A2.39,2.39,0,0,1,328,169.62Z"/><path class="cls-41" d="M543.55,611c.6-.95,1.56-.56,2.4-.64C545.26,611,544.34,610.77,543.55,611Z"/><path class="cls-12" d="M246.15,574.44c-.71,0-1.46.2-1.94-.56A2.61,2.61,0,0,1,246.15,574.44Z"/><path class="cls-38" d="M256.22,362.15c.72.54.53,1.3.48,2A2.43,2.43,0,0,1,256.22,362.15Z"/><path class="cls-38" d="M257.4,367.53c.73.53.55,1.27.5,2A2.39,2.39,0,0,1,257.4,367.53Z"/><path class="cls-97" d="M480.07,560.73a1.81,1.81,0,0,1-.52,1.81A1.65,1.65,0,0,1,480.07,560.73Z"/><path class="cls-2" d="M311.4,590.59c-.71,0-1.47.21-1.93-.59A4,4,0,0,1,311.4,590.59Z"/><path class="cls-12" d="M248.41,575.08c-.66,0-1.35.12-1.8-.55A2.28,2.28,0,0,1,248.41,575.08Z"/><path class="cls-12" d="M250.21,575.67c-.67,0-1.38.13-1.81-.59A2.06,2.06,0,0,1,250.21,575.67Z"/><path class="cls-94" d="M531.56,541.59c-.95.9-1.08.18-1.19-.59Z"/><path class="cls-12" d="M244.22,573.88c-.66,0-1.35.13-1.8-.55A2.28,2.28,0,0,1,244.22,573.88Z"/><path class="cls-72" d="M545.33,582.87a1.25,1.25,0,0,1,.58-1.2A1.2,1.2,0,0,1,545.33,582.87Z"/><path class="cls-2" d="M223.29,589.57c-.08.53-.3.94-.9,1A1.67,1.67,0,0,1,223.29,589.57Z"/><path class="cls-2" d="M222,590.68a1.28,1.28,0,0,1-1.37.5A1.6,1.6,0,0,1,222,590.68Z"/><path class="cls-36" d="M344.78,354.36a1.2,1.2,0,0,1-.59-1.2A1.24,1.24,0,0,1,344.78,354.36Z"/><path class="cls-80" d="M275.66,444.79a1.27,1.27,0,0,1,1.45.5A1.5,1.5,0,0,1,275.66,444.79Z"/><path class="cls-45" d="M282.47,453.47c-.17.67-.66.77-1.24.7C281.47,453.64,282,453.59,282.47,453.47Z"/><path class="cls-57" d="M262.15,461.39c-.29.6-.82.63-1.38.57A1.62,1.62,0,0,1,262.15,461.39Z"/><path class="cls-57" d="M260.36,462.08a1.23,1.23,0,0,1-1.21.54A1.23,1.23,0,0,1,260.36,462.08Z"/><path class="cls-31" d="M237,216.29a1.3,1.3,0,0,1-1.32.44A1.39,1.39,0,0,1,237,216.29Z"/><path class="cls-89" d="M524.39,538a1.22,1.22,0,0,1-1.21-.6A1.22,1.22,0,0,1,524.39,538Z"/><path class="cls-89" d="M525.6,538.6a1.23,1.23,0,0,1-1.22-.6A1.28,1.28,0,0,1,525.6,538.6Z"/><path class="cls-64" d="M368.2,191.77a1,1,0,0,1,1.12-.69A1.1,1.1,0,0,1,368.2,191.77Z"/><path class="cls-106" d="M354.36,305.89c.16.21.33.42.49.64l-1.09,0-.07-.4A.53.53,0,0,1,354.36,305.89Z"/><path class="cls-12" d="M242,573.24c-.58,0-1.11,0-1.34-.67A2.38,2.38,0,0,1,242,573.24Z"/><path class="cls-41" d="M550.77,609.6a1.36,1.36,0,0,1,1.16-.41A1.19,1.19,0,0,1,550.77,609.6Z"/><path class="cls-41" d="M547.77,610.2a1.4,1.4,0,0,1,1.29-.36A1.54,1.54,0,0,1,547.77,610.2Z"/><path class="cls-12" d="M251.5,576.19a1.08,1.08,0,0,1-1.3-.52C250.71,575.65,251.23,575.6,251.5,576.19Z"/><path class="cls-75" d="M542.94,589.46l.56-.61Z"/><path class="cls-95" d="M224.43,256.89l.58.47A.49.49,0,0,1,224.43,256.89Z"/><path class="cls-96" d="M220.81,253.31a.7.7,0,0,1,.59.6A.62.62,0,0,1,220.81,253.31Z"/><path class="cls-37" d="M545.93,563.13l-.59-.6Z"/><path class="cls-101" d="M538.16,597.26l.57-.63Z"/><path class="cls-72" d="M545.94,579.88v-.61C546.34,579.48,546.34,579.68,545.94,579.88Z"/><path class="cls-107" d="M489,599.68a.63.63,0,0,1-.59-.58l0-.09a.57.57,0,0,1,.71.26Z"/><path class="cls-20" d="M489.55,600.33a.79.79,0,0,1-.55-.65l.07,0a.52.52,0,0,1,.69-.06.48.48,0,0,1-.12.66Z"/><path class="cls-93" d="M223.11,255.78a.71.71,0,0,1,.67.59A.73.73,0,0,1,223.11,255.78Z"/><path class="cls-79" d="M365.62,170.71l-.47-.46A.42.42,0,0,1,365.62,170.71Z"/><path class="cls-106" d="M353.76,306.51l-.52.62-.11,0c-.14-.53.11-.69.6-.62Z"/><path class="cls-72" d="M545.32,583.47c-.23-.09-.32-.24-.22-.43s.15-.12.23-.17C545.33,583.07,545.33,583.27,545.32,583.47Z"/><path class="cls-36" d="M345.38,357.35c-.24-.08-.33-.23-.24-.42s.15-.11.23-.17C345.38,357,345.38,357.16,345.38,357.35Z"/><path class="cls-108" d="M316,381.89c-.94.09-1.18.52-.77,1.4.89,1.89,1.68,3.82,2.57,5.7,2.34,4.92,4.77,9.79,7.05,14.74,4,8.65,7.91,17.34,11.84,26,.73,1.62,1.85,3.08,2.13,4.9-1,1.17-1.62,2.67-3,3.48-1.88-2-2.62-4.65-3.69-7.06-7.18-16.18-14.9-32.1-22.37-48.14-.59-1.26-1.13-2.54-1.6-3.85-.37-1-.76-2.12.48-2.92A8.17,8.17,0,0,1,316,381.89Z"/><path class="cls-109" d="M308.88,376.49c-.89.63-.5,1.35-.17,2.1,1.58,3.54,3.08,7.11,4.73,10.61,3.83,8.16,7.77,16.27,11.59,24.43,3.28,7,6.47,14.08,9.66,21.13a32.63,32.63,0,0,1,1.12,3.38L334,440.38c-1.48-.26-2.11-1.41-2.66-2.59-4.5-9.53-8.57-19.26-13.2-28.73q-7.47-15.29-14.23-30.88A3.18,3.18,0,0,0,300.4,376c-.73-.18-1.66-.11-1.69-1.24l.59-.19h1.78l1.2,0,4.19.57a1.71,1.71,0,0,1,2.45.43A.74.74,0,0,1,308.88,376.49Z"/><path class="cls-110" d="M300.48,375.3c.59,0,1.19,0,1.79,0,1,0,1.45.36,1.87,1.4q2.81,6.87,6,13.6c3.94,8.43,8,16.78,12,25.22,3.37,7.28,6.58,14.63,9.82,22,.5,1.13,1.47,1.87,2.07,2.89a6.25,6.25,0,0,1-2.37,2.44c-1.74-1.35-2.3-3.44-3.16-5.3-7.33-15.88-14.87-31.66-22.07-47.59-1.84-4.08-3.73-8.13-5.7-12.14C300.27,377,299.76,376.19,300.48,375.3Z"/><path class="cls-111" d="M300.48,375.3c.22,1.95,1.58,3.39,2.33,5.1,2.81,6.37,6,12.59,8.78,19,3.2,7.27,6.79,14.36,10.08,21.59,3,6.66,6.29,13.22,9.23,19.92a4.71,4.71,0,0,1,.69,1.95,2.21,2.21,0,0,1-1.13,1.42c-1.53-.94-2.24-2.5-3-4-3.8-7.79-7.23-15.75-10.9-23.59q-7.8-16.63-15.53-33.31c-.75-1.63-1.36-3.32-2.16-4.93-.59-1.17-1.18-2.35-2.78-2.34-.7-.23-1.62-.19-1.6-1.31l4.2,0C299.17,375.41,299.85,375.28,300.48,375.3Z"/><path class="cls-112" d="M296.29,375.3c3-.26,3.27,2.42,4,4.1,2.82,6.73,6.12,13.23,9,19.91,3.54,8.14,7.78,15.95,11.21,24.15,1.53,3.64,3.28,7.23,5,10.8,1.62,3.34,3.31,6.64,4.94,10a5.47,5.47,0,0,1-1.74,1.84,2.3,2.3,0,0,1-.75-.52c-2.5-4.85-4.4-10-6.82-14.86-5.17-10.51-10-21.19-14.83-31.86-3.2-7.06-6.63-14-9.85-21C296.1,377,295.57,376.19,296.29,375.3Z"/><path class="cls-113" d="M328.61,445.29c0,.27.07.53.11.79a32.75,32.75,0,0,1-4.92,5.72,45.73,45.73,0,0,1-4.24-9.67c-.56-1.74-2.08-3.18-1.72-5.22,1.76-.19,2.6,1.35,3.89,2Q325.3,442,328.61,445.29Z"/><path class="cls-114" d="M213,226.46c.25-1.23-.46-2.63.64-3.71h0a3.72,3.72,0,0,0,.59.6c1,1.79,2.62,3.22,3,5.34Z"/><path class="cls-93" d="M223.78,248.3a.82.82,0,0,1-.58.76Z"/><path class="cls-115" d="M356.76,301.14A4.31,4.31,0,0,1,355.6,303c-1.48.37-2.13-.85-2.92-1.63-4-3.91-7.36-8.37-11-12.59a2,2,0,0,1-.21-.84c.24-1-.07-2.46,1.14-2.87s1.9.82,2.69,1.54a15.89,15.89,0,0,1,2.39,2.66C350.38,293.44,354.3,296.74,356.76,301.14Z"/><path class="cls-106" d="M341.81,288.57c1.06,0,1.4.85,2,1.53,3.84,4.36,7.12,9.24,11.79,12.85a3.63,3.63,0,0,1-1.24,2.36c-1.67.86-2.27-.56-3-1.48-3.43-4.07-6.64-8.33-10.35-12.16a2.41,2.41,0,0,1-.36-1.3A1.77,1.77,0,0,1,341.81,288.57Z"/><path class="cls-116" d="M341.22,291.56a2.49,2.49,0,0,1,2,1.16q4.51,5.61,9,11.23a2.76,2.76,0,0,0,2.16,1.36v.58l-.63.59-.6.62c-3-3.21-6-6.4-9-9.64-.65-.71-1.08-1.61-2.06-1.91-.43.45-.28,1-.35,1.44-1.22-.12-1.17-1.11-1.35-1.95C340.44,293.82,340.16,292.54,341.22,291.56Z"/><path class="cls-117" d="M356.76,301.14c-2.23-1.24-3.18-3.67-4.92-5.39a52.69,52.69,0,0,1-4.66-6c1-.88,2-.58,3.05-.14,2.88,2.41,6.22,4.45,7.12,8.51l.68.75a1.32,1.32,0,0,1-.65,1.06c-.39.3-.29.86-.62,1.2Z"/><path class="cls-115" d="M356.76,301.14a1.16,1.16,0,0,1,.62-1.2A1.33,1.33,0,0,1,356.76,301.14Z"/><path class="cls-2" d="M429.81,606.83a3.26,3.26,0,0,1,2.46.53C431.42,607.32,430.49,607.67,429.81,606.83Z"/><path class="cls-2" d="M433.3,607.36c.71-.67,1.61-.53,2.47-.59C435.12,607.69,434.16,607.32,433.3,607.36Z"/><path class="cls-2" d="M426.8,605.57a1.37,1.37,0,0,1,1.19.63A1.19,1.19,0,0,1,426.8,605.57Z"/><path class="cls-2" d="M437,606.18a1.34,1.34,0,0,1,1.19-.65A1.11,1.11,0,0,1,437,606.18Z"/><path class="cls-2" d="M428,606.2a1.53,1.53,0,0,1,1.29.56A1.22,1.22,0,0,1,428,606.2Z"/><path class="cls-2" d="M435.75,606.78a1.41,1.41,0,0,1,1.22-.6A1.19,1.19,0,0,1,435.75,606.78Z"/><path class="cls-2" d="M440.58,602.61l.57-.63Z"/><path class="cls-2" d="M440,603.22l.55-.6Z"/><path class="cls-2" d="M439.47,603.78l.51-.52Z"/><path class="cls-2" d="M438.72,605l.6-.74A.87.87,0,0,1,438.72,605Z"/><path class="cls-2" d="M426.22,605.08l.6.51Z"/><path class="cls-2" d="M438.12,605.57a.85.85,0,0,1,.63-.62Z"/><path class="cls-118" d="M245.46,495.73l.45-.77Z"/><path class="cls-119" d="M331.68,229.4c1.56,0,1.72,1.4,2.32,2.34a27.93,27.93,0,0,1,.39,4.75q0,68.17,0,136.33c0,1.77.26,3.6-.64,5.28a1.7,1.7,0,0,1-1.61.6c-1.76-.34-2.45-1.53-2.59-3.19-.12-1.39-.09-2.79-.09-4.18V252.39c0-6.07,0-12.15-.05-18.22-.26-1.86.75-3.22,1.85-4.54Z"/><path class="cls-120" d="M333.41,378.25q0-71.55,0-143.11c0-1.14-.46-2.41.57-3.4h0c.17.23.41.39.59.6h0l.59.6a3.69,3.69,0,0,1,1.79,1.8,16.42,16.42,0,0,1,.39,4.74q0,65.68,0,131.37a27.17,27.17,0,0,0,.83,7.94l-.57.19a2.35,2.35,0,0,1-2.22.42A3.18,3.18,0,0,1,333.41,378.25Z"/><path class="cls-121" d="M338.18,378.79a2.72,2.72,0,0,1-1.83-2.94c.13-4.38,0-8.76,0-13.15q0-62.13,0-124.26c0-1.23-.5-2.6.56-3.7l4.31,1.74a15.11,15.11,0,0,0-.93,6.43c0,43.69-.12,87.39-.09,131.08,0,1.65.42,3.42-.88,4.85Z"/><path class="cls-122" d="M339.39,378.84V240.25c0-.7,0-1.4,0-2.09-.09-1.39.78-1.66,1.89-1.68l1.1,0c1.21,1.44.93,3.18.95,4.84.13,10.71-.23,21.41.22,32.11a29.83,29.83,0,0,0-.34,5.09c0,.48,0,1-.07,1.46a9.53,9.53,0,0,1-.24,1.4,8.62,8.62,0,0,0-.35,2.31c-.64,1.35-.23,2.88-.76,4.25,0,.2,0,.4,0,.6-.2.6-.41,1.2-.62,1.79a8.51,8.51,0,0,0,0,4.77c.09.66,0,1.38.62,1.86.09,1-.28,2.13.6,3l0,1.76a2,2,0,0,0-1.14,1.94v2.69q0,36.31,0,72.62A3.21,3.21,0,0,1,339.39,378.84Z"/><path class="cls-123" d="M343,274.21a14.88,14.88,0,0,1-.61-5q0-16.37,0-32.73l4.2-1.18a5.79,5.79,0,0,0-.61,3.17c0,11.43,0,22.86,0,34.28a50,50,0,0,1,0,5.61C343.83,277.82,343.17,276.19,343,274.21Z"/><path class="cls-124" d="M321.44,226.35v-3c1.51-.94,2.57.43,3.83.77,1.82.5,3.2,2,5.13,2.23a3.8,3.8,0,0,1,1.28,3l0,0c-1,2.28-2.47,2.49-4.45,1.23S322.33,229.17,321.44,226.35Z"/><path class="cls-22" d="M330.4,226.36c-1.07,1.19-2,.17-2.84-.3a34.4,34.4,0,0,0-6.12-2.7v-3.59c2.41-.79,3.78,1.87,6,1.8.95.78,1.21,2,1.8,3l.56.61a5.48,5.48,0,0,1,.05.57,5.69,5.69,0,0,0,.57.63Z"/><path class="cls-125" d="M327.42,221.57c-.64.87-1.33.43-2.09.16-1.38-.49-2.37-1.74-3.89-2l-.06-8.25.65-.09a3.17,3.17,0,0,1,.74,2.69,2.87,2.87,0,0,0,2.3,3.21A11.71,11.71,0,0,1,327.42,221.57Z"/><path class="cls-126" d="M325.07,217.33c-2.21.5-2.95.08-3-1.82-.05-1.36,0-2.72,0-4.08a2.61,2.61,0,0,1,1.05-1.29c0,1.91,1,3.59,1.36,5.41.34.35.2.91.57,1.23A4.87,4.87,0,0,1,325.07,217.33Z"/><path class="cls-69" d="M332.65,191.73l1.35-.07c0,.4,0,.79,0,1.18Z"/><path class="cls-125" d="M325,216.78a1.23,1.23,0,0,1-.57-1.23A1.29,1.29,0,0,1,325,216.78Z"/><path class="cls-119" d="M335.19,232.94l-.59-.6Z"/><path class="cls-119" d="M334.59,232.34l-.59-.6Z"/><path class="cls-47" d="M324.46,207.88a.86.86,0,0,1,.68-.63A.92.92,0,0,1,324.46,207.88Z"/><path class="cls-124" d="M330.4,226.36l-.57-.63Z"/><path class="cls-124" d="M329.78,225.16l-.56-.61Z"/><path class="cls-127" d="M308.86,375.88l-2.39-.68q0-73.17,0-146.32c0-1.32-.51-2.87,1.15-3.7q2.12,4.47,4.22,8.95c-.69,1.24-.19,2.55-.19,3.81q0,67.8,0,135.61a6.56,6.56,0,0,1-.19,2.07C310.7,376.69,309.78,376.29,308.86,375.88Z"/><path class="cls-128" d="M328.61,445.29c-.19,0-.45,0-.58-.1-2.24-1.92-4.74-3.54-6.6-5.88-1.63-2.29-2.53-4.94-3.71-7.44-7.4-15.65-14.38-31.49-22-47.05-1.64-3.36-3-6.85-4.84-10.12l3.61.05c.44.66,1.13.53,1.78.55,1.53,3.41,3,6.84,4.61,10.21q5.76,12.08,11.2,24.28c2.42,5.42,5.07,10.74,7.62,16.11,2.76,5.8,5.87,11.46,7.82,17.62A8.79,8.79,0,0,0,328.61,445.29Z"/><path class="cls-129" d="M290.9,374.7a5.37,5.37,0,0,1,2.23,2.53c2.38,5.24,5,10.38,7.42,15.6,3.59,7.73,7.1,15.51,10.66,23.26,1.23,2.66,2.58,5.28,3.76,8,2.23,5.05,5.13,9.81,6.46,15.25-1.43-.45-2.36-1.65-3.59-2.4-.39-1.21-2-1.18-2.4-2.39-2.78-3.36-4.09-7.48-5.9-11.35-4.12-8.84-7.88-17.84-12.26-26.57-3.34-6.67-6.39-13.48-9.49-20.27a1.41,1.41,0,0,1,.11-1.67Z"/><path class="cls-130" d="M287.9,374.66c1,2.24,2,4.49,3.05,6.74,2,4.49,4.21,8.93,6.23,13.43,1.2,2.71,2.68,5.3,4,8,2.83,5.9,5.44,11.91,8.14,17.86,2.09,4.59,4.44,9.08,6.15,13.84-1.23,0-1.8-1-2.59-1.69s-1.44-1.88-2.79-1.91l-1.2-1.78c-3.73-6.36-6.35-13.26-9.46-19.91-4.42-9.45-9.2-18.73-13.23-28.35a21.83,21.83,0,0,0-1.64-2.49c-.64-3.17-3-3.06-5.48-2.92a5.18,5.18,0,0,1-2.23-.39.84.84,0,0,1-.46-.77,1.26,1.26,0,0,1,.66-.68,10.94,10.94,0,0,1,3.42-.34c1.35,0,2.74-.2,3.86.85Z"/><path class="cls-131" d="M284.3,374.14l-4.17-.07c-1.21-5.58-2.92-11.15,0-16.72a78.45,78.45,0,0,1,2.39,9.31c.33,1.31.33,2.72,1.19,3.87C283.5,371.8,284.15,372.93,284.3,374.14Z"/><path class="cls-132" d="M280.13,357.35a25.56,25.56,0,0,0-.49,9.08,53.16,53.16,0,0,1,.49,7.64l-3.62,0a3.87,3.87,0,0,1-1.08-3.27c.31-7.33-.49-14.61-.79-21.92-.07-1.51,0-3,1.3-4.06.76.37.43,1.45,1.19,1.82a22.88,22.88,0,0,0,3,8.38C280.12,355.77,280.12,356.56,280.13,357.35Z"/><path class="cls-133" d="M271.14,326.26c1.36-38.87.24-77.75.59-116.63,2.86.2,2.93.27,3,2.83,0,.7,0,1.39,0,2.09q0,57.75,0,115.49c0,2.34.72,4.76-.59,7-2.28-.59-1.55-2.87-2.4-4.26C271.4,330.61,269.74,328.57,271.14,326.26Z"/><path class="cls-134" d="M272.34,332.82c1.13,1.18.53,3.09,1.79,4.21-.15,1.54.54,2.9,1,4.31a10.05,10.05,0,0,1,.85,3.44c-.51,2.14-.15,4.27-.14,6.42,0,5.47.63,10.9.73,16.36,0,2.16-.43,4.31,0,6.47l.06.21a3.21,3.21,0,0,1-3.74,0c-.94-1.2-.78-2.63-.78-4,0-10.42-.49-20.83-1.12-31.24C270.8,336.86,270.71,334.62,272.34,332.82Z"/><path class="cls-135" d="M489.64,599.64h-.57l-.63-.62a7.74,7.74,0,0,0-2.35-2.48l-1.83-2.87-.54-.62a4.85,4.85,0,0,1-.09-.55,1.18,1.18,0,0,1,1.78-.32c1.62.9,3.24,1.78,4.86,2.67C491.4,596.62,490.72,598.15,489.64,599.64Z"/><path class="cls-88" d="M483.72,593l.54.62Z"/><path class="cls-136" d="M267.55,276.61c.43,4.63,1.62,9.28,1.08,13.89-.75,6.37-.25,12.71-.47,19.07-.08,2.58.94,5.09.59,7.7.09,4.05.9,8,.91,12.1,0,12.12.25,24.24,1.08,36.34a15.52,15.52,0,0,1-1.27,7.85,1.23,1.23,0,0,1-1.55-.13,32.9,32.9,0,0,1-1.25-10.29c-.11-9.15-1.41-18.23-1.65-27.37-.13-4.77-.2-9.54-.73-14.28.15-14.47-.84-28.93-.66-43.4,0-1.77-.18-3.59.86-5.2,1.39-1.36,1.81.05,2.4.87S266.93,275.75,267.55,276.61Z"/><path class="cls-104" d="M267.55,276.61c-1.08-1.24-1-3.12-2.39-4.19a1.52,1.52,0,0,1-1-.84A2.55,2.55,0,0,1,264,271v-.33a5.78,5.78,0,0,0,.62-3.17q0-28.89,0-57.79l.3,0c3.29,0,3.31,0,3.31,3.18,0,19.7,0,39.39,0,59.09C268.19,273.54,267.57,275,267.55,276.61Z"/><path class="cls-137" d="M269.35,373.49a17.28,17.28,0,0,1,.43-4.73,6.79,6.79,0,0,0,.09-3.55c-.79-2.94-.28-5.91-.5-8.85-.19-2.67.24-5.37-.57-8a5.58,5.58,0,0,1,0-2.08c.52-6-.26-12.06,0-18.1a13.81,13.81,0,0,0-.46-5c-.66-2,.61-3.89.48-5.88,1.14,2.43,1.2,5.12,1.78,7.69a2,2,0,0,0,.61,1.3c-.15,2.29,1.15,4.31,1.2,6.56-1.24,6.81-.06,13.64.19,20.42s.21,13.86.41,20.78a1.08,1.08,0,0,1-1,.45,14,14,0,0,1-1.56-.34A1.62,1.62,0,0,1,269.35,373.49Z"/><path class="cls-138" d="M311.26,375.81a5.15,5.15,0,0,1-.61-3.17q0-67.78,0-135.59c0-1.05-.66-2.53,1.17-2.92a5.24,5.24,0,0,1,0,.56,4,4,0,0,0,.6.63c1.18.69,1.61,2,2.35,3-.46,44-.07,87.91-.21,131.87,0,1.87.31,3.8-.67,5.57A1.77,1.77,0,0,1,311.26,375.81Z"/><path class="cls-139" d="M322.61,240.06a3.87,3.87,0,0,1,1.84-1.69c1.32.61,1.39,1.84,1.48,3s.06,2.59.06,3.88q0,62.57,0,125.14a46,46,0,0,0,.41,6.84c-.25,1-1.1,1-1.9,1.08a3.15,3.15,0,0,1-2.12-1c-1.66-1.71-1.31-3.89-1.31-5.94q0-36.32,0-72.62,0-26.75,0-53.49C321.07,243.39,320.77,241.39,322.61,240.06Z"/><path class="cls-140" d="M313.63,376q0-66.81,0-133.62c0-1.4-.62-3.08,1.15-4a4.08,4.08,0,0,1,1.84,1.72c1.29,1.66.94,3.61.95,5.47q0,62.09,0,124.17c0,2.18.31,4.37-.13,6.55C316.1,377.44,314.78,377.89,313.63,376Z"/><path class="cls-141" d="M317.24,376.41a5.21,5.21,0,0,1-.6-3.17q0-66.58,0-133.19l2.39.7a3.07,3.07,0,0,1,1.48,2.76c.11,1.19.08,2.39.08,3.58q0,61.85,0,123.7c0,1.87.31,3.8-.66,5.57A1.78,1.78,0,0,1,317.24,376.41Z"/><path class="cls-142" d="M326.22,377.6c-.66-.6-1.34-1.16-1.21-2.23a21.15,21.15,0,0,0,0-2.39V242.44c0-1.38.22-2.8-.57-4.07.33-1,1.38-1.49,1.83-2.41.57-1.09,1.13-2.18,2.18-.36-.17,45.92,0,91.84-.08,137.75a8,8,0,0,1-.61,4.09A1,1,0,0,1,326.22,377.6Z"/><path class="cls-143" d="M319.62,376.56q0-66.31,0-132.64a5.69,5.69,0,0,0-.59-3.17,10.77,10.77,0,0,0,3.56-.69,7,7,0,0,0-.59,3.48q0,64.93,0,129.88c0,1.42.05,2.76,1.18,3.8a2.89,2.89,0,0,1-2.78.4C320,377.42,319.57,377.15,319.62,376.56Z"/><path class="cls-144" d="M321.44,226.35c2.13,2.38,5.29,3,7.93,4.43,1.18.66,1.23-1.37,2.28-1.42-.14,1.43-1.18,2.37-1.9,3.49a1.65,1.65,0,0,1-1.28,1.2c-2.29.08-4.08-1.09-5.84-2.31A13.56,13.56,0,0,1,321.44,226.35Z"/><path class="cls-145" d="M322.63,231.74a5.26,5.26,0,0,1,3,.89,5.27,5.27,0,0,0,3,.9c.34.65,0,1-.56,1.25L326.28,236C324.05,235.43,323.08,233.81,322.63,231.74Z"/><path class="cls-127" d="M312.47,235.32l-.6-.63Z"/><path class="cls-146" d="M335.22,378.81a6,6,0,0,1,2.39.17,2.5,2.5,0,0,1,1.73,3.22c-.71,2.66-.39,5.45-.74,8.07-.5,3.71.06,7.47-.92,11.12a9.08,9.08,0,0,0-.18,4.35c.28,1.24.57,2.84-1.1,3.66h0a6.79,6.79,0,0,0-.6-.6v-.6c-.21-.19-.39-.41-.6-.6s-.41-.39-.6-.6c-.74-.91-1.69-1.69-1.8-3,.44-7.4,1.27-14.77,1.51-22.18C334.35,380.76,334.31,379.64,335.22,378.81Z"/><path class="cls-147" d="M326.22,377.6l1.2,0c1.34-1,2.36,0,3.45.57,1.82.9,1.72,2.61,1.55,4.15-.52,4.83-.58,9.7-1.18,14.52-.14,1.11.18,2.91-2,2.35h0c-.18-.22-.41-.39-.6-.6-1.47-1.94-3.34-3.61-4.21-6,.84-4.1,1.83-8.16,1.23-12.43-.15-1.07-1.39-1.42-1.2-2.51Z"/><path class="cls-111" d="M329.21,399.24c1-.12,1.25-.82,1.19-1.7-.23-3.74,1-7.4.63-11.16-.16-1.77.74-3.43.63-5.25a3.54,3.54,0,0,0-1.25-2.81,1.61,1.61,0,0,1,1.78-.12l1.22.05,1.81.56c.38,5.23-.56,10.4-.72,15.6-.08,2.72-.58,5.46-.51,8.21a1.23,1.23,0,0,1-1.19,1.4A11,11,0,0,1,329.21,399.24Z"/><path class="cls-148" d="M324.43,377.72a1.68,1.68,0,0,0,1.28.6c.73.09,1.06.47.78,1.21a5,5,0,0,0,.18,3.44c.54,1.69-.41,3.28-.62,4.91a8.56,8.56,0,0,0-.11,3.74c.4,1.35-.47,1.49-1.53,1a26.2,26.2,0,0,1-4.79-6.57c1.1-3,.14-6,.6-9l3,.18Z"/><path class="cls-149" d="M320.22,377a13.59,13.59,0,0,1,.59,7.47,2,2,0,0,1-1.19,1.58h0a4.93,4.93,0,0,0-.6-.61h0c-.18-.21-.39-.41-.58-.61h0c-.36-.32-.25-.88-.63-1.18-.9-.29-1-1.36-1.8-1.79a13.43,13.43,0,0,0-7.14-5.4c0-.21,0-.41,0-.61l2.4-.07,2.37.15a7.08,7.08,0,0,0,3.61.45l2.38.15Z"/><path class="cls-148" d="M317.82,383.68a1.2,1.2,0,0,1,.63,1.18A1.25,1.25,0,0,1,317.82,383.68Z"/><path class="cls-148" d="M319,385.47l.6.61Z"/><path class="cls-111" d="M328.61,398.63l.6.6Z"/><path class="cls-53" d="M334.6,407l.6.6Z"/><path class="cls-53" d="M335.2,407.6l.6.6Z"/><path class="cls-53" d="M335.8,408.8l.6.6Z"/><path class="cls-148" d="M318.45,384.87l.58.6Z"/><path class="cls-97" d="M510,609.81a43.85,43.85,0,0,1-18.61-8.27,7,7,0,0,1-1.09-1.36c.07-.91.5-1.45,1.49-1.42,3.64,1.25,7.13,2.9,10.78,4.18,2.61.92,5.13,2.09,7.91,2.45,2,.25,3,1.32,2.88,3.39C512.62,610.39,511.35,610.24,510,609.81Z"/><path class="cls-150" d="M510,609.81c1.14-.08,2.43.22,3-1.22a1.89,1.89,0,0,1,1-1.07c1.58-.52,3.2-.29,4.81-.35,2.48.3,4.66-.7,6.86-1.61,1.09-.45,2.1-1.14,3.37-1a1.46,1.46,0,0,1,.8.47l-2.43,1.77a36.92,36.92,0,0,1-12.78,3.47C513.08,610.44,511.43,610.88,510,609.81Z"/><path class="cls-127" d="M491.44,599l-1.15,1.18-.65.05v-.59c-.23-1.66.84-3.14.63-4.8h0c.56-.48.06-1.31.6-1.8h0a1.25,1.25,0,0,1,1.93.08,1.79,1.79,0,0,1,.22.82,15.39,15.39,0,0,1-.29,1.65,10,10,0,0,1-.26,1.21C492.18,597.57,492.16,598.45,491.44,599Z"/><path class="cls-151" d="M261,375.3c.42-.65,1.08-.62,1.74-.62a3.92,3.92,0,0,1,3.88-.45c1.79,1.59,2.49,3.86,3.27,5.94,4.06,10.84,9.24,21.19,13.65,31.87,4.14,10,8.77,19.87,12.78,30,.75,1.89,1.95,3.71-.54,5.5-1.08.77-.19,3-1.76,3.89a1.3,1.3,0,0,1-1.33-.11,2,2,0,0,1-1.77-.61c-.11-.17-.25-.37-.19-.53,1.16-3.15.17-5.7-2.2-7.85h0c1-1.19,1.77.5,2.74.1.65-1-.05-1.84-.44-2.7-3.92-8.68-7.49-17.5-11.31-26.21-2.5-5.68-4.76-11.46-7.33-17.12s-4.7-11.35-7.14-17C264.23,377.57,263.81,375.17,261,375.3Z"/><path class="cls-152" d="M293.89,451.27a5.06,5.06,0,0,0,.62-2.88c0-.84.27-2,.87-2.09,2.17-.3,1.29-1.34.82-2.41-2.82-6.55-5.43-13.19-8.5-19.65-2.59-5.43-4.63-11.11-6.91-16.69-1.54-3.76-3.52-7.32-5.09-11.08-1.94-4.67-4-9.31-5.67-14.07-.58-1.6-1.42-3.07-2.13-4.6a5.88,5.88,0,0,1-.95-3.09,2,2,0,0,1,2.27-.35c2.5,2.59,3.37,6.05,4.72,9.22,8.39,19.58,16.62,39.23,25.05,58.79a16.25,16.25,0,0,1,1.18,3.37c.26,1.47.46,2.93-1.76,2.87-1.24,0-1.31.94-1.65,1.76-.41,1-.77,2.2-2.32,1.52a1,1,0,0,1-.55-.1c-.21-.11-.28-.23-.21-.35S293.82,451.27,293.89,451.27Z"/><path class="cls-153" d="M294.44,451.89c2.55-.58,1.43-2.93,2.08-4.38,1.12-.57,1.84.73,3,.46.53-1.33-.13-2.66-.61-3.81-2.41-5.77-5.22-11.37-7.43-17.21-2.35-6.22-5.23-12.2-7.83-18.3-2.72-6.38-5.07-12.9-8.07-19.16-2.32-4.82-4.19-9.85-6.26-14.78a1.59,1.59,0,0,1,1.27-.54,2.71,2.71,0,0,1,1.32.48c1.41,2.19,2.13,4.69,3.15,7.07,6.83,16,13.38,32.1,20.44,48,2.46,5.55,4.63,11.2,7,16.77.43,1,1,2,.74,3.13a1.28,1.28,0,0,1-.54.65,3,3,0,0,1-1.22,0c-1.17,0-1,1-1.33,1.64-.44.9-.84,1.9-2.18,1.23l-2.93-.59Z"/><path class="cls-24" d="M288.5,442.3c4,2.14,4.36,3.45,2.39,8.38l-4.24-1.76A31.76,31.76,0,0,0,288.5,442.3Z"/><path class="cls-153" d="M293.89,451.27v.52a1.27,1.27,0,0,1-1.23-.5Z"/><path class="cls-154" d="M264.56,271.22l.6,1.2a12.53,12.53,0,0,0-.61,4.67c.24,4.23-.33,8.48.4,12.73.24,1.45-.54,3.07-.39,4.67.81,9,.57,18,.6,27-.92,1.5.35,3.71-1.6,4.88-1.41-1.1-1-2.68-1.07-4.11-.27-6.29-.7-12.57-1.11-18.84a16.3,16.3,0,0,0-.52-2.61c-.07-9.45-1-18.87-.82-28.32a3.91,3.91,0,0,1,.93-3c1.19-.08,1.79,1.3,3,1.22h0C264.15,270.83,264.35,271,264.56,271.22Z"/><path class="cls-155" d="M261,269.41c0,4.36-.42,8.77.1,13.06.76,6.23.26,12.44.49,18.66.75,5.68.4,11.42.83,17.12a6.06,6.06,0,0,1-1.42,5,8.79,8.79,0,0,1-1.19-4.72,34.14,34.14,0,0,0-.61-8.44c-1.4-1.39-1.45-3.22-1.47-5-.14-11.08.19-22.18-.61-33.25-.09-1.25-.16-2.61.88-3.63,1.08-.18,2,.53,3,.6C261,269,261,269.22,261,269.41Z"/><path class="cls-103" d="M281.32,435.72c.13-3-1.56-5.48-2.62-8.08-2.08-5.13-4.43-10.16-6.73-15.2-3.78-8.28-6.71-16.91-10.68-25.11a4.56,4.56,0,0,0-2.08-2.43,16.38,16.38,0,0,1,.83-7.36c1.28.27,1.6,1.4,2,2.37,2.92,7.47,6.44,14.68,9.43,22.1s6.55,14.41,9.27,21.86c1,2.78,2.55,5.36,3.66,8.11a29.07,29.07,0,0,1,2.18,7.26C284.26,438.48,282.5,437.54,281.32,435.72Z"/><path class="cls-86" d="M283.71,439.31l-.6-.59Z"/><path class="cls-103" d="M277.73,433.32l.6.6Z"/><path class="cls-103" d="M277.13,432.73l.6.59Z"/><path class="cls-156" d="M258,268.23c.69,12.48.64,25,.59,37.47,0,1.51.85,2.87.61,4.4a1.38,1.38,0,0,0-.53,1.57,25.8,25.8,0,0,1,.05,10.21,55.51,55.51,0,0,0-.12,8,1.5,1.5,0,0,1-.58-1.3,59.45,59.45,0,0,0-1.13-12.62c-.48-2.88-.26-5.86-.39-8.8-.07-1.87-.2-3.73-.29-5.6a1.86,1.86,0,0,0-.6-1.59c.1-4.42-.32-8.82-.56-13.23-.2-3.73.06-7.48-.07-11.22a33.33,33.33,0,0,0-1.16-8.42c1,0,1.92.75,3,.56Z"/><path class="cls-157" d="M358.55,261.65c-1,.87-.58,2-.58,3.07q0,12.75,0,25.5a14.74,14.74,0,0,1-.62,4.95,5.69,5.69,0,0,1-3.58-5.42c.12-6.66.51-13.31.09-20-.26-4.21.06-8.45.18-12.68a48.4,48.4,0,0,0-.24-8.51,1.39,1.39,0,0,1,.49-1.34C355.8,249.14,357.46,254.73,358.55,261.65Z"/><path class="cls-158" d="M353.76,289.75a28.42,28.42,0,0,0,3.58,5.42c0,1,0,2,0,3-1.76-3.17-4.48-5.47-7.18-7.77a49,49,0,0,1-7.78-10.17V279c1.3-.86,2,.24,2.79.92,1.57,1.37,2.93,3,4.4,4.45h.59A25.18,25.18,0,0,0,353.76,289.75Z"/><path class="cls-159" d="M349.58,284.37c-1.72-.11-2.35-1.69-3.49-2.58s-1.9-2.62-3.7-2.79c.25-1.59-.6-3.32.59-4.79l3,4.18a8.65,8.65,0,0,0,2,2.91A4.91,4.91,0,0,1,349.58,284.37Z"/><path class="cls-160" d="M298,453.09c1.5-.26,1.85-1.32,1.72-2.61-.23-2.08.89-1.44,1.93-1,.18.23.43.38.61.6h.59c.93.28,1.95.45,1.8,1.8-.71.82.42,1.11.51,1.72.13,1,.07,1.76-1.15,1.88A13,13,0,0,1,298,453.09Z"/><path class="cls-95" d="M225.6,251.47a1.15,1.15,0,0,1-.5-1.25A1.15,1.15,0,0,1,225.6,251.47Z"/><path class="cls-118" d="M543.53,557.74c.2,1.2.41,2.4.61,3.59A23.85,23.85,0,0,1,540,555a7.2,7.2,0,0,0-1.43-1.88c-.36-.34-.86-.77-1.29-.33-1.61,1.68-2.48.13-3.37-.8a38.14,38.14,0,0,0-9.26-7.41,42.71,42.71,0,0,0-10.45-4.16.47.47,0,0,1,.06-.57c.66-1.87,2.12-2.12,3.72-1.62a11.56,11.56,0,0,0,3.44.43L528,541c1,1.59,2.81,2.13,4.31,3a15.87,15.87,0,0,1,5.85,5C540.09,551.81,541.6,554.9,543.53,557.74Z"/><path class="cls-161" d="M514.22,539.8a.54.54,0,0,0-.06.57v0c-.64.93.11,2.11-.54,3a.36.36,0,0,0-.08.46c-.47,1.17.33,2.89-1.5,3.47a24.42,24.42,0,0,1-2.9.8,10.18,10.18,0,0,0-3.05,1,7.08,7.08,0,0,1-.77.28c-.53.18-1.06.36-1.6.52a6,6,0,0,1-1.33.21c-1.42,0-2.9.06-3.75-1.45-.81-1-.37-1.84.56-2.46,3.6-2.4,6.92-5.14,10.27-7.85a5.32,5.32,0,0,1,3.63-1C515.05,537.46,513.85,539,514.22,539.8Z"/><path class="cls-162" d="M511.7,546.93c1.74-.36,1.1-2.13,1.84-3.09.05.44.09.88.14,1.33,1.38,1.49,2.87,2.88,4.35,4.27l1,.73a14.35,14.35,0,0,1,2.62,2.36c1.92,2.13,4,4,7,4.5a.94.94,0,0,1,0,.82,2.16,2.16,0,0,1-1.14.54c-1.3.12-2.75-.06-3.27,1.62a3.51,3.51,0,0,1-.78,1,2.22,2.22,0,0,1-1.2.5c-6.21-3.22-12.18-6.89-18.37-10.15a1.64,1.64,0,0,1-1-1.92l.94-.17a4.09,4.09,0,0,1,1.25-.2c2.24-.29,4.05.78,5.87,1.82,3.36,1.93,6.73,3.85,10.68,5.88A59.69,59.69,0,0,0,511.7,546.93Z"/><path class="cls-163" d="M528.73,557.23c-2.68.3-4.6-.89-6.3-2.87a18.19,18.19,0,0,0-4-3.8c-.18-.22-.42-.38-.6-.59-1.61-1.41-3.59-2.49-4.12-4.8,7.1,2.53,13.48,6.18,18.48,12A2.46,2.46,0,0,1,528.73,557.23Z"/><path class="cls-164" d="M527.38,557.68a.8.8,0,0,1,.91,0,35.31,35.31,0,0,1,9.3.05,1.86,1.86,0,0,0,.41.08c0,2,1.41,3.73,1.42,5.76.21,1.33-.8,1.25-1.47,1a43,43,0,0,1-10.15-4.88A1.33,1.33,0,0,1,527.38,557.68Z"/><path class="cls-165" d="M537.59,557.73l-9.3-.05.44-.45a9,9,0,0,0,3.43-.11c1.34,0,2.68,0,4,0C536.71,557.17,537.36,557,537.59,557.73Z"/><path class="cls-163" d="M513.62,543.38a5,5,0,0,1,.54-3C514.1,541.38,514.59,542.51,513.62,543.38Z"/><path class="cls-166" d="M261,323.26c1-5.51.45-11.08.6-16.62.05-1.84-.94-3.68,0-5.51,1.17,1.29.93,3.1.94,4.47s.31,2.88.23,4.31c-.27,4.74,1,9.41.64,14.16-.06.76-.16,1.6.59,2.18,1.64,2.73,1,5.82,1.07,8.68.18,11,.07,21.95.8,32.91.11,1.77-.23,3.56-.12,5.34a2.17,2.17,0,0,1-.4.95,3.2,3.2,0,0,1-2.52.06c-.21-8.7-.49-17.4-.76-26.09C261.77,339.82,260.81,331.56,261,323.26Z"/><path class="cls-167" d="M262.79,374.19l2.36-.17c1.63-1.32,3.35.13,5-.15a.65.65,0,0,1,.39.83H267l-4.24,0A2.78,2.78,0,0,0,262.79,374.19Z"/><path class="cls-168" d="M533.45,600.17a1.87,1.87,0,0,0,1.79.12c-.58,1.45-2,2-3.09,2.91-.58.28-.7-.1-.77-.54A4.58,4.58,0,0,1,533.45,600.17Z"/><path class="cls-169" d="M531.58,602.7l.57.5L529.8,605,529,605C529.24,603.5,529.79,602.4,531.58,602.7Z"/><path class="cls-170" d="M304.67,451.87c-.45-.75-1.54-.85-1.8-1.8a4.71,4.71,0,0,0-.54-2.29c-1.78-3.86-3.21-7.87-4.74-11.84-1.07-2.76-2.65-5.3-3.78-8.07-2.47-6.06-5.21-12-7.77-18.06-2.38-5.65-4.42-11.46-7.07-17-2.49-5.18-4.25-10.65-6.68-15.83a4.64,4.64,0,0,1-.55-2.29c.88-.55,1.84-.21,2.76-.27,1.43.48,1.75,1.79,2.26,3,3.61,8.39,6.74,17,11.09,25.06a107.27,107.27,0,0,0,5.43,11.72c.36,2.62,1.72,4.87,2.73,7.24,4,9.34,7.73,18.77,11.86,28.05.6,1.36,1.6,3.19-1.41,3h-.59c-.18-.22-.42-.38-.6-.59Z"/><path class="cls-171" d="M284.91,378.29a4.06,4.06,0,0,1,2,2.16c2,4.63,4,9.27,6.1,13.87,1.56,3.43,3.55,6.63,5.07,10.09,3.35,7.62,6.91,15.15,10.41,22.71a4.46,4.46,0,0,1,.41,2c-1.74-.52-2.71-2.11-4.19-3l-.32-.06a3.42,3.42,0,0,1-.59-.33c-.1-.05-.19-.12-.29-.18a2.71,2.71,0,0,1-1.1-.94,3.4,3.4,0,0,1-.32-.76c-1.05-4.61-3.62-8.57-5.55-12.78-2.6-5.67-5.26-11.32-7.84-17-1.22-2.69-3.41-4.92-3.81-8C284.7,383.49,283.15,380.87,284.91,378.29Z"/><path class="cls-172" d="M306.46,452.47c1-.12,1.82-.38,1.25-1.68-1.95-4.43-3.76-8.93-5.88-13.28-1.38-2.86-2.13-5.93-3.55-8.78-1.88-3.79-3.35-7.78-5.06-11.66a6.41,6.41,0,0,1-.53-2.88,31.84,31.84,0,0,1,7.8,8.52,147.81,147.81,0,0,0,6.73,16.87c1.92,4.36,3.62,8.81,5.71,13.1.38.77,1.5,2.19-.48,2.78A17.56,17.56,0,0,1,306.46,452.47Z"/><path class="cls-173" d="M312.45,455.46a.82.82,0,0,0,.38-1c-.43-1.1-.86-2.21-1.34-3.28-1.06-2.32-2.3-4.54-3.23-6.94-2.44-6.22-5.11-12.36-7.74-18.51a6.68,6.68,0,0,1-.64-3.15c1.64-.47,1.89,1.37,3,1.79,0,.2,0,.4,0,.59.31.37.86.27,1.19.61h0c.2.2.38.42.6.6h0a9.51,9.51,0,0,0,1.37,5.1c2.78,5.26,4.59,10.94,7.18,16.29,1.24,2.55,2.09,5.29,3.12,7.95.19.47.37.95,0,1.38A1,1,0,0,1,315,457,6.35,6.35,0,0,1,312.45,455.46Z"/><path class="cls-160" d="M305.27,451.87l.6.59Z"/><path class="cls-36" d="M344.78,355a1.16,1.16,0,0,1-.13.24c-.2-.05-.16-.14.13-.24Z"/><path class="cls-36" d="M345.38,358a1.16,1.16,0,0,1-.13.24c-.21-.05-.16-.14.13-.24Z"/><path class="cls-174" d="M502.84,549.45c1.32,2.08,3.73,2.5,5.67,3.6,4.72,2.71,9.58,5.18,14.07,8.28l.32.32a2.78,2.78,0,0,1,.13,2.19,1.46,1.46,0,0,1-.57.66,3.21,3.21,0,0,1-2.51-.75c-5.94-4.61-12.9-7.41-19.42-11a1.39,1.39,0,0,1-.39-1.14.66.66,0,0,0-.1-.47.8.8,0,0,1,.07.51c-.07.79-.34,1.41-1.25,1.5a77.47,77.47,0,0,0-8.5-3.31c-.94-.34-2.53-.41-1.88-2.22,1.5-1.09,2.71-2.61,4.66-3,0,1.52.46,2.74,2.2,2.88,1.22.09,2.05,1.21,3.3,1.14A7.54,7.54,0,0,0,502.84,549.45Z"/><path class="cls-175" d="M347.18,189.26c-2.33-.27-2.38-.27-2.39-2.31q0-11.88,0-23.77c0-2.56,0-2.56,3-2.52-.9,3.14-.25,6.36-.42,9.54-.21,4.13.15,8.3.07,12.45C347.36,184.85,347.69,187.08,347.18,189.26Z"/><path class="cls-176" d="M489,580.61c-.72-.69-.51-1.79-1.12-2.53A11.39,11.39,0,0,0,487,574c-.47-1.25.2-1.83.87-2.55A2.66,2.66,0,0,1,489,570a16.8,16.8,0,0,0,1.8-1.34,5,5,0,0,1,.6-.43c.41-.24.84-.47,1.23-.75s.78-.54,1.17-.8c.18-.15.38-.28.57-.42s.37-.28.57-.41l.58-.42c.51-.36,1-.86,1.7-.54,1.74,1.67,4.12,2.81,4.56,5.55-2.25,2.71-5.57,4.09-8.06,6.54A32.92,32.92,0,0,1,489,580.61Z"/><path class="cls-177" d="M494.38,566.69a3.45,3.45,0,0,1-1.77,1.21c-.28.39-.88.23-1.13.67h0c-4.15-.42-7.46-2.7-10.83-4.84v-.6c.87-.63.5-1.59.63-2.41a1.9,1.9,0,0,1,2.21-.26C487.27,562.29,491.33,563.63,494.38,566.69Z"/><path class="cls-97" d="M480.67,563.73c2.53.42,4.64,1.9,6.91,2.93,1.31.59,2.61,1.27,3.92,1.91a3.32,3.32,0,0,1-2.27,1.81c-2.79.65-4.55-1.55-6.79-2.45C479.88,566.69,479.79,566.48,480.67,563.73Z"/><path class="cls-9" d="M482.44,567.93a8.32,8.32,0,0,1,3.82,1.23,6.46,6.46,0,0,0,3,1.22,3,3,0,0,1-1.41,1.1C485.36,571.3,483.83,569.73,482.44,567.93Z"/><path class="cls-141" d="M530.91,579.34a.76.76,0,0,0-.09,1.25,3.56,3.56,0,0,1,.65,3.63c-1.17,3.87-.07,7.59.48,11.34a20.67,20.67,0,0,1,.18,2.93c-2.25-.17-2.69-2.07-3.49-3.63a4.27,4.27,0,0,1,0-1.78c1.13-3.6.86-6.86-1.64-10a47.44,47.44,0,0,1-4.59-7.59c-.48-.91-1.65-2,0-2.93a3.24,3.24,0,0,1,.81.22c.49.23,1,.45,1.49.65a17.81,17.81,0,0,1,6.34,5.51Z"/><path class="cls-178" d="M531.58,602.7A7.09,7.09,0,0,0,529,605a51.43,51.43,0,0,0-4.89,2,9.65,9.65,0,0,1-5.15,1c-.14-2.72,2.33-3.66,3.75-5.25,1.1-1.24,2.45-2.29,3.65-3.47a4.06,4.06,0,0,1,1.82-1.17,7.33,7.33,0,0,1,4.55,1.49l.71.54C533.38,601.43,532.36,602,531.58,602.7Z"/><path class="cls-101" d="M534.51,578.56c1.72,3.62,1.91,7.69,3.43,11.38.61,1.49.56,3.26.81,4.9-.87.84-1,2.83-2.46,2.54-1.13-.22-.4-1.92-.72-2.94-1.45-4.53-1.74-9.3-2.8-13.92v-.37a2.46,2.46,0,0,1,.23-.71C533.36,578.9,533.75,578.4,534.51,578.56Z"/><path class="cls-179" d="M532.74,599.63a17.88,17.88,0,0,1-4.77-1.21c-.87-1-.36-1.94-.06-2.92a2.82,2.82,0,0,1,.51-.73.43.43,0,0,1,.67.22c1.08,1.11,1.62,2.69,3,3.5C532.33,598.87,532.53,599.25,532.74,599.63Z"/><path class="cls-141" d="M532.77,580.52a1.56,1.56,0,0,1-1.28-.59l.26-.28a1.11,1.11,0,0,1,1.1.1.59.59,0,0,1,0,.7Z"/><path class="cls-141" d="M531.49,579.93l-.58-.59.1-.1c.47-.07.69.11.58.6Z"/><path class="cls-180" d="M522.6,564.33a.23.23,0,0,0,.06-.37,6.92,6.92,0,0,0,.24-2.48,1.07,1.07,0,0,1,.3-.75l.53-.71c.87,2.46,2.92,3.41,5.13,4.4,3,1.35,5.9,3.12,9,4.38,1.13.46,2.15,1,3.32.21,1.17,2.77,1.17,2.77-1.84,5.52l-1.24.55c-1.27.95-2.57.41-3.64-.21-3.35-2-7-3.36-10.39-5.09a3.32,3.32,0,0,1-2.13-2.31,4.88,4.88,0,0,1,.1-2.37A2.47,2.47,0,0,1,522.6,564.33Z"/><path class="cls-165" d="M541.19,569c0,1.36-.29,2.09-1.9,1.29-4.32-2.13-8.66-4.26-13.07-6.2-1.93-.85-2.76-2.05-2.49-4.08-.33-2.5.32-2.68,3.65-2.34a1.72,1.72,0,0,0,1,1.71c3.11,1.46,6.08,3.22,9.31,4.43.64.24,1.29.65,1.77-.25,1,1.27.81,3,1.79,4.34Z"/><path class="cls-181" d="M489,580.61a2.51,2.51,0,0,1,1.2-1.92c3.89-2.7,7.22-6.15,11.45-8.39H502a3.33,3.33,0,0,1,.75.26,15.13,15.13,0,0,1,2.67,2.32c.3.27.58.56.86.86.65.74,1.33,1.48,1,2.6a2.58,2.58,0,0,1-.83,1c-4.06,2.07-7.54,5-11.08,7.77a11.51,11.51,0,0,1-4.54,2.62c-.19-.21-.39-.42-.58-.64.18-1.42-.86-2.65-.63-4.08-.46-.56,0-1.37-.56-1.89A.85.85,0,0,1,489,580.61Z"/><path class="cls-182" d="M490.83,587.69c.89-1.7,2.86-2,4.18-3.17a87.81,87.81,0,0,1,8.19-6.27,6.31,6.31,0,0,1,3.25-1.36,1.48,1.48,0,0,1,.25.8,17,17,0,0,0-.11,2.58,14.2,14.2,0,0,1-.22,3.19c-.5,1.13-.1,2.57-1.18,3.51a3.24,3.24,0,0,0-.41.78c-.63,3-.63,3.1-3.72,2.81s-6.06-.76-9.09-1.13C490.88,589.3,490.86,588.5,490.83,587.69Z"/><path class="cls-183" d="M505.19,587c0-1.23-.17-2.49.58-3.61,1.44,4.14,4,7.7,6.14,11.45.53.91,1.43,2,.43,3s-1.8-.19-2.51-.78a4.63,4.63,0,0,0-3.37-.86,28.86,28.86,0,0,1-10-1.41c-1.6-.53-3.27-1.15-3.26-3.33a2.33,2.33,0,0,1,.57-1.29c2.86,1.33,5.71,2.69,9,1.26.77-.33,1.53.15,2.3.31,1.05.22,1.63-.48,1.06-1.35A5.62,5.62,0,0,1,505.19,587Z"/><path class="cls-184" d="M493.79,590.1c0,.38,0,.76,0,1.14-.89.55.58,2.28-1.19,2.39-.43-.69-1.12-.58-1.78-.58l.57-2.41C492.07,589.78,493,590.12,493.79,590.1Z"/><path class="cls-185" d="M522.55,567.23c.08.5.17,1,.68,1.25q6.84,3.27,13.7,6.5a3.74,3.74,0,0,0,1.18.1l-.62,1a1.07,1.07,0,0,1-.66.7v0a5.14,5.14,0,0,0-2.32,1.77,1.83,1.83,0,0,0-1.24,1.06.44.44,0,0,1-.5.42l-1.18-.2a.71.71,0,0,0-.58-.6,53.7,53.7,0,0,0-6.72-5.31c-.21-.46-.86-.27-1.06-.73l0,0a3.77,3.77,0,0,1-2-3.86,4.29,4.29,0,0,1,.1-.94C521.53,567.83,521.71,567.2,522.55,567.23Z"/><path class="cls-78" d="M536.83,576.82a1,1,0,0,1,.66-.7A.81.81,0,0,1,536.83,576.82Z"/><path class="cls-92" d="M214.27,223.36l-.59-.6Z"/><path class="cls-101" d="M541.74,591.84c-.08,0-.24-.11-.23-.13,0-.2.13-.15.23.13Z"/><path class="cls-176" d="M489.06,581.08c.73.47.58,1.19.56,1.88l-.59-.69Z"/><path class="cls-135" d="M490.86,593c0,.66.1,1.36-.6,1.8C490.27,594.18,490.15,593.47,490.86,593Z"/><path class="cls-186" d="M488.48,547.64a1.29,1.29,0,0,0,1.09,1.2c1.6.49,3.14,1.15,4.75,1.59a11.46,11.46,0,0,1,4.91,2.52c.61.71.32,1.45.1,2.19a2.17,2.17,0,0,1-.82,1.11c-1.22.51-2.31,0-3.41-.46-2.38-.92-4.65-2.11-7.05-3-.94-.36-2.1-.77-2-2.2Z"/><path class="cls-187" d="M486.07,550.57c1.91,2,4.7,2.31,7,3.48,1.7.84,3.41,2.06,5.51,1.89.46,1.41-.29,2.35-1.27,3.19a32,32,0,0,1-13.1-5.58c0-.39,0-.79.05-1.18C485.06,551.93,485.14,550.83,486.07,550.57Z"/><path class="cls-188" d="M494.38,566.69a4.93,4.93,0,0,1-2.67-1.21c-2.28-1.78-5.14-2.48-7.55-4a4.47,4.47,0,0,0-2.85-.72c0-.19,0-.38,0-.58.17-.21.35-.41.53-.61,0-.79,0-1.58.07-2.36l.55,0c3.64,2.3,8,3,11.53,5.66.61.47,1.4.7,1.82,1.43a1.54,1.54,0,0,1-.22,1.68.52.52,0,0,1-.45.24,3.63,3.63,0,0,0-.73.5Z"/><path class="cls-177" d="M481.86,559.53l-.53.61Z"/><path class="cls-189" d="M495.65,564.33a15.4,15.4,0,0,1-4.39-2.32c-1.51-1.21-3.37-1.56-5.14-2.12a5.67,5.67,0,0,1-3.64-2.74,1.25,1.25,0,0,1,.61-1.2,2.72,2.72,0,0,1,3.09-.11c3.6,1.61,7.38,2.86,10.65,5.16a2.19,2.19,0,0,1-.09,2.58,2.06,2.06,0,0,1-.65.63Z"/><path class="cls-190" d="M496.83,561.33c-2.93-1.28-5.92-2.43-8.75-3.9a16.27,16.27,0,0,0-5-1.48c0-.2,0-.4,0-.6.17-.21.35-.42.53-.62a1.25,1.25,0,0,1,.59-1.18c3.73,1.08,7,3.18,10.68,4.45a8.29,8.29,0,0,0,2.5.93,3.45,3.45,0,0,0,.28.26,1.65,1.65,0,0,1,0,1.47A1.29,1.29,0,0,1,496.83,561.33Z"/><path class="cls-189" d="M483.66,554.73c-.18.21-.36.41-.53.62C483.3,555.14,483.48,554.94,483.66,554.73Z"/><path class="cls-191" d="M342.39,280.19c2.51,1.47,3.46,4.24,5.16,6.37.93,1.17,2.54,2,2.62,3.8a5,5,0,0,0-3-.6,33,33,0,0,0-4.27-4.5c-.93.82-.09,2.14-1.12,2.71,0-1.6,0-3.2,0-4.79.54-.49,0-1.31.57-1.8Z"/><path class="cls-121" d="M341.14,295.13a4.69,4.69,0,0,1,0-4.77c0,.4,0,.8,0,1.2C341.2,292.75,341.17,293.94,341.14,295.13Z"/><path class="cls-192" d="M332.19,378.2l-1.78.12-3-.67q0-69.09,0-138.17a13.09,13.09,0,0,1,.62-4.7l.56-1.25,1.17-.68c.88,1.35.65,2.87.65,4.35V373.46a9.72,9.72,0,0,1,0,1.79A2.51,2.51,0,0,0,332.19,378.2Z"/><path class="cls-158" d="M342.38,281.38c0,.66.11,1.36-.57,1.8C341.8,282.52,341.69,281.82,342.38,281.38Z"/><path class="cls-167" d="M287.31,402.82c-2.32-3.81-3.8-8-5.66-12-2.46-5.31-4.26-10.89-6.92-16.1a1.5,1.5,0,0,1,1.81,0l2.38,0c1.66,3,2.51,6.39,4,9.51a54.78,54.78,0,0,0,3.22,6.29c1.14,3.48,1,7.16,1.76,10.7A1.68,1.68,0,0,1,287.31,402.82Z"/><path class="cls-193" d="M285.51,390.26a3.12,3.12,0,0,1-1.67-2c-1.65-4-3.76-7.83-4.86-12.05a7.28,7.28,0,0,1-.06-1.48l2.07,0c3.35,0,3.35,0,3.92,3.59-.4,2.84.8,5.56.6,8.38A4.36,4.36,0,0,1,285.51,390.26Z"/><path class="cls-193" d="M276.54,374.69l-1.81,0h-4.18c0-.17,0-.34,0-.5l.15-.32a1.25,1.25,0,0,1,1,.14h1.22l3.63.22A3.4,3.4,0,0,0,276.54,374.69Z"/><path class="cls-194" d="M265.16,373.51c-.41-1.43-.89-2.84-.1-4.32a1.73,1.73,0,0,0,.05-1.17c-1.05-3.7-.4-7.49-.53-11.23a62.76,62.76,0,0,0-.51-8,10.94,10.94,0,0,1,.3-5.58,5.08,5.08,0,0,0,.16-2.06c-.35-5-.59-9.94-.57-14.92a9.06,9.06,0,0,1,1.2-4.79c.75,5.29.22,10.66,1.11,15.94a22.12,22.12,0,0,1,.07,4.46,59.8,59.8,0,0,0,1.1,12.66,15.09,15.09,0,0,1,.09,3.86c-.37,5.06.84,10.06.63,15.11A3.43,3.43,0,0,1,265.16,373.51Z"/><path class="cls-38" d="M265.16,373.51l3,0h1.19l1.19,0c.2.12.27.23.19.34s-.14.15-.21.15l.05.19-5.42-.17C265.15,373.85,265.16,373.68,265.16,373.51Z"/><path class="cls-23" d="M264.56,271.22l-.61-.6Z"/><path class="cls-136" d="M270.52,374a4,4,0,0,0,0-.49,1.26,1.26,0,0,1,1.18.51Z"/><path class="cls-195" d="M491.44,599c.09-.82-.24-1.75.6-2.38,3.22,1,6.42,2,9.57,3.14a27,27,0,0,0,8.62,2c1.15,0,2.43,0,3.17,1.22.55,1.32.29,2.73.51,4.09a1.35,1.35,0,0,1-.27.86l-.63.66a3.19,3.19,0,0,0-3.31-2.54,13.71,13.71,0,0,1-6.43-2,8.52,8.52,0,0,0-2.73-1.08C497.23,602.25,494.35,600.61,491.44,599Z"/><path class="cls-196" d="M513.64,607.93c0-.17,0-.33-.07-.5a3.44,3.44,0,0,1,1.13-3.24,18,18,0,0,1,12.07-4.57c-1.64,2.52-4.35,4-6.22,6.31A10.8,10.8,0,0,0,519,608Z"/><path class="cls-197" d="M492.65,593.63c1-.51.23-1.87,1.19-2.39-.22,1.75,1.14,2.21,2.33,2.61a25.11,25.11,0,0,0,9.88,1.5c2.29-.18,4.07,0,5.31,2.12.07.1.37.07.57.1.49-.46.2-.92,0-1.33-1.42-2.38-2.76-4.82-4.33-7.1a8.29,8.29,0,0,1-1.79-5.78l.12-3.31c.16-.35.39-.4.69-.17,1.79,6,5.81,10.8,8.75,16.19.57,1,1.48,1.91,1.46,3.21a2.83,2.83,0,0,1-3.31,1.25,9,9,0,0,0-4.34-.75,35.85,35.85,0,0,1-16.55-4.2,1.14,1.14,0,0,1,.05-1.36C492.64,594,492.64,593.83,492.65,593.63Z"/><path class="cls-198" d="M492.65,595.43a11.31,11.31,0,0,1,4.28,1.16,29.91,29.91,0,0,0,14.43,2.26c1.34-.15,1.76.57,2.27,1.43.69,1.17,1.22,2.31-.6,3-1.1-1.2-2.68-.8-3.93-.8a13.94,13.94,0,0,1-4.59-.84c-3.45-1.19-6.88-2.43-10.41-3.42a2.83,2.83,0,0,1-2.06-1.57l0-1.18C492.26,595.14,492.45,595.14,492.65,595.43Z"/><path class="cls-184" d="M492.65,595.43h-.58a1.24,1.24,0,0,1,.57-1.22C492.64,594.62,492.65,595,492.65,595.43Z"/><path class="cls-170" d="M302.28,450.07l-.61-.6Z"/><path class="cls-199" d="M511.7,546.93a3.23,3.23,0,0,1,2.44.87c3,3.05,6.18,5.85,8.66,9.35a.67.67,0,0,1,0,.81c-.4.35-.71.06-1.05-.13q-6.19-3.5-12.4-7a14.23,14.23,0,0,0-4.17-1.49c-.19-.12-.26-.23-.19-.35s.13-.17.2-.17a.56.56,0,0,1,.57-.09c1-.44,2-.69,3-1.13A5.68,5.68,0,0,1,511.7,546.93Z"/><path class="cls-162" d="M508.8,547.63a3.53,3.53,0,0,1-3,1.13A4.32,4.32,0,0,1,508.8,547.63Z"/><path class="cls-174" d="M505.23,548.85c0,.17,0,.35,0,.52l-1.44-.09A1.5,1.5,0,0,1,505.23,548.85Z"/><path class="cls-174" d="M523.2,560.73l-.07.6c-.18.28-.36.27-.55,0h0Z"/><path class="cls-199" d="M517.8,550l.6.59Z"/><path class="cls-200" d="M285.51,390.26v-3.59c2.36,4.64,4.66,9.32,7.13,13.91.7,1.31,1.11,2.72,1.68,4.06,2.1,4.91,4.65,9.61,6.86,14.47a14.85,14.85,0,0,1,1.69,5.24c-1.39.06-1.89-1.37-3-1.79-2.28-2.89-5.26-5.18-7.19-8.37a49.52,49.52,0,0,1-5.38-11.37c.22-1.33-.45-2.52-.61-3.79C286.33,396.1,285.91,393.18,285.51,390.26Z"/><path class="cls-46" d="M304.07,425.55a1.2,1.2,0,0,1-1.19-.61A1.26,1.26,0,0,1,304.07,425.55Z"/><path class="cls-46" d="M304.67,426.15l-.6-.6Z"/><path class="cls-201" d="M498.64,554.75a4.08,4.08,0,0,0,.59-1.8,3.9,3.9,0,0,0,.61-1.78.41.41,0,0,1,.59,0v1.19a2.47,2.47,0,0,1,.22,1.6c0,1.63,1.22,2.14,2.34,2.77,5.63,3.16,11.38,6.12,16.63,9.92a10.66,10.66,0,0,1,2.31,1.86v.61c-.71.71.46,2.19-1,2.57-4.89-2.77-9.32-6.26-14.24-9-1.82-1-3.67-1.93-5.49-2.93a4,4,0,0,1-2.34-2.52C498.73,556.43,499.3,555.55,498.64,554.75Z"/><path class="cls-202" d="M499.84,553.55c.2-.39.4-.79.59-1.19,2.21.82,4.48,1.4,6.39,3,1,.83,2.63.91,3.76,1.64,2.87,1.85,6.07,3.18,8.69,5.47a18.68,18.68,0,0,0,3.33,1.9l-.06.6c-.26,1.4-.57,2.62-2.38,1.35-5.86-4.11-12.34-7.17-18.48-10.82A5.19,5.19,0,0,1,499.84,553.55Z"/><path class="cls-202" d="M522.58,561.33h.55a3.62,3.62,0,0,1-.47,2.63C522.63,563.09,522.61,562.21,522.58,561.33Z"/><path class="cls-186" d="M500.43,551.17h-.59C500,550.76,500.23,550.75,500.43,551.17Z"/><path class="cls-203" d="M505.16,573.32c-1.08-.66-1.61-2-2.85-2.44a4.73,4.73,0,0,1-.68-.58h0c-1.21-2.13-3.53-3.21-4.86-5.23-.54-.86-.11-1.47.49-2.05,3,.18,5.22,2.15,7.69,3.5,3.51,1.92,6.72,4.39,10.57,5.71-.72,1.78-2.56,1-3.76,1.65a6.78,6.78,0,0,1-1,.19A9.65,9.65,0,0,1,505.16,573.32Z"/><path class="cls-17" d="M497.45,563.12l-.67,2-1.17.85c0-.53,0-1.06,0-1.59h0a5.49,5.49,0,0,0,.57-.61c.2-.8.41-1.6.61-2.39l.61-.59.28.26a2,2,0,0,1,.18,1.51A1.59,1.59,0,0,1,497.45,563.12Z"/><path class="cls-97" d="M491.48,568.57a1.08,1.08,0,0,1,1.13-.67A1.3,1.3,0,0,1,491.48,568.57Z"/><path class="cls-177" d="M494.43,566.66l.73-.5A.79.79,0,0,1,494.43,566.66Z"/><path class="cls-204" d="M511.8,573.29c.46-.64,1.14-.58,1.8-.59s1.35,0,1.81-.59a1.85,1.85,0,0,1,2.21-.37c4.17,5.47,7.17,11.68,11,17.37a3.77,3.77,0,0,1,.56,3.93c0,.65-.06,1.3-.08,2a1.85,1.85,0,0,1-.42-.11c-1.91.86-2.46-.81-3.15-1.85-3.27-4.94-6.24-10.07-9.31-15.14A11.49,11.49,0,0,0,511.8,573.29Z"/><path class="cls-203" d="M529.17,593a5,5,0,0,0-.84-3.07c-3.29-5.18-6.48-10.43-9.69-15.66a4.42,4.42,0,0,1-.85-2.2,3.25,3.25,0,0,1,2.25-.88,1,1,0,0,1,.75.27c.92-.54.24-1.83,1.13-2.38a5,5,0,0,0,1.36,4.12c-.42.06-1.51-.59-1,.55a56.16,56.16,0,0,0,3.23,5.69c1.28,2.12,2.56,4.26,4,6.28a3.36,3.36,0,0,1,.55,3.62C529.49,590.56,530.31,592,529.17,593Z"/><path class="cls-203" d="M523.23,573.2a1.3,1.3,0,0,1,1.06.73C523.8,573.88,523.38,573.73,523.23,573.2Z"/><path class="cls-205" d="M513,603.25c.84-.86.46-2,.6-3a9.07,9.07,0,0,0,3-1.22,3.29,3.29,0,0,1,1.74-1.1c1.18-.41,2.38-.74,3.52-1.25s2.12-.82,3.19-1.22a4.33,4.33,0,0,1,3.44-.13c0,1.06-.76,2-.58,3.06a2.09,2.09,0,0,1-1.2,1.2c-2.83.59-5.37,2-8.19,2.72-2.56.64-4,2.78-5,5.09C512.38,606.17,513.32,604.63,513,603.25Z"/><path class="cls-70" d="M532.77,580l.5-.42a.92.92,0,0,1-.46.83C532.8,580.32,532.78,580.18,532.77,580Z"/><path class="cls-18" d="M528.55,595.36,525,596c-1.24.29-1.82-.59-2.35-1.41-3.85-6-7.37-12.28-11.23-18.3-.59-.92-1.1-2-.2-3h.59c2-.28,3,.81,4,2.42,3.49,5.86,7.14,11.61,10.71,17.42.53.88,1,1.72,2.2,1.75A2,2,0,0,0,528.55,595.36Z"/><path class="cls-186" d="M499.84,553.55c7.17,4.4,14.93,7.78,21.69,12.86l1-1.48c0,.77,0,1.53,0,2.3l-.62,1.28a5.52,5.52,0,0,1-2.67-1.21A143,143,0,0,0,501.89,557C500.36,556.22,499.58,555.28,499.84,553.55Z"/><path class="cls-11" d="M511.21,573.3a5.43,5.43,0,0,0,1.17,3.28q5.36,8.64,10.63,17.34a5.07,5.07,0,0,0,2,2.12,7,7,0,0,1-2.94,1.23c-1.57.28-2-1-2.59-2-3.94-6.53-8.11-12.92-11.82-19.57a4.35,4.35,0,0,0-1.86-1.82.81.81,0,0,1-.62-.59Z"/><path class="cls-8" d="M505.78,573.91a2,2,0,0,1,2.16,1.17q5.67,9.39,11.45,18.72c.77,1.24,1.28,2.69,2.66,3.47a6.93,6.93,0,0,1-3.63,1.21c-2.22-.71-2.39-3-3.46-4.58-2.56-3.74-4.79-7.69-7.17-11.55a6.43,6.43,0,0,1-.81-6.15C507,575.2,506.25,574.64,505.78,573.91Z"/><path class="cls-206" d="M507,576.2c-.62,3,.94,5.36,2.5,7.54,2.39,3.34,4,7.12,6.56,10.38,1,1.27,1.33,3,2.38,4.36-.45.6-1.13.54-1.76.58-2.57-2.68-3.84-6.21-6-9.18-1-1.42-1.65-3.14-2.69-4.54a7.72,7.72,0,0,1-1.61-5.55,2.56,2.56,0,0,1,0-2.29c0-.2.05-.41.08-.61Z"/><path class="cls-176" d="M501.63,570.3a.85.85,0,0,1,.68.58Z"/><path class="cls-181" d="M506.37,577.5c0,.76,0,1.53,0,2.29l-.49.26C505.89,579.17,505.53,578.22,506.37,577.5Z"/><path class="cls-207" d="M520.2,571.51c-.64.86-1.58.5-2.41.6h-2.38c-2.12.36-3.74-.62-5.47-1.69-4.1-2.55-8.32-4.88-12.49-7.3,0-.19,0-.39,0-.59.48-.53.22-1.18.29-1.78s.21-1.25-.29-1.77l0-.05c.06-1.13.81-2,1.19-3,0-.4,0-.79,0-1.19.88.63.51,1.57.59,2.4-.25,1.84.79,2.88,2.25,3.72a161,161,0,0,1,14.7,8.87C517.42,570.63,519.08,570.44,520.2,571.51Z"/><path class="cls-188" d="M496.22,563.72l-.57.61Z"/><path class="cls-17" d="M497.46,559c.7.42.55,1.11.56,1.74-.19.28-.38.29-.58,0h0C497.45,560.15,497.46,559.56,497.46,559Z"/><path class="cls-142" d="M520.2,571.51a7.15,7.15,0,0,1-5-1.5,132.52,132.52,0,0,0-14.85-8.78c-1.85-1-2.05-1.72-1.16-4.08a4.57,4.57,0,0,0,2.15,2c3.33,1.75,6.91,3.18,9.88,5.42,3.15,2.36,7,3.79,9.53,7Z"/><path class="cls-203" d="M497.44,560.73H498c0,.66.11,1.36-.57,1.81C497.45,561.93,497.44,561.33,497.44,560.73Z"/></svg>