<svg id="Camada_1" data-name="Camada 1" xmlns="http://www.w3.org/2000/svg" viewBox="0 0 695.25 622"><defs><style>.cls-1{fill:#feb69b;}.cls-2{fill:#fe3c00;}.cls-3{fill:#473f47;}.cls-4{fill:#cc2600;}.cls-5{fill:#a81400;}.cls-6{fill:#ee9d84;}</style></defs><title>volley</title><path class="cls-1" d="M347.86,396.17c.18,1.08-.51,1.78-1,2.58-7.72,11.85-16.32,23.06-24.56,34.55-3.63,5.09-7.21,10.39-11.57,14.86a32.72,32.72,0,0,1-15.48,8.7c-11.52,2.95-23,6-34.69,8.33-11.19,2.23-22.4,4.35-33.73,5.66-2.84.33-5.67,1-8.44,1.41-5.59.79-8.28,5.06-11.12,9.13-5.24,7.5-10.72,14.84-14.88,23.06-2,3.89-3.43,4.19-7.38,2.13-3.47-1.81-7-3.59-10.28-5.67a5.89,5.89,0,0,1-2.12-8.06,7.57,7.57,0,0,1,.52-.74c4-5.33,7.05-11.33,11.33-16.51,4.87-5.85,10-11.48,15.11-17.15,2.65-2.94,6.25-1.89,9.39-2.45a119.39,119.39,0,0,0,33-10.64,128,128,0,0,1,38.6-12,37.45,37.45,0,0,1,7.7-.43c2.1.14,3-.8,3.87-2.53,6.48-12.4,11-25.5,14.75-38.95a70.41,70.41,0,0,0,2.43-22.8,33.94,33.94,0,0,1,2.84-15.9c.38-.84.47-1.89,1.64-2.14a2.24,2.24,0,0,1,1.6,1.08c4.58,5.86,10,11,14.39,17,5.31,7.22,11.61,13.71,15.85,21.72C346.63,392.27,348.23,393.86,347.86,396.17Z"/><path class="cls-1" d="M382.45,357c1.8,5.51,1.89,11.26,2.13,16.92a186.36,186.36,0,0,1-1.12,31.51c-1.75,13.39-3.61,26.81-7.49,39.79-1.48,5-3.09,9.95-4.57,14.94-1.65,5.67-5.54,9.11-10.31,12-2.35,1.43-4.39,3.38-6.71,4.88q-22.08,14.37-45.05,27.3c-5.55,3.12-11,6.56-16.95,8.94-4.72,1.89-5.92,6.33-7.11,10.51-1.28,4.47-1.8,9.15-3,13.64a93.74,93.74,0,0,1-3.71,10.39c-.79,2-2.06,3.09-4.72,2.61s-5.33-1.47-8-2.14a5.35,5.35,0,0,1-4.15-5.21c-.39-4.58-.34-9.12,1.34-13.57,2.33-6.17,2.55-12.86,4.28-19.2.86-3.17,1.84-6.33,3-9.44a5.26,5.26,0,0,1,4.55-3.52c4.55-.34,8-2.62,11.34-5.49,5.95-5.23,12.45-9.85,17.71-15.85,2.26-2.57,4.51-5.16,6.72-7.77,4.18-5,9.71-8,15.44-10.65a140.72,140.72,0,0,1,18.75-7.08c1.67-.51,2.43-1.16,2.63-3.07.28-2.68.11-5.38.49-8,1.37-9.13,1.3-18.36,2.1-27.53.39-4.38-.07-8.8.7-13.16.12-.72-.24-1.57.6-2.08,5.16-2.39,8.55-6.92,12.53-10.67,4.44-4.18,7.78-9.39,11.53-14.16a32.63,32.63,0,0,0,5.77-11.76C381.43,359,381.43,357.75,382.45,357Z"/><path class="cls-1" d="M318.4,300.62c-2.23-.48-3.94-2-5.6-3.31-6.31-5.09-13.83-6.61-21.53-7.56q-17.14-2.12-34.32-4a146.91,146.91,0,0,1-15.2-2.39c-3.4-.73-3.7-3-3.61-5.44a62.58,62.58,0,0,1,2-15c4.29-15.11,7.32-30.47,11.8-45.49.39-1.29,1.05-2.59.35-4.14-1.42-3.19-.52-6.4,1.2-9a10.13,10.13,0,0,0,1.57-6.15v-5.75c0-.86,0-1.89,1.15-2s1,.95,1.24,1.65.54,1.36,1.11,2.76c.89-3,1.58-5.29,2.24-7.61.16-.56.24-1.22,1-1.17.53,0,.58.64.79,1.08.83,1.75.3,3.72.84,6.45,1.15-2.76,2-4.72,2.83-6.68.47-1.13,1.27-2.36,2.42-2.05,1.41.39.86,2,.67,3-.39,2.12-1.3,4.15-.9,6.62,1.36-1.2,1.52-2.84,2.17-4.13s1.65-2.29,3.16-1.63.51,2,.2,3c-1.17,3.72-2.4,7.43-3.63,11.14-.21.67-.48,1.36.16,1.85s1.25-.07,1.84-.34c1.72-.82,3-2.43,4.87-3a2,2,0,0,1,2.16.26c.82.8-.07,1.35-.39,2-.6,1.26-1.88,1.89-2.83,2.83-3.26,3.19-6.5,6.42-9.58,9.79-4.21,4.57-5.61,10.39-6.27,16.27-1.08,9.66-1.89,19.34-2.83,29-.4,3.9-.27,4,3.52,4.14,5.94.2,11.85-.59,17.78-.63,2.69-1.54,5.56-.73,8.37-.64a18.33,18.33,0,0,0,6.52.27,57.46,57.46,0,0,1,10.24-.45,47,47,0,0,0,9.88-1.18,2.07,2.07,0,0,1,1.55.63c5.9,6.39,11.33,13,10.7,22.52A19.11,19.11,0,0,1,318.4,300.62Z"/><path class="cls-2" d="M318.61,300.62c.76-1.88,2.51-3.06,3.62-4.66,4.49-6.52,4.56-17.08-1.26-24.25-2.22-2.72-4.27-5.58-6.39-8.36.79-1.89,2-3.38,4.17-3.72a22.34,22.34,0,0,1,4.72,2.59,124.92,124.92,0,0,0,27,14.44,26.06,26.06,0,0,0,10.39,2c4.72-.21,6.61-3.52,4.37-7.7-2.55-4.72-6.61-8.11-10.39-11.74-1.18-1.13-3-1.8-2.83-3.93l4-1.09a2,2,0,0,1,2.11.4c6.73,4.29,12.83,9.45,19.42,13.92a2,2,0,0,1,.72,1.19c.74,2.41,3,3.23,4.8,4.5,5,3.57,8.38,12.63,6.16,17.75-2.51,5.8-4.89,11.71-8.87,16.73a3.39,3.39,0,0,0-.89,2.29c-.74,1.64-2.21,2.24-3.78,2.78A69.19,69.19,0,0,1,356.53,317c-7.14.33-14.28,1.07-21.45.69-1.3-.06-2.72.21-3.72-1C329.69,309.23,325.94,303.51,318.61,300.62Z"/><path class="cls-1" d="M378.45,269.71c-7-4.17-12.88-9.83-19.83-14-.8-.49-1.59-1-2.4-1.51,7.34-5.67,12-13.76,18.34-20.26,4.14-4.24,7.44-9.37,12-13s5.09-8.39,6.37-13.16A222.49,222.49,0,0,1,401.49,182c1.24-3.06,2.31-6.24,3.78-9.17,3.39-6.68,3.53-13.89,4.45-21.06.68-5.36-.08-10.66.42-16a18.45,18.45,0,0,1,1.53-6.07c.37-.77.79-1.65,1.89-1.45s1.15,1.11,1.15,2V132c-.15,3.46,0,6.82,2,9.86a13.07,13.07,0,0,1,1.34,3.47c1.25,4.24,1.22,4.24,5.08,1.75,1-.65,2.12-1.77,3.26-.43.94,1.1.48,2.34-.45,3.37a9.05,9.05,0,0,0-2,3.78,48.12,48.12,0,0,1-5.67,12.42c-2.54,4.2-3.44,9.16-4.09,14.05-1.17,8.78-1.89,17.63-3.57,26.31a55.37,55.37,0,0,1-9.15,21.07c-4,5.73-7,12.11-10.95,17.84A102.85,102.85,0,0,0,378.45,269.71Z"/><path class="cls-1" d="M331.32,316.63a248.12,248.12,0,0,0,30.6-1.05c6.05-.61,12.14-1.31,17.51-4.6-.42,4.15-1.63,8.17-1.75,12.42-.22,8.29,1.49,16.29,3.05,24.32a3.12,3.12,0,0,1-.13,2.45c-1.25,1.89-3.31,2.52-5.28,3.25-9.38,3.46-18.94,3.23-28.61,1.5A118.24,118.24,0,0,1,319.47,346a4.06,4.06,0,0,1-2-1.56c1.68-3.88,5.23-6.13,8.31-8.44,4.57-3.41,4.88-8,5.41-12.8C331.38,321,331.28,318.82,331.32,316.63Z"/><path class="cls-3" d="M287.38,264.8h-8.45c-.05-3.64-2.05-6.48-3.84-9.44a29.26,29.26,0,0,1-4.39-10.18c-1.75-9.68,4.64-15.92,14.22-13.71,1.38.33,2.72.8,4.23,1.24a32.65,32.65,0,0,1,1-7.23c2.77-9.45,9.19-15.06,18.46-17.66a4.45,4.45,0,0,0,3-2.28c3.19-5.67,8.9-7.86,15.11-5.87,4.81,1.53,5.56,5.58,6.14,9.73a18.51,18.51,0,0,1,0,2.58c-.4,1.78-1.7,1.74-3.11,1.59-3.9-.43-4.61.16-5.32,4-.49,2.66-.37,5.5-2.69,7.61-.76.68-.55,2.17-.72,3.3-.56,3.59-2.06,6.61-5.55,8.13-1.83.79-1.82,1.62-.61,2.92a20,20,0,0,0,3.26,2.83c.94.66,1.95,1.28,2.06,2.6-.14,1.81-1.52,2.58-2.91,3.22A20.45,20.45,0,0,1,306.89,250a8,8,0,0,1-6.42-4.27,56.93,56.93,0,0,0-3.16-5.46c-.66-.86-1.43-1.7-2.63-1.19s-1.22,1.67-.95,2.72a40.59,40.59,0,0,1,.89,10.83,11.63,11.63,0,0,1-1,4.72c-.74,1.5-1.68,1.48-2.44,0a19.75,19.75,0,0,1-1.89-6c.68,3.21-.31,7.22-.68,11.24A2.53,2.53,0,0,1,287.38,264.8Z"/><path class="cls-2" d="M317.45,344.47c8.24,3.2,16.31,6.88,25,8.78,11,2.4,22.07,3.48,32.95-.77,1.75-.69,3.45-1.53,5.18-2.29,1.16,2.12.9,4.64,1.89,6.81a32,32,0,0,1-7.67,16.55c-2.49,2.83-4.64,6.06-7,9.08-3.78,4.87-8.7,8.5-12.82,13-1.08,1.17-2.34,1.1-3.67,1.07-1-1.19-2.31-.32-3.47-.53a79.25,79.25,0,0,0-11.11-17.59c-4.72-5.67-8.93-11.85-13.92-17.32a135.31,135.31,0,0,1-9-10.6C313.55,347.72,316,346.35,317.45,344.47Z"/><path class="cls-1" d="M319.88,245c-2.59-2.44-6.1-4-7.64-7.79,6.38-1,7.84-5.77,8.5-11.17.11-.82-.94-2.91,1.67-2,.35.12.52-1.27.63-2a59.24,59.24,0,0,1,1-6.2c.78-3,2.17-3.7,5.12-2.84,1.39.43,2.75,1.13,3.66-.69a2.72,2.72,0,0,0,1.16,1.88c7.12,5.58,11,13.47,14.89,21.25,2.06,4.1.24,9.21-3.62,12.08-.9.67-2.12,1-2.63,2.1-5.83,2.48-11.41.7-16.7-.77a18.35,18.35,0,0,0,14,5.8c2,0,3.53-.48,4.52-2.26a41.77,41.77,0,0,0,7.48,3c2.89,3.42,6.39,6.22,9.44,9.45a24,24,0,0,1,5,7c1.82,4.17-.34,7.47-4.89,7.75-5.67.34-10.76-1.63-15.71-3.87A129.83,129.83,0,0,1,323.3,263c-1.54-1.11-3.51-1.56-4.72-3.16,0-2.64,1.52-4.83,2.2-7.28C321.48,249.86,322.81,247.19,319.88,245Z"/><path class="cls-4" d="M468.59,113.89c-.15-1.42-.21-1.89.57-2.39,7.95-4.78,16-9.4,25.06-11.66a23.25,23.25,0,0,1,3.1-.49c5.06-.54,5.46.35,6.51,5.46.94,4.45-1.16,6.22-4.49,7.7-8.5,3.78-17.41,6.2-26.25,8.93-.67.21-1.23.45-1.65-.42C470.21,118.49,470,115.59,468.59,113.89Z"/><path class="cls-5" d="M470.55,138.58c-3.66,2.91-6.77.59-9.86-.54-8.43-3.1-13.68-9.29-17.54-17.29-2.31-4.84-2.13-9.56-2.11-14.48,0-1.82.68-3.18,2.95-3.1s4.85-.8,6.81,0c2.54.94.95,4,1.29,6,1.67,11,6.49,20.18,15.11,27.23A35.15,35.15,0,0,0,470.55,138.58Z"/><path class="cls-4" d="M500.9,96.54c-11.48.94-21.07,5.71-30.32,11.42-2.63,1.62-2.68,1.59-3-1.58-.06-.48.06-1.17-.2-1.4-3.27-2.77,0-4.49,1.31-5.82,6.84-6.78,15.36-9.58,24.88-9.85a4,4,0,0,1,3.34,1.41C498.31,92.42,499.43,94.37,500.9,96.54Z"/><path class="cls-4" d="M504.32,112.38c-.82,2.93-1.2,5.5-2.26,8a10.18,10.18,0,0,1-5.15,5.36,52.49,52.49,0,0,1-16.73,4.66c-1.38.17-1.63-.68-2.34-1.4-1.53-1.55-3.5-2.66-4.59-5C483.51,120.19,494.45,118.19,504.32,112.38Z"/><path class="cls-5" d="M474.32,129.34c2.61,1.24.9,2.91.27,4.26-1.54,3.39-1.61,3.33-4.72,1.57-5.79-3.27-9.21-8.5-11.63-14.44-1.89-4.72-3.95-9.44-4.05-14.69,0-2.24.5-3.15,2.75-2.66,1.22.26,2.44.47,3.66.7.83.87.68,1.89.56,3-.77,7.21,1.38,13.5,5.83,19.18C468.92,128.74,471.57,129,474.32,129.34Z"/><path class="cls-4" d="M462.84,82.25c5.46-.45,10.68.12,14.84,4.2,2.34,2.31,2,2.21-.58,4-4.38,3.13-8.4,4-13.09.73-2.12-1.44-5-.82-7.47-1.55C457.41,86.16,460,84,462.84,82.25Z"/><path class="cls-4" d="M474.32,129.34a5.52,5.52,0,0,1-6.74-1.39c-5.6-6-8.3-13-7.11-21.3a24.43,24.43,0,0,0,.09-2.57c3.26.33,4.92,1.89,5.06,5.42A29.93,29.93,0,0,0,474.32,129.34Z"/><path class="cls-4" d="M454.24,92.16c4.33,0,8.5.41,12.38,2.64,1.22.71,1.26,1.19.46,2.58-2.27,3.88-5,5.66-9.5,3.78-1.53-.62-3.38-.48-5.08-.67C451.08,97.36,451.63,94.68,454.24,92.16Z"/><path class="cls-6" d="M344.46,252.28c.18,2.16-.72,2.93-3,3-7.17.36-13-2-17.71-8.1,3.23,1.08,6.2,1.6,9,2.41,3.41,1,6.56-.59,9.83-.12Z"/><path class="cls-4" d="M470.6,80c7.83-.22,15.11,1.37,21.8,7.11a49.45,49.45,0,0,0-9,1.27c-.72.16-1.52.22-2-.66C479.16,83.31,475.1,81.42,470.6,80Z"/><path class="cls-5" d="M488.77,135.69c-2.57,2.83-6.21,3.12-9.58,3.94-2,.48-4,1.07-6.35.51a39.19,39.19,0,0,0,4.4-6.49c.94-1.74,2.9-.73,4.39-1C484.53,132.45,487,133.24,488.77,135.69Z"/><path class="cls-5" d="M454.24,92.16a13.75,13.75,0,0,0-1.74,8.35c-3.23.37-6.5-.14-9.77.58C447,92.54,447,92.54,454.24,92.16Z"/><path class="cls-5" d="M462.84,82.25c-2.09,2.48-4.58,4.61-6.3,7.41l-7.62.44c2.41-2.39,4.55-4.53,7.33-5.57C458.43,83.73,460,81.16,462.84,82.25Z"/><path class="cls-4" d="M488.77,135.69c-2.33-1.12-4.5-2.64-7.14-3.06a101.6,101.6,0,0,0,15.57-4C494.49,131.18,492.05,133.93,488.77,135.69Z"/></svg>